<?xml version="1.0" encoding="UTF-8" standalone="no"?>
<svg width="30px" height="37px" viewBox="0 0 30 37" version="1.1" xmlns="http://www.w3.org/2000/svg" xmlns:xlink="http://www.w3.org/1999/xlink">
    <!-- Generator: Sketch 3.8.2 (29753) - http://www.bohemiancoding.com/sketch -->
    <title>FAQ</title>
    <desc>Created with Sketch.</desc>
    <defs></defs>
    <g id="Welcome" stroke="none" stroke-width="1" fill="none" fill-rule="evenodd">
        <g id="Landing-Desktop" transform="translate(-101.000000, -686.000000)">
            <g id="Icons" transform="translate(0.000000, 658.000000)">
                <g id="FAQ" transform="translate(90.000000, 22.000000)">
                    <g id="Group-7" transform="translate(11.000000, 6.000000)">
                        <g id="Group" transform="translate(0.000000, 4.464555)">
                            <path d="M29.1557223,14.5098039 C29.1557223,22.1553544 22.9080675,28.4057315 15.1407129,28.4057315 C7.42964353,28.4057315 1.12570356,22.2111614 1.12570356,14.5098039 C1.12570356,6.86425339 7.37335835,0.61387632 15.1407129,0.61387632 C22.8517824,0.669683258 29.1557223,6.86425339 29.1557223,14.5098039 L29.1557223,14.5098039 Z" id="Shape" fill="#FFAB00"></path>
                            <path d="M15.1407129,28.9638009 C7.09193246,28.9638009 0.562851782,22.4901961 0.562851782,14.5098039 C0.562851782,6.52941176 7.09193246,0.0558069382 15.1407129,0.0558069382 C23.1894934,0.0558069382 29.7185741,6.52941176 29.7185741,14.5098039 C29.7185741,22.4901961 23.1894934,28.9638009 15.1407129,28.9638009 L15.1407129,28.9638009 Z M15.1407129,1.22775264 C7.71106942,1.22775264 1.68855535,7.19909502 1.68855535,14.5656109 C1.68855535,21.9321267 7.71106942,27.9034691 15.1407129,27.9034691 C22.5703565,27.9034691 28.5928705,21.9321267 28.5928705,14.5656109 C28.5928705,7.19909502 22.5703565,1.22775264 15.1407129,1.22775264 L15.1407129,1.22775264 Z" id="Shape" fill="#37474F"></path>
                        </g>
                        <g id="Group" transform="translate(9.737336, 25.671192)">
                            <path d="M10.1313321,7.58974359 C10.1313321,9.04072398 9.00562852,10.0452489 7.54221388,10.0452489 L3.26454034,10.0452489 C1.8011257,10.0452489 0.562851782,8.98491704 0.562851782,7.58974359 L0.562851782,3.34841629 C0.562851782,1.8974359 1.8011257,0.558069382 3.26454034,0.558069382 L7.54221388,0.558069382 C9.00562852,0.558069382 10.1313321,1.8974359 10.1313321,3.34841629 L10.1313321,7.58974359 L10.1313321,7.58974359 Z" id="Shape" fill="#FFFFFF"></path>
                            <path d="M7.54221388,10.6033183 L3.26454034,10.6033183 C1.40712946,10.6033183 0,9.26395173 0,7.58974359 L0,3.34841629 C0,1.56259427 1.51969981,0 3.26454034,0 L7.54221388,0 C9.23076923,0 10.6941839,1.50678733 10.6941839,3.34841629 L10.6941839,7.58974359 C10.6941839,9.31975867 9.34333959,10.6033183 7.54221388,10.6033183 L7.54221388,10.6033183 Z M3.26454034,1.11613876 C2.13883677,1.11613876 1.12570356,2.17647059 1.12570356,3.34841629 L1.12570356,7.58974359 C1.12570356,8.65007541 2.08255159,9.48717949 3.26454034,9.48717949 L7.54221388,9.48717949 C8.72420263,9.48717949 9.5684803,8.65007541 9.5684803,7.58974359 L9.5684803,3.34841629 C9.5684803,2.17647059 8.61163227,1.11613876 7.54221388,1.11613876 L3.26454034,1.11613876 L3.26454034,1.11613876 Z" id="Shape" fill="#37474F"></path>
                        </g>
                        <g id="Group" transform="translate(11.988743, 27.903469)" fill="#37474F">
                            <polygon id="Shape" points="3.37711069 0.558069382 3.37711069 2.79034691 5.62851782 2.79034691 5.62851782 3.34841629 3.37711069 3.34841629 3.37711069 5.58069382 2.81425891 5.58069382 2.81425891 3.34841629 0.562851782 3.34841629 0.562851782 2.79034691 2.81425891 2.79034691 2.81425891 0.558069382"></polygon>
                            <path d="M3.37711069,6.1387632 L2.81425891,6.1387632 C2.47654784,6.1387632 2.25140713,5.91553544 2.25140713,5.58069382 L2.25140713,3.90648567 L0.562851782,3.90648567 C0.225140713,3.90648567 0,3.68325792 0,3.34841629 L0,2.79034691 C0,2.45550528 0.225140713,2.23227753 0.562851782,2.23227753 L2.25140713,2.23227753 L2.25140713,0.558069382 C2.25140713,0.223227753 2.47654784,0 2.81425891,0 L3.37711069,0 C3.71482176,0 3.93996248,0.223227753 3.93996248,0.558069382 L3.93996248,2.23227753 L5.62851782,2.23227753 C5.96622889,2.23227753 6.19136961,2.45550528 6.19136961,2.79034691 L6.19136961,3.34841629 C6.19136961,3.68325792 5.96622889,3.90648567 5.62851782,3.90648567 L3.93996248,3.90648567 L3.93996248,5.58069382 C3.93996248,5.91553544 3.71482176,6.1387632 3.37711069,6.1387632 L3.37711069,6.1387632 Z" id="Shape"></path>
                        </g>
                        <g id="Group" transform="translate(9.568480, 0.000000)">
                            <path d="M8.61163227,21.9321267 C8.61163227,22.7692308 7.93621013,23.438914 7.14821764,23.438914 L4.05253283,23.438914 C3.26454034,23.438914 2.5891182,22.7134238 2.5891182,21.9321267 L1.12570356,2.00904977 C1.12570356,1.1719457 1.8011257,0.558069382 2.5891182,0.558069382 L8.61163227,0.558069382 C9.45590994,0.558069382 10.0750469,1.1719457 10.0750469,2.00904977 L8.61163227,21.9321267 L8.61163227,21.9321267 Z" id="Shape" fill="#FFFFFF"></path>
                            <path d="M7.09193246,23.9969834 L3.99624765,23.9969834 C2.87054409,23.9969834 1.96998124,23.0482655 1.96998124,21.9321267 L0.506566604,2.06485671 C0.506566604,0.892911011 1.40712946,0 2.53283302,0 L8.61163227,0 C9.73733583,0 10.6378987,0.892911011 10.6378987,2.00904977 L9.17448405,21.9879336 C9.17448405,23.0482655 8.21763602,23.9969834 7.09193246,23.9969834 L7.09193246,23.9969834 Z M2.5891182,1.11613876 C2.08255159,1.11613876 1.68855535,1.50678733 1.68855535,2.00904977 L3.15196998,21.8763198 C3.15196998,22.4343891 3.54596623,22.8808446 4.05253283,22.8808446 L7.14821764,22.8808446 C7.65478424,22.8808446 8.04878049,22.4343891 8.04878049,21.9321267 L9.51219512,1.95324284 C9.51219512,1.50678733 9.11819887,1.11613876 8.61163227,1.11613876 L2.5891182,1.11613876 L2.5891182,1.11613876 Z" id="Shape" fill="#37474F"></path>
                        </g>
                        <g id="Group" transform="translate(14.240150, 5.971342)" fill="#37474F">
                            <g id="Shape">
                                <path d="M0.900562852,2.06485671 C0.562851782,2.06485671 0.281425891,1.78582202 0.281425891,1.45098039 C0.281425891,1.06033183 0.562851782,0.781297134 0.900562852,0.781297134 C1.23827392,0.781297134 1.51969981,1.06033183 1.51969981,1.45098039 C1.51969981,1.78582202 1.23827392,2.06485671 0.900562852,2.06485671 L0.900562852,2.06485671 Z"></path>
                                <path d="M0.900562852,2.3438914 C0.393996248,2.3438914 0,1.95324284 0,1.45098039 C0,0.948717949 0.393996248,0.502262443 0.900562852,0.502262443 C1.40712946,0.502262443 1.8011257,0.948717949 1.8011257,1.45098039 C1.8011257,1.95324284 1.40712946,2.3438914 0.900562852,2.3438914 L0.900562852,2.3438914 Z M0.900562852,1.06033183 C0.675422139,1.06033183 0.562851782,1.22775264 0.562851782,1.45098039 C0.562851782,1.61840121 0.731707317,1.78582202 0.900562852,1.78582202 C1.06941839,1.78582202 1.23827392,1.61840121 1.23827392,1.45098039 C1.23827392,1.22775264 1.12570356,1.06033183 0.900562852,1.06033183 L0.900562852,1.06033183 Z"></path>
                            </g>
                            <g transform="translate(0.000000, 4.464555)" id="Shape">
                                <path d="M0.900562852,2.12066365 C0.562851782,2.12066365 0.281425891,1.84162896 0.281425891,1.45098039 C0.281425891,1.11613876 0.562851782,0.781297134 0.900562852,0.781297134 C1.23827392,0.781297134 1.51969981,1.06033183 1.51969981,1.45098039 C1.51969981,1.84162896 1.23827392,2.12066365 0.900562852,2.12066365 L0.900562852,2.12066365 Z"></path>
                                <path d="M0.900562852,2.39969834 C0.393996248,2.39969834 0,2.00904977 0,1.45098039 C0,0.892911011 0.393996248,0.502262443 0.900562852,0.502262443 C1.40712946,0.502262443 1.8011257,0.892911011 1.8011257,1.45098039 C1.8011257,1.95324284 1.40712946,2.39969834 0.900562852,2.39969834 L0.900562852,2.39969834 Z M0.900562852,1.11613876 C0.731707317,1.11613876 0.562851782,1.28355958 0.562851782,1.50678733 C0.562851782,1.73001508 0.731707317,1.8974359 0.900562852,1.8974359 C1.06941839,1.8974359 1.23827392,1.73001508 1.23827392,1.50678733 C1.23827392,1.28355958 1.12570356,1.11613876 0.900562852,1.11613876 L0.900562852,1.11613876 Z"></path>
                            </g>
                            <g transform="translate(0.000000, 8.929110)" id="Shape">
                                <path d="M0.900562852,2.12066365 C0.562851782,2.12066365 0.281425891,1.84162896 0.281425891,1.50678733 C0.281425891,1.11613876 0.562851782,0.837104072 0.900562852,0.837104072 C1.23827392,0.837104072 1.51969981,1.11613876 1.51969981,1.50678733 C1.51969981,1.84162896 1.23827392,2.12066365 0.900562852,2.12066365 L0.900562852,2.12066365 Z"></path>
                                <path d="M0.900562852,2.39969834 C0.393996248,2.39969834 0,2.00904977 0,1.50678733 C0,1.00452489 0.393996248,0.558069382 0.900562852,0.558069382 C1.40712946,0.558069382 1.8011257,1.00452489 1.8011257,1.50678733 C1.8011257,2.00904977 1.40712946,2.39969834 0.900562852,2.39969834 L0.900562852,2.39969834 Z M0.900562852,1.11613876 C0.675422139,1.11613876 0.562851782,1.28355958 0.562851782,1.50678733 C0.562851782,1.67420814 0.731707317,1.84162896 0.900562852,1.84162896 C1.06941839,1.84162896 1.23827392,1.67420814 1.23827392,1.50678733 C1.23827392,1.28355958 1.12570356,1.11613876 0.900562852,1.11613876 L0.900562852,1.11613876 Z"></path>
                            </g>
                        </g>
                    </g>
                </g>
            </g>
        </g>
    </g>
</svg>