<?xml version="1.0" encoding="UTF-8" standalone="no"?>
<svg width="27px" height="36px" viewBox="0 0 27 36" version="1.1" xmlns="http://www.w3.org/2000/svg" xmlns:xlink="http://www.w3.org/1999/xlink">
    <!-- Generator: Sketch 3.8.2 (29753) - http://www.bohemiancoding.com/sketch -->
    <title>Glossary</title>
    <desc>Created with Sketch.</desc>
    <defs></defs>
    <g id="Welcome" stroke="none" stroke-width="1" fill="none" fill-rule="evenodd">
        <g id="Landing-Desktop" transform="translate(-372.000000, -686.000000)">
            <g id="Icons" transform="translate(0.000000, 658.000000)">
                <g id="Glossary" transform="translate(358.000000, 22.000000)">
                    <g id="Group-8" transform="translate(14.000000, 6.000000)">
                        <g id="Group">
                            <rect id="Rectangle-path" fill="#FFFFFF" x="0.573005093" y="0.580645161" width="25.7852292" height="34.8387097"></rect>
                            <path d="M26.9312394,36 L0,36 L0,0 L26.9312394,0 L26.9312394,36 L26.9312394,36 Z M1.14601019,34.8387097 L25.7852292,34.8387097 L25.7852292,1.16129032 L1.14601019,1.16129032 L1.14601019,34.8387097 L1.14601019,34.8387097 Z" id="Shape" fill="#37474F"></path>
                        </g>
                        <g id="Group" transform="translate(14.325127, 23.806452)" fill="#37474F">
                            <polygon id="Shape" points="5.15704584 0.580645161 5.15704584 3.48387097 8.02207131 3.48387097 8.02207131 4.64516129 5.15704584 4.64516129 5.15704584 8.12903226 3.43803056 8.12903226 3.43803056 4.64516129 0.573005093 4.64516129 0.573005093 3.48387097 3.43803056 3.48387097 3.43803056 0.580645161"></polygon>
                            <path d="M5.15704584,8.70967742 L3.43803056,8.70967742 C3.0942275,8.70967742 2.86502547,8.47741935 2.86502547,8.12903226 L2.86502547,5.22580645 L0.573005093,5.22580645 C0.229202037,5.22580645 0,4.99354839 0,4.64516129 L0,3.48387097 C0,3.13548387 0.229202037,2.90322581 0.573005093,2.90322581 L2.86502547,2.90322581 L2.86502547,0.580645161 C2.86502547,0.232258065 3.0942275,0 3.43803056,0 L5.15704584,0 C5.5008489,0 5.73005093,0.232258065 5.73005093,0.580645161 L5.73005093,2.90322581 L8.02207131,2.90322581 C8.36587436,2.90322581 8.5950764,3.13548387 8.5950764,3.48387097 L8.5950764,4.64516129 C8.5950764,4.99354839 8.36587436,5.22580645 8.02207131,5.22580645 L5.73005093,5.22580645 L5.73005093,8.12903226 C5.73005093,8.47741935 5.5008489,8.70967742 5.15704584,8.70967742 L5.15704584,8.70967742 Z M4.01103565,7.5483871 L4.58404075,7.5483871 L4.58404075,4.64516129 C4.58404075,4.29677419 4.81324278,4.06451613 5.15704584,4.06451613 C4.81324278,4.06451613 4.58404075,3.83225806 4.58404075,3.48387097 L4.58404075,1.16129032 L4.01103565,1.16129032 L4.01103565,3.48387097 C4.01103565,3.83225806 3.78183362,4.06451613 3.43803056,4.06451613 L1.14601019,4.06451613 L3.43803056,4.06451613 C3.78183362,4.06451613 4.01103565,4.29677419 4.01103565,4.64516129 L4.01103565,7.5483871 L4.01103565,7.5483871 Z" id="Shape"></path>
                        </g>
                        <polygon id="Shape" fill="#37474F" points="6.87606112 2.90322581 6.87606112 4.64516129 8.5950764 4.64516129 8.5950764 5.80645161 6.87606112 5.80645161 6.87606112 7.5483871 5.73005093 7.5483871 5.73005093 5.80645161 4.01103565 5.80645161 4.01103565 4.64516129 5.73005093 4.64516129 5.73005093 2.90322581"></polygon>
                        <g id="Group" transform="translate(4.011036, 9.290323)">
                            <g id="Shape">
                                <polyline fill="#FFAB00" points="0.573005093 0.580645161 18.336163 0.580645161 18.336163 2.32258065"></polyline>
                                <path d="M18.336163,2.90322581 C17.9923599,2.90322581 17.7631579,2.67096774 17.7631579,2.32258065 L17.7631579,1.16129032 L0.573005093,1.16129032 C0.229202037,1.16129032 0,0.929032258 0,0.580645161 C0,0.232258065 0.229202037,0 0.573005093,0 L18.336163,0 C18.679966,0 18.9091681,0.232258065 18.9091681,0.580645161 L18.9091681,2.32258065 C18.9091681,2.67096774 18.679966,2.90322581 18.336163,2.90322581 L18.336163,2.90322581 Z" fill="#37474F"></path>
                            </g>
                            <g transform="translate(0.000000, 3.483871)" id="Shape">
                                <polyline fill="#FFAB00" points="0.573005093 0.580645161 18.336163 0.580645161 18.336163 2.32258065"></polyline>
                                <path d="M18.336163,2.90322581 C17.9923599,2.90322581 17.7631579,2.67096774 17.7631579,2.32258065 L17.7631579,1.16129032 L0.573005093,1.16129032 C0.229202037,1.16129032 0,0.929032258 0,0.580645161 C0,0.232258065 0.229202037,0 0.573005093,0 L18.336163,0 C18.679966,0 18.9091681,0.232258065 18.9091681,0.580645161 L18.9091681,2.32258065 C18.9091681,2.67096774 18.679966,2.90322581 18.336163,2.90322581 L18.336163,2.90322581 Z" fill="#37474F"></path>
                            </g>
                            <g transform="translate(0.000000, 6.967742)" id="Shape">
                                <polyline fill="#FFAB00" points="0.573005093 0.580645161 18.336163 0.580645161 18.336163 2.32258065"></polyline>
                                <path d="M18.336163,2.90322581 C17.9923599,2.90322581 17.7631579,2.67096774 17.7631579,2.32258065 L17.7631579,1.16129032 L0.573005093,1.16129032 C0.229202037,1.16129032 0,0.929032258 0,0.580645161 C0,0.232258065 0.229202037,0 0.573005093,0 L18.336163,0 C18.679966,0 18.9091681,0.232258065 18.9091681,0.580645161 L18.9091681,2.32258065 C18.9091681,2.67096774 18.679966,2.90322581 18.336163,2.90322581 L18.336163,2.90322581 Z" fill="#37474F"></path>
                            </g>
                            <g transform="translate(0.000000, 10.451613)" id="Shape">
                                <polyline fill="#FFAB00" points="0.573005093 0.580645161 18.336163 0.580645161 18.336163 2.32258065"></polyline>
                                <path d="M18.336163,2.90322581 C17.9923599,2.90322581 17.7631579,2.67096774 17.7631579,2.32258065 L17.7631579,1.16129032 L0.573005093,1.16129032 C0.229202037,1.16129032 0,0.929032258 0,0.580645161 C0,0.232258065 0.229202037,0 0.573005093,0 L18.336163,0 C18.679966,0 18.9091681,0.232258065 18.9091681,0.580645161 L18.9091681,2.32258065 C18.9091681,2.67096774 18.679966,2.90322581 18.336163,2.90322581 L18.336163,2.90322581 Z" fill="#37474F"></path>
                            </g>
                        </g>
                        <g id="Group" transform="translate(13.752122, 4.645161)" fill="#37474F">
                            <g id="Shape">
                                <path d="M1.31791171,1.04516129 C1.31791171,1.33548387 1.08870968,1.56774194 0.802207131,1.56774194 C0.515704584,1.56774194 0.286502547,1.33548387 0.286502547,1.04516129 C0.286502547,0.75483871 0.515704584,0.522580645 0.802207131,0.522580645 C1.08870968,0.522580645 1.31791171,0.75483871 1.31791171,1.04516129 L1.31791171,1.04516129 Z"></path>
                                <path d="M0.85950764,1.85806452 C0.401103565,1.85806452 0.0573005093,1.50967742 0.0573005093,1.04516129 C0.0573005093,0.580645161 0.401103565,0.232258065 0.85950764,0.232258065 C1.31791171,0.232258065 1.66171477,0.580645161 1.66171477,1.04516129 C1.60441426,1.50967742 1.26061121,1.85806452 0.85950764,1.85806452 L0.85950764,1.85806452 Z M0.85950764,0.812903226 C0.744906621,0.812903226 0.630305603,0.929032258 0.630305603,1.04516129 C0.630305603,1.16129032 0.744906621,1.27741935 0.85950764,1.27741935 C0.974108659,1.27741935 1.08870968,1.16129032 1.08870968,1.04516129 C1.03140917,0.929032258 0.974108659,0.812903226 0.85950764,0.812903226 L0.85950764,0.812903226 Z"></path>
                            </g>
                            <g transform="translate(3.438031, 0.000000)" id="Shape">
                                <path d="M1.48981324,1.04516129 C1.48981324,1.33548387 1.26061121,1.56774194 0.974108659,1.56774194 C0.687606112,1.56774194 0.458404075,1.33548387 0.458404075,1.04516129 C0.458404075,0.75483871 0.687606112,0.522580645 0.974108659,0.522580645 C1.26061121,0.522580645 1.48981324,0.75483871 1.48981324,1.04516129 L1.48981324,1.04516129 Z"></path>
                                <path d="M0.974108659,1.85806452 C0.515704584,1.85806452 0.171901528,1.50967742 0.171901528,1.04516129 C0.171901528,0.580645161 0.515704584,0.232258065 0.974108659,0.232258065 C1.43251273,0.232258065 1.77631579,0.580645161 1.77631579,1.04516129 C1.77631579,1.50967742 1.37521222,1.85806452 0.974108659,1.85806452 L0.974108659,1.85806452 Z M0.974108659,0.812903226 C0.85950764,0.812903226 0.744906621,0.929032258 0.744906621,1.04516129 C0.744906621,1.16129032 0.85950764,1.27741935 0.974108659,1.27741935 C1.08870968,1.27741935 1.2033107,1.16129032 1.2033107,1.04516129 C1.2033107,0.929032258 1.08870968,0.812903226 0.974108659,0.812903226 L0.974108659,0.812903226 Z"></path>
                            </g>
                            <g transform="translate(6.738540, 0.000000)" id="Shape">
                                <path d="M1.74193548,1.04516129 C1.74193548,1.33548387 1.51273345,1.56774194 1.2262309,1.56774194 C0.939728353,1.56774194 0.710526316,1.33548387 0.710526316,1.04516129 C0.710526316,0.75483871 0.939728353,0.522580645 1.2262309,0.522580645 C1.51273345,0.522580645 1.74193548,0.75483871 1.74193548,1.04516129 L1.74193548,1.04516129 Z"></path>
                                <path d="M1.2262309,1.85806452 C0.767826825,1.85806452 0.424023769,1.50967742 0.424023769,1.04516129 C0.424023769,0.580645161 0.767826825,0.232258065 1.2262309,0.232258065 C1.62733447,0.232258065 2.02843803,0.580645161 2.02843803,1.04516129 C2.02843803,1.50967742 1.62733447,1.85806452 1.2262309,1.85806452 L1.2262309,1.85806452 Z M1.2262309,0.812903226 C1.11162988,0.812903226 0.997028862,0.929032258 0.997028862,1.04516129 C0.997028862,1.16129032 1.11162988,1.27741935 1.2262309,1.27741935 C1.34083192,1.27741935 1.45543294,1.16129032 1.45543294,1.04516129 C1.45543294,0.929032258 1.34083192,0.812903226 1.2262309,0.812903226 L1.2262309,0.812903226 Z"></path>
                            </g>
                        </g>
                        <g id="Group" transform="translate(4.011036, 24.828387)">
                            <polyline id="Shape" fill="#FFAB00" points="0.802207131 3.85548387 3.43803056 1.24258065 3.43803056 5.42322581 5.73005093 3.21677419 5.73005093 4.37806452 7.16256367 2.8683871"></polyline>
                            <path d="M3.43803056,6.00387097 C3.38073005,6.00387097 3.26612903,6.00387097 3.20882852,5.94580645 C2.97962649,5.82967742 2.86502547,5.65548387 2.86502547,5.42322581 L2.86502547,2.57806452 L1.2033107,4.20387097 C0.974108659,4.43612903 0.630305603,4.43612903 0.401103565,4.20387097 C0.171901528,3.9716129 0.171901528,3.62322581 0.401103565,3.39096774 L3.03692699,0.778064516 C3.20882852,0.603870968 3.43803056,0.545806452 3.6672326,0.661935484 C3.89643463,0.778064516 4.01103565,0.952258065 4.01103565,1.18451613 L4.01103565,4.02967742 L5.32894737,2.75225806 C5.5008489,2.57806452 5.73005093,2.52 5.95925297,2.63612903 C6.07385399,2.69419355 6.18845501,2.81032258 6.24575552,2.92645161 L6.7614601,2.40387097 C6.99066214,2.1716129 7.3344652,2.1716129 7.56366723,2.40387097 C7.79286927,2.63612903 7.79286927,2.98451613 7.56366723,3.21677419 L6.1311545,4.72645161 C5.95925297,4.90064516 5.73005093,4.95870968 5.5008489,4.84258065 C5.32894737,4.78451613 5.21434635,4.61032258 5.15704584,4.49419355 L3.83913413,5.82967742 C3.72453311,5.94580645 3.60993209,6.00387097 3.43803056,6.00387097 L3.43803056,6.00387097 Z" id="Shape" fill="#37474F"></path>
                        </g>
                    </g>
                </g>
            </g>
        </g>
    </g>
</svg>