<?xml version="1.0" encoding="UTF-8" standalone="no"?>
<svg width="32px" height="32px" viewBox="0 0 32 32" version="1.1" xmlns="http://www.w3.org/2000/svg" xmlns:xlink="http://www.w3.org/1999/xlink">
    <!-- Generator: Sketch 3.7.1 (28215) - http://www.bohemiancoding.com/sketch -->
    <title>open-menu</title>
    <desc>Created with Sketch.</desc>
    <defs></defs>
    <g id="Page-1" stroke="none" stroke-width="1" fill="none" fill-rule="evenodd">
        <g id="open-menu" transform="translate(1.000000, 1.000000)" stroke="#003DA1">
            <g id="Welcome">
                <g id="StudentResource-Header">
                    <g id="Nav-Flyout-Copy">
                        <path d="M8.56575,9.1763437 L21.433875,9.1763437 C21.771375,9.1763437 22.045125,8.9025937 22.045125,8.5660312 C22.045125,8.2285312 21.771375,7.9557187 21.433875,7.9557187 L8.56575,7.9557187 C8.22825,7.9557187 7.9554375,8.2285312 7.9554375,8.5660312 C7.9554375,8.9025937 8.22825,9.1763437 8.56575,9.1763437" id="Fill-4" stroke-width="0.2" fill="#003DA1"></path>
                        <path d="M8.56575,15.6105 L21.433875,15.6105 C21.771375,15.6105 22.045125,15.33675 22.045125,15.0001875 C22.045125,14.6626875 21.771375,14.389875 21.433875,14.389875 L8.56575,14.389875 C8.22825,14.389875 7.9554375,14.6626875 7.9554375,15.0001875 C7.9554375,15.33675 8.22825,15.6105 8.56575,15.6105" id="Fill-6" stroke-width="0.2" fill="#003DA1"></path>
                        <path d="M22.04475,21.4343437 C22.04475,21.0968437 21.771,20.8240312 21.4344375,20.8240312 L8.565375,20.8240312 C8.2288125,20.8240312 7.9550625,21.0968437 7.9550625,21.4343437 C7.9550625,21.7718437 8.2288125,22.0446562 8.565375,22.0446562 L21.4344375,22.0446562 C21.771,22.0446562 22.04475,21.7718437 22.04475,21.4343437" id="Fill-8" stroke-width="0.2" fill="#003DA1"></path>
                        <circle id="Oval-1" cx="15" cy="15" r="15"></circle>
                    </g>
                </g>
            </g>
        </g>
    </g>
</svg>