<?xml version="1.0" encoding="UTF-8" standalone="no"?>
<svg width="80px" height="80px" viewBox="0 0 80 80" version="1.1" xmlns="http://www.w3.org/2000/svg" xmlns:xlink="http://www.w3.org/1999/xlink">
    <!-- Generator: sketchtool 3.6 (26304) - http://www.bohemiancoding.com/sketch -->
    <title>Check Mark</title>
    <desc>Created with sketchtool.</desc>
    <defs></defs>
    <g id="Mobile-Login" stroke="none" stroke-width="1" fill="none" fill-rule="evenodd">
        <g id="Confirmation-Screen" transform="translate(-120.000000, -160.000000)">
            <g id="BG-&amp;-Title" fill="#FFFFFF">
                <rect id="BG" x="0" y="0" width="320" height="568"></rect>
            </g>
            <g id="Check-Mark" transform="translate(120.000000, 160.000000)" fill="#3DA547">
                <path d="M55.681439,27.4643818 L31.5011044,50.0324284 L24.0359723,42.5672963 C23.5166934,42.0480174 22.6760194,42.0480174 22.1580686,42.5672963 C21.6387897,43.0865752 21.6387897,43.9272492 22.1580686,44.4452 L30.5302787,52.8187382 C30.7892541,53.0777136 31.1292423,53.2078653 31.4692305,53.2078653 C31.7946099,53.2078653 32.1199893,53.0883382 32.3749804,52.850612 L57.4929387,29.4073614 C58.0294826,28.9066756 58.0587004,28.0660016 57.5580146,27.5294577 C57.0586569,26.9942418 56.2166548,26.9663522 55.681439,27.4643818" id="Fill-576"></path>
                <path d="M39.8423703,77.343842 C19.3368304,77.343842 2.65615802,60.6618415 2.65615802,40.1576297 C2.65615802,19.6534179 19.3368304,2.97141747 39.8423703,2.97141747 C60.3479102,2.97141747 77.0285825,19.6534179 77.0285825,40.1576297 C77.0285825,60.6618415 60.3479102,77.343842 39.8423703,77.343842 M39.8423703,0.315259456 C17.8732873,0.315259456 0,18.1885468 0,40.1576297 C0,62.1267127 17.8732873,80 39.8423703,80 C61.8114532,80 79.6847405,62.1267127 79.6847405,40.1576297 C79.6847405,18.1885468 61.8114532,0.315259456 39.8423703,0.315259456" id="Fill-577"></path>
            </g>
        </g>
    </g>
</svg>