<?xml version="1.0" encoding="UTF-8" standalone="no"?>
<svg width="20px" height="20px" viewBox="0 0 20 20" version="1.1" xmlns="http://www.w3.org/2000/svg" xmlns:xlink="http://www.w3.org/1999/xlink">
    <!-- Generator: sketchtool 3.6 (26304) - http://www.bohemiancoding.com/sketch -->
    <title>Fill 586</title>
    <desc>Created with sketchtool.</desc>
    <defs></defs>
    <g id="Mobile-Login" stroke="none" stroke-width="1" fill="none" fill-rule="evenodd">
        <g id="Student-Login" transform="translate(-280.000000, -20.000000)">
            <g id="BG-&amp;-Title" transform="translate(0.000000, 1.000000)" fill="#FFFFFF">
                <rect id="BG" x="0" y="0" width="320" height="568"></rect>
            </g>
            <g id="Close" transform="translate(280.000000, 20.000000)" fill="#003DA1">
                <path d="M10.4713667,10 L19.9023667,0.569 C20.0327,0.438666667 20.0327,0.228 19.9023667,0.0976666667 C19.7720333,-0.0326666667 19.5613667,-0.0326666667 19.4310333,0.0976666667 L10.0000333,9.52866667 L0.569033333,0.0976666667 C0.4387,-0.0326666667 0.228033333,-0.0326666667 0.0977,0.0976666667 C-0.0326333333,0.228 -0.0326333333,0.438666667 0.0977,0.569 L9.5287,10 L0.0977,19.431 C-0.0326333333,19.5613333 -0.0326333333,19.772 0.0977,19.9023333 C0.1627,19.9673333 0.248033333,20 0.333366667,20 C0.4187,20 0.504033333,19.9673333 0.569033333,19.9023333 L10.0000333,10.4713333 L19.4310333,19.9023333 C19.4960333,19.9673333 19.5813667,20 19.6667,20 C19.7520333,20 19.8373667,19.9673333 19.9023667,19.9023333 C20.0327,19.772 20.0327,19.5613333 19.9023667,19.431 L10.4713667,10 Z" id="Fill-586"></path>
            </g>
        </g>
    </g>
</svg>