<?xml version="1.0" encoding="UTF-8" standalone="no"?>
<svg width="42px" height="42px" viewBox="0 0 42 42" version="1.1" xmlns="http://www.w3.org/2000/svg" xmlns:xlink="http://www.w3.org/1999/xlink">
    <!-- Generator: sketchtool 3.7.2 (28276) - http://www.bohemiancoding.com/sketch -->
    <title>624E98AE-A416-46AE-829C-9726EE4F9128</title>
    <desc>Created with sketchtool.</desc>
    <defs></defs>
    <g id="Welcome" stroke="none" stroke-width="1" fill="none" fill-rule="evenodd">
        <g id="Updated-Header" transform="translate(-948.000000, -26.000000)">
            <g id="Alt-Header">
                <g id="Upper-Nav-Inverted" transform="translate(946.000000, 23.000000)">
                    <g id="Nav-Flyout" transform="translate(3.000000, 4.000000)">
                        <path d="M11.421,15.1790536 L28.5785,15.1790536 C29.0285,15.1790536 29.3935,14.6664356 29.3935,14.0361964 C29.3935,13.4042017 29.0285,12.8933393 28.5785,12.8933393 L11.421,12.8933393 C10.971,12.8933393 10.60725,13.4042017 10.60725,14.0361964 C10.60725,14.6664356 10.971,15.1790536 11.421,15.1790536" id="Fill-4" fill="#003DA1"></path>
                        <path d="M11.421,21.4722143 L28.5785,21.4722143 C29.0285,21.4722143 29.3935,20.9595963 29.3935,20.3293571 C29.3935,19.6973624 29.0285,19.1865 28.5785,19.1865 L11.421,19.1865 C10.971,19.1865 10.60725,19.6973624 10.60725,20.3293571 C10.60725,20.9595963 10.971,21.4722143 11.421,21.4722143" id="Fill-6" fill="#003DA1"></path>
                        <path d="M29.393,26.6225179 C29.393,25.9905231 29.028,25.4796607 28.57925,25.4796607 L11.4205,25.4796607 C10.97175,25.4796607 10.60675,25.9905231 10.60675,26.6225179 C10.60675,27.2545126 10.97175,27.765375 11.4205,27.765375 L28.57925,27.765375 C29.028,27.765375 29.393,27.2545126 29.393,26.6225179" id="Fill-8" fill="#003DA1"></path>
                        <circle id="Oval-1" stroke="#003DA1" stroke-width="2" cx="20" cy="20" r="20"></circle>
                    </g>
                </g>
            </g>
        </g>
    </g>
</svg>