<?xml version="1.0" encoding="UTF-8" standalone="no"?>
<svg width="37px" height="37px" viewBox="0 0 37 37" version="1.1" xmlns="http://www.w3.org/2000/svg" xmlns:xlink="http://www.w3.org/1999/xlink">
    <!-- Generator: Sketch 3.8.2 (29753) - http://www.bohemiancoding.com/sketch -->
    <title>Health Insurance 101</title>
    <desc>Created with Sketch.</desc>
    <defs></defs>
    <g id="Welcome" stroke="none" stroke-width="1" fill="none" fill-rule="evenodd">
        <g id="Landing-Desktop" transform="translate(-629.000000, -686.000000)">
            <g id="Icons" transform="translate(0.000000, 658.000000)">
                <g id="Health-Insurance-101" transform="translate(613.000000, 22.000000)">
                    <g id="Group-9" transform="translate(16.000000, 6.000000)">
                        <g id="Group" transform="translate(14.970433, 0.000000)">
                            <rect id="Rectangle-path" fill="#B0BEC5" x="0.57578587" y="0.57997558" width="20.1525054" height="35.3785104"></rect>
                            <path d="M20.7282913,36.5384615 L0.57578587,36.5384615 C0.230314348,36.5384615 0,36.3064713 0,35.958486 L0,0.57997558 C0,0.231990232 0.230314348,0 0.57578587,0 L20.7282913,0 C21.0737628,0 21.3040772,0.231990232 21.3040772,0.57997558 L21.3040772,35.958486 C21.3040772,36.3064713 21.0737628,36.5384615 20.7282913,36.5384615 L20.7282913,36.5384615 Z M1.15157174,35.3785104 L20.1525054,35.3785104 L20.1525054,1.15995116 L1.15157174,1.15995116 L1.15157174,35.3785104 L1.15157174,35.3785104 Z" id="Shape" fill="#37474F"></path>
                        </g>
                        <g id="Group" transform="translate(14.970433, 0.000000)" fill="#37474F">
                            <polygon id="Shape" points="6.33364457 0.57997558 6.33364457 4.63980464 10.3641457 4.63980464 10.3641457 6.37973138 6.33364457 6.37973138 6.33364457 11.019536 4.60628696 11.019536 4.60628696 6.37973138 0.57578587 6.37973138 0.57578587 4.63980464 4.60628696 4.63980464 4.60628696 0.57997558"></polygon>
                            <path d="M6.33364457,11.5995116 L4.60628696,11.5995116 C4.26081544,11.5995116 4.03050109,11.3675214 4.03050109,11.019536 L4.03050109,6.95970696 L0.57578587,6.95970696 C0.230314348,6.95970696 0,6.72771673 0,6.37973138 L0,4.63980464 C0,4.29181929 0.230314348,4.05982906 0.57578587,4.05982906 L4.03050109,4.05982906 L4.03050109,0.57997558 C4.03050109,0.231990232 4.26081544,0 4.60628696,0 L6.33364457,0 C6.67911609,0 6.90943044,0.231990232 6.90943044,0.57997558 L6.90943044,4.05982906 L10.3641457,4.05982906 C10.7096172,4.05982906 10.9399315,4.29181929 10.9399315,4.63980464 L10.9399315,6.37973138 C10.9399315,6.72771673 10.7096172,6.95970696 10.3641457,6.95970696 L6.90943044,6.95970696 L6.90943044,11.019536 C6.90943044,11.3675214 6.67911609,11.5995116 6.33364457,11.5995116 L6.33364457,11.5995116 Z M5.18207283,10.4395604 L5.7578587,10.4395604 L5.7578587,6.37973138 C5.7578587,6.03174603 5.98817305,5.7997558 6.33364457,5.7997558 L9.78835979,5.7997558 L9.78835979,5.21978022 L6.33364457,5.21978022 C5.98817305,5.21978022 5.7578587,4.98778999 5.7578587,4.63980464 L5.7578587,1.15995116 L5.18207283,1.15995116 L5.18207283,4.63980464 C5.18207283,4.98778999 4.95175848,5.21978022 4.60628696,5.21978022 L1.15157174,5.21978022 L1.15157174,5.7997558 L4.60628696,5.7997558 C4.95175848,5.7997558 5.18207283,6.03174603 5.18207283,6.37973138 L5.18207283,10.4395604 L5.18207283,10.4395604 Z" id="Shape"></path>
                        </g>
                        <g id="Group" transform="translate(16.548086, 8.119658)">
                            <g transform="translate(12.816993, 0.000000)" id="Shape">
                                <g>
                                    <g>
                                        <polyline fill="#FFAB00" points="0.806100218 0.695970696 1.49704326 0.695970696 1.49704326 1.68192918"></polyline>
                                        <path d="M1.49704326,2.26190476 C1.15157174,2.26190476 0.921257392,2.02991453 0.921257392,1.68192918 L0.921257392,1.27594628 L0.806100218,1.27594628 C0.460628696,1.27594628 0.230314348,1.04395604 0.230314348,0.695970696 C0.230314348,0.347985348 0.460628696,0.115995116 0.806100218,0.115995116 L1.49704326,0.115995116 C1.84251478,0.115995116 2.07282913,0.347985348 2.07282913,0.695970696 L2.07282913,1.68192918 C2.07282913,2.02991453 1.84251478,2.26190476 1.49704326,2.26190476 L1.49704326,2.26190476 Z" fill="#37474F"></path>
                                    </g>
                                    <g transform="translate(2.303143, 0.000000)">
                                        <polyline fill="#FFAB00" points="0.690943044 0.695970696 1.43946467 0.695970696 1.43946467 1.68192918"></polyline>
                                        <path d="M1.43946467,2.26190476 C1.09399315,2.26190476 0.863678805,2.02991453 0.863678805,1.68192918 L0.863678805,1.27594628 L0.748521631,1.27594628 C0.403050109,1.27594628 0.172735761,1.04395604 0.172735761,0.695970696 C0.172735761,0.347985348 0.403050109,0.115995116 0.748521631,0.115995116 L1.43946467,0.115995116 C1.7849362,0.115995116 2.01525054,0.347985348 2.01525054,0.695970696 L2.01525054,1.68192918 C2.01525054,2.02991453 1.72735761,2.26190476 1.43946467,2.26190476 L1.43946467,2.26190476 Z" fill="#37474F"></path>
                                    </g>
                                </g>
                                <g transform="translate(0.000000, 2.899878)">
                                    <g>
                                        <polyline fill="#FFAB00" points="0.806100218 0.811965812 1.49704326 0.811965812 1.49704326 1.7979243"></polyline>
                                        <path d="M1.49704326,2.37789988 C1.15157174,2.37789988 0.921257392,2.14590965 0.921257392,1.7979243 L0.921257392,1.39194139 L0.806100218,1.39194139 C0.460628696,1.39194139 0.230314348,1.15995116 0.230314348,0.811965812 C0.230314348,0.463980464 0.460628696,0.231990232 0.806100218,0.231990232 L1.49704326,0.231990232 C1.84251478,0.231990232 2.07282913,0.463980464 2.07282913,0.811965812 L2.07282913,1.7979243 C2.07282913,2.08791209 1.84251478,2.37789988 1.49704326,2.37789988 L1.49704326,2.37789988 Z" fill="#37474F"></path>
                                    </g>
                                    <g transform="translate(2.303143, 0.000000)">
                                        <polyline fill="#FFAB00" points="0.690943044 0.811965812 1.43946467 0.811965812 1.43946467 1.7979243"></polyline>
                                        <path d="M1.43946467,2.37789988 C1.09399315,2.37789988 0.863678805,2.14590965 0.863678805,1.7979243 L0.863678805,1.39194139 L0.748521631,1.39194139 C0.403050109,1.39194139 0.172735761,1.15995116 0.172735761,0.811965812 C0.172735761,0.463980464 0.403050109,0.231990232 0.748521631,0.231990232 L1.43946467,0.231990232 C1.7849362,0.231990232 2.01525054,0.463980464 2.01525054,0.811965812 L2.01525054,1.7979243 C2.01525054,2.08791209 1.72735761,2.37789988 1.43946467,2.37789988 L1.43946467,2.37789988 Z" fill="#37474F"></path>
                                    </g>
                                </g>
                                <g transform="translate(0.000000, 5.648962)">
                                    <g>
                                        <polyline fill="#FFAB00" points="0.806100218 1.02075702 1.49704326 1.02075702 1.49704326 2.00671551"></polyline>
                                        <path d="M1.49704326,2.58669109 C1.15157174,2.58669109 0.921257392,2.35470085 0.921257392,2.00671551 L0.921257392,1.6007326 L0.806100218,1.6007326 C0.460628696,1.6007326 0.230314348,1.36874237 0.230314348,1.02075702 C0.230314348,0.672771673 0.460628696,0.440781441 0.806100218,0.440781441 L1.49704326,0.440781441 C1.84251478,0.440781441 2.07282913,0.672771673 2.07282913,1.02075702 L2.07282913,2.00671551 C2.07282913,2.35470085 1.84251478,2.58669109 1.49704326,2.58669109 L1.49704326,2.58669109 Z" fill="#37474F"></path>
                                    </g>
                                    <g transform="translate(2.303143, 0.000000)">
                                        <polyline fill="#FFAB00" points="0.690943044 1.02075702 1.43946467 1.02075702 1.43946467 2.00671551"></polyline>
                                        <path d="M1.43946467,2.58669109 C1.09399315,2.58669109 0.863678805,2.35470085 0.863678805,2.00671551 L0.863678805,1.6007326 L0.748521631,1.6007326 C0.403050109,1.6007326 0.172735761,1.36874237 0.172735761,1.02075702 C0.172735761,0.672771673 0.403050109,0.440781441 0.748521631,0.440781441 L1.43946467,0.440781441 C1.7849362,0.440781441 2.01525054,0.672771673 2.01525054,1.02075702 L2.01525054,2.00671551 C2.01525054,2.35470085 1.72735761,2.58669109 1.43946467,2.58669109 L1.43946467,2.58669109 Z" fill="#37474F"></path>
                                    </g>
                                </g>
                            </g>
                            <g transform="translate(7.485216, 0.000000)" id="Shape">
                                <g>
                                    <g>
                                        <polyline fill="#FFAB00" points="1.24369748 0.695970696 1.93464052 0.695970696 1.93464052 1.68192918"></polyline>
                                        <path d="M1.93464052,2.26190476 C1.589169,2.26190476 1.35885465,2.02991453 1.35885465,1.68192918 L1.35885465,1.27594628 L1.24369748,1.27594628 C0.898225957,1.27594628 0.667911609,1.04395604 0.667911609,0.695970696 C0.667911609,0.347985348 0.898225957,0.115995116 1.24369748,0.115995116 L1.93464052,0.115995116 C2.28011204,0.115995116 2.51042639,0.347985348 2.51042639,0.695970696 L2.51042639,1.68192918 C2.51042639,2.02991453 2.28011204,2.26190476 1.93464052,2.26190476 L1.93464052,2.26190476 Z" fill="#37474F"></path>
                                    </g>
                                    <g transform="translate(2.303143, 0.000000)">
                                        <polyline fill="#FFAB00" points="1.18611889 0.695970696 1.87706194 0.695970696 1.87706194 1.68192918"></polyline>
                                        <path d="M1.87706194,2.26190476 C1.53159041,2.26190476 1.30127607,2.02991453 1.30127607,1.68192918 L1.30127607,1.27594628 L1.18611889,1.27594628 C0.84064737,1.27594628 0.610333022,1.04395604 0.610333022,0.695970696 C0.610333022,0.347985348 0.84064737,0.115995116 1.18611889,0.115995116 L1.87706194,0.115995116 C2.22253346,0.115995116 2.45284781,0.347985348 2.45284781,0.695970696 L2.45284781,1.68192918 C2.45284781,2.02991453 2.22253346,2.26190476 1.87706194,2.26190476 L1.87706194,2.26190476 Z" fill="#37474F"></path>
                                    </g>
                                </g>
                                <g transform="translate(0.000000, 2.899878)">
                                    <g>
                                        <polyline fill="#FFAB00" points="1.24369748 0.811965812 1.93464052 0.811965812 1.93464052 1.7979243"></polyline>
                                        <path d="M1.93464052,2.37789988 C1.589169,2.37789988 1.35885465,2.14590965 1.35885465,1.7979243 L1.35885465,1.39194139 L1.24369748,1.39194139 C0.898225957,1.39194139 0.667911609,1.15995116 0.667911609,0.811965812 C0.667911609,0.463980464 0.898225957,0.231990232 1.24369748,0.231990232 L1.93464052,0.231990232 C2.28011204,0.231990232 2.51042639,0.463980464 2.51042639,0.811965812 L2.51042639,1.7979243 C2.51042639,2.08791209 2.28011204,2.37789988 1.93464052,2.37789988 L1.93464052,2.37789988 Z" fill="#37474F"></path>
                                    </g>
                                    <g transform="translate(2.303143, 0.000000)">
                                        <polyline fill="#FFAB00" points="1.18611889 0.811965812 1.87706194 0.811965812 1.87706194 1.7979243"></polyline>
                                        <path d="M1.87706194,2.37789988 C1.53159041,2.37789988 1.30127607,2.14590965 1.30127607,1.7979243 L1.30127607,1.39194139 L1.18611889,1.39194139 C0.84064737,1.39194139 0.610333022,1.15995116 0.610333022,0.811965812 C0.610333022,0.463980464 0.84064737,0.231990232 1.18611889,0.231990232 L1.87706194,0.231990232 C2.22253346,0.231990232 2.45284781,0.463980464 2.45284781,0.811965812 L2.45284781,1.7979243 C2.45284781,2.08791209 2.22253346,2.37789988 1.87706194,2.37789988 L1.87706194,2.37789988 Z" fill="#37474F"></path>
                                    </g>
                                </g>
                                <g transform="translate(0.000000, 5.648962)">
                                    <g>
                                        <polyline fill="#FFAB00" points="1.24369748 1.02075702 1.93464052 1.02075702 1.93464052 2.00671551"></polyline>
                                        <path d="M1.93464052,2.58669109 C1.589169,2.58669109 1.35885465,2.35470085 1.35885465,2.00671551 L1.35885465,1.6007326 L1.24369748,1.6007326 C0.898225957,1.6007326 0.667911609,1.36874237 0.667911609,1.02075702 C0.667911609,0.672771673 0.898225957,0.440781441 1.24369748,0.440781441 L1.93464052,0.440781441 C2.28011204,0.440781441 2.51042639,0.672771673 2.51042639,1.02075702 L2.51042639,2.00671551 C2.51042639,2.35470085 2.28011204,2.58669109 1.93464052,2.58669109 L1.93464052,2.58669109 Z" fill="#37474F"></path>
                                    </g>
                                    <g transform="translate(2.303143, 0.000000)">
                                        <polyline fill="#FFAB00" points="1.18611889 1.02075702 1.87706194 1.02075702 1.87706194 2.00671551"></polyline>
                                        <path d="M1.87706194,2.58669109 C1.53159041,2.58669109 1.30127607,2.35470085 1.30127607,2.00671551 L1.30127607,1.6007326 L1.18611889,1.6007326 C0.84064737,1.6007326 0.610333022,1.36874237 0.610333022,1.02075702 C0.610333022,0.672771673 0.84064737,0.440781441 1.18611889,0.440781441 L1.87706194,0.440781441 C2.22253346,0.440781441 2.45284781,0.672771673 2.45284781,1.02075702 L2.45284781,2.00671551 C2.45284781,2.35470085 2.22253346,2.58669109 1.87706194,2.58669109 L1.87706194,2.58669109 Z" fill="#37474F"></path>
                                    </g>
                                </g>
                            </g>
                            <g transform="translate(3.028634, 5.648962)" id="Shape">
                                <g>
                                    <polyline fill="#FFAB00" points="0.806100218 1.02075702 1.49704326 1.02075702 1.49704326 2.00671551"></polyline>
                                    <path d="M1.49704326,2.58669109 C1.15157174,2.58669109 0.921257392,2.35470085 0.921257392,2.00671551 L0.921257392,1.6007326 L0.806100218,1.6007326 C0.460628696,1.6007326 0.230314348,1.36874237 0.230314348,1.02075702 C0.230314348,0.672771673 0.460628696,0.440781441 0.806100218,0.440781441 L1.49704326,0.440781441 C1.84251478,0.440781441 2.07282913,0.672771673 2.07282913,1.02075702 L2.07282913,2.00671551 C2.07282913,2.35470085 1.84251478,2.58669109 1.49704326,2.58669109 L1.49704326,2.58669109 Z" fill="#37474F"></path>
                                </g>
                                <g transform="translate(2.303143, 0.000000)">
                                    <polyline fill="#FFAB00" points="0.748521631 1.02075702 1.43946467 1.02075702 1.43946467 2.00671551"></polyline>
                                    <path d="M1.43946467,2.58669109 C1.09399315,2.58669109 0.863678805,2.35470085 0.863678805,2.00671551 L0.863678805,1.6007326 L0.748521631,1.6007326 C0.403050109,1.6007326 0.172735761,1.36874237 0.172735761,1.02075702 C0.172735761,0.672771673 0.403050109,0.440781441 0.748521631,0.440781441 L1.43946467,0.440781441 C1.7849362,0.440781441 2.01525054,0.672771673 2.01525054,1.02075702 L2.01525054,2.00671551 C2.01525054,2.35470085 1.7849362,2.58669109 1.43946467,2.58669109 L1.43946467,2.58669109 Z" fill="#37474F"></path>
                                </g>
                            </g>
                            <g transform="translate(0.000000, 5.648962)" id="Shape">
                                <polyline fill="#FFAB00" points="1.18611889 1.02075702 1.87706194 1.02075702 1.87706194 2.00671551"></polyline>
                                <path d="M1.87706194,2.58669109 C1.53159041,2.58669109 1.30127607,2.35470085 1.30127607,2.00671551 L1.30127607,1.6007326 L1.18611889,1.6007326 C0.84064737,1.6007326 0.610333022,1.36874237 0.610333022,1.02075702 C0.610333022,0.672771673 0.84064737,0.440781441 1.18611889,0.440781441 L1.87706194,0.440781441 C2.22253346,0.440781441 2.45284781,0.672771673 2.45284781,1.02075702 L2.45284781,2.00671551 C2.45284781,2.35470085 2.22253346,2.58669109 1.87706194,2.58669109 L1.87706194,2.58669109 Z" fill="#37474F"></path>
                            </g>
                        </g>
                        <g id="Group" transform="translate(16.548086, 16.668498)">
                            <g transform="translate(12.816993, 0.000000)" id="Shape">
                                <g>
                                    <g>
                                        <polyline fill="#FFAB00" points="0.806100218 1.25274725 1.49704326 1.25274725 1.49704326 2.23870574"></polyline>
                                        <path d="M1.49704326,2.81868132 C1.15157174,2.81868132 0.921257392,2.58669109 0.921257392,2.23870574 L0.921257392,1.83272283 L0.806100218,1.83272283 C0.460628696,1.83272283 0.230314348,1.6007326 0.230314348,1.25274725 C0.230314348,0.904761905 0.460628696,0.672771673 0.806100218,0.672771673 L1.49704326,0.672771673 C1.84251478,0.672771673 2.07282913,0.904761905 2.07282913,1.25274725 L2.07282913,2.23870574 C2.07282913,2.58669109 1.84251478,2.81868132 1.49704326,2.81868132 L1.49704326,2.81868132 Z" fill="#37474F"></path>
                                    </g>
                                    <g transform="translate(2.303143, 0.000000)">
                                        <polyline fill="#FFAB00" points="0.690943044 1.25274725 1.43946467 1.25274725 1.43946467 2.23870574"></polyline>
                                        <path d="M1.43946467,2.81868132 C1.09399315,2.81868132 0.863678805,2.58669109 0.863678805,2.23870574 L0.863678805,1.83272283 L0.748521631,1.83272283 C0.403050109,1.83272283 0.172735761,1.6007326 0.172735761,1.25274725 C0.172735761,0.904761905 0.403050109,0.672771673 0.748521631,0.672771673 L1.43946467,0.672771673 C1.7849362,0.672771673 2.01525054,0.904761905 2.01525054,1.25274725 L2.01525054,2.23870574 C2.01525054,2.58669109 1.72735761,2.81868132 1.43946467,2.81868132 L1.43946467,2.81868132 Z" fill="#37474F"></path>
                                    </g>
                                </g>
                                <g transform="translate(0.000000, 3.630647)">
                                    <g>
                                        <polyline fill="#FFAB00" points="0.806100218 0.637973138 1.49704326 0.637973138 1.49704326 1.62393162"></polyline>
                                        <path d="M1.49704326,2.2039072 C1.15157174,2.2039072 0.921257392,1.97191697 0.921257392,1.62393162 L0.921257392,1.21794872 L0.806100218,1.21794872 C0.460628696,1.21794872 0.230314348,0.985958486 0.230314348,0.637973138 C0.230314348,0.28998779 0.460628696,0.057997558 0.806100218,0.057997558 L1.49704326,0.057997558 C1.84251478,0.057997558 2.07282913,0.28998779 2.07282913,0.637973138 L2.07282913,1.62393162 C2.07282913,1.91391941 1.84251478,2.2039072 1.49704326,2.2039072 L1.49704326,2.2039072 Z" fill="#37474F"></path>
                                    </g>
                                    <g transform="translate(2.303143, 0.000000)">
                                        <polyline fill="#FFAB00" points="0.690943044 0.637973138 1.43946467 0.637973138 1.43946467 1.62393162"></polyline>
                                        <path d="M1.43946467,2.2039072 C1.09399315,2.2039072 0.863678805,1.97191697 0.863678805,1.62393162 L0.863678805,1.21794872 L0.748521631,1.21794872 C0.403050109,1.21794872 0.172735761,0.985958486 0.172735761,0.637973138 C0.172735761,0.28998779 0.403050109,0.057997558 0.748521631,0.057997558 L1.43946467,0.057997558 C1.7849362,0.057997558 2.01525054,0.28998779 2.01525054,0.637973138 L2.01525054,1.62393162 C2.01525054,1.91391941 1.72735761,2.2039072 1.43946467,2.2039072 L1.43946467,2.2039072 Z" fill="#37474F"></path>
                                    </g>
                                </g>
                                <g transform="translate(0.000000, 6.530525)">
                                    <g>
                                        <polyline fill="#FFAB00" points="0.806100218 0.695970696 1.49704326 0.695970696 1.49704326 1.68192918"></polyline>
                                        <path d="M1.49704326,2.26190476 C1.15157174,2.26190476 0.921257392,2.02991453 0.921257392,1.68192918 L0.921257392,1.27594628 L0.806100218,1.27594628 C0.460628696,1.27594628 0.230314348,1.04395604 0.230314348,0.695970696 C0.230314348,0.347985348 0.460628696,0.115995116 0.806100218,0.115995116 L1.49704326,0.115995116 C1.84251478,0.115995116 2.07282913,0.347985348 2.07282913,0.695970696 L2.07282913,1.68192918 C2.07282913,2.02991453 1.84251478,2.26190476 1.49704326,2.26190476 L1.49704326,2.26190476 Z" fill="#37474F"></path>
                                    </g>
                                    <g transform="translate(2.303143, 0.000000)">
                                        <polyline fill="#FFAB00" points="0.690943044 0.695970696 1.43946467 0.695970696 1.43946467 1.68192918"></polyline>
                                        <path d="M1.43946467,2.26190476 C1.09399315,2.26190476 0.863678805,2.02991453 0.863678805,1.68192918 L0.863678805,1.27594628 L0.748521631,1.27594628 C0.403050109,1.27594628 0.172735761,1.04395604 0.172735761,0.695970696 C0.172735761,0.347985348 0.403050109,0.115995116 0.748521631,0.115995116 L1.43946467,0.115995116 C1.7849362,0.115995116 2.01525054,0.347985348 2.01525054,0.695970696 L2.01525054,1.68192918 C2.01525054,2.02991453 1.72735761,2.26190476 1.43946467,2.26190476 L1.43946467,2.26190476 Z" fill="#37474F"></path>
                                    </g>
                                </g>
                            </g>
                            <g transform="translate(7.485216, 0.000000)" id="Shape">
                                <g>
                                    <g>
                                        <polyline fill="#FFAB00" points="1.24369748 1.25274725 1.93464052 1.25274725 1.93464052 2.23870574"></polyline>
                                        <path d="M1.93464052,2.81868132 C1.589169,2.81868132 1.35885465,2.58669109 1.35885465,2.23870574 L1.35885465,1.83272283 L1.24369748,1.83272283 C0.898225957,1.83272283 0.667911609,1.6007326 0.667911609,1.25274725 C0.667911609,0.904761905 0.898225957,0.672771673 1.24369748,0.672771673 L1.93464052,0.672771673 C2.28011204,0.672771673 2.51042639,0.904761905 2.51042639,1.25274725 L2.51042639,2.23870574 C2.51042639,2.58669109 2.28011204,2.81868132 1.93464052,2.81868132 L1.93464052,2.81868132 Z" fill="#37474F"></path>
                                    </g>
                                    <g transform="translate(2.303143, 0.000000)">
                                        <polyline fill="#FFAB00" points="1.18611889 1.25274725 1.87706194 1.25274725 1.87706194 2.23870574"></polyline>
                                        <path d="M1.87706194,2.81868132 C1.53159041,2.81868132 1.30127607,2.58669109 1.30127607,2.23870574 L1.30127607,1.83272283 L1.18611889,1.83272283 C0.84064737,1.83272283 0.610333022,1.6007326 0.610333022,1.25274725 C0.610333022,0.904761905 0.84064737,0.672771673 1.18611889,0.672771673 L1.87706194,0.672771673 C2.22253346,0.672771673 2.45284781,0.904761905 2.45284781,1.25274725 L2.45284781,2.23870574 C2.45284781,2.58669109 2.22253346,2.81868132 1.87706194,2.81868132 L1.87706194,2.81868132 Z" fill="#37474F"></path>
                                    </g>
                                </g>
                                <g transform="translate(0.000000, 3.630647)">
                                    <g>
                                        <polyline fill="#FFAB00" points="1.24369748 0.637973138 1.93464052 0.637973138 1.93464052 1.62393162"></polyline>
                                        <path d="M1.93464052,2.2039072 C1.589169,2.2039072 1.35885465,1.97191697 1.35885465,1.62393162 L1.35885465,1.21794872 L1.24369748,1.21794872 C0.898225957,1.21794872 0.667911609,0.985958486 0.667911609,0.637973138 C0.667911609,0.28998779 0.898225957,0.057997558 1.24369748,0.057997558 L1.93464052,0.057997558 C2.28011204,0.057997558 2.51042639,0.28998779 2.51042639,0.637973138 L2.51042639,1.62393162 C2.51042639,1.91391941 2.28011204,2.2039072 1.93464052,2.2039072 L1.93464052,2.2039072 Z" fill="#37474F"></path>
                                    </g>
                                    <g transform="translate(2.303143, 0.000000)">
                                        <polyline fill="#FFAB00" points="1.18611889 0.637973138 1.87706194 0.637973138 1.87706194 1.62393162"></polyline>
                                        <path d="M1.87706194,2.2039072 C1.53159041,2.2039072 1.30127607,1.97191697 1.30127607,1.62393162 L1.30127607,1.21794872 L1.18611889,1.21794872 C0.84064737,1.21794872 0.610333022,0.985958486 0.610333022,0.637973138 C0.610333022,0.28998779 0.84064737,0.057997558 1.18611889,0.057997558 L1.87706194,0.057997558 C2.22253346,0.057997558 2.45284781,0.28998779 2.45284781,0.637973138 L2.45284781,1.62393162 C2.45284781,1.91391941 2.22253346,2.2039072 1.87706194,2.2039072 L1.87706194,2.2039072 Z" fill="#37474F"></path>
                                    </g>
                                </g>
                                <g transform="translate(0.000000, 6.530525)">
                                    <g>
                                        <polyline fill="#FFAB00" points="1.24369748 0.695970696 1.93464052 0.695970696 1.93464052 1.68192918"></polyline>
                                        <path d="M1.93464052,2.26190476 C1.589169,2.26190476 1.35885465,2.02991453 1.35885465,1.68192918 L1.35885465,1.27594628 L1.24369748,1.27594628 C0.898225957,1.27594628 0.667911609,1.04395604 0.667911609,0.695970696 C0.667911609,0.347985348 0.898225957,0.115995116 1.24369748,0.115995116 L1.93464052,0.115995116 C2.28011204,0.115995116 2.51042639,0.347985348 2.51042639,0.695970696 L2.51042639,1.68192918 C2.51042639,2.02991453 2.28011204,2.26190476 1.93464052,2.26190476 L1.93464052,2.26190476 Z" fill="#37474F"></path>
                                    </g>
                                    <g transform="translate(2.303143, 0.000000)">
                                        <polyline fill="#FFAB00" points="1.18611889 0.695970696 1.87706194 0.695970696 1.87706194 1.68192918"></polyline>
                                        <path d="M1.87706194,2.26190476 C1.53159041,2.26190476 1.30127607,2.02991453 1.30127607,1.68192918 L1.30127607,1.27594628 L1.18611889,1.27594628 C0.84064737,1.27594628 0.610333022,1.04395604 0.610333022,0.695970696 C0.610333022,0.347985348 0.84064737,0.115995116 1.18611889,0.115995116 L1.87706194,0.115995116 C2.22253346,0.115995116 2.45284781,0.347985348 2.45284781,0.695970696 L2.45284781,1.68192918 C2.45284781,2.02991453 2.22253346,2.26190476 1.87706194,2.26190476 L1.87706194,2.26190476 Z" fill="#37474F"></path>
                                    </g>
                                </g>
                            </g>
                            <g transform="translate(3.028634, 0.000000)" id="Shape">
                                <g>
                                    <g>
                                        <polyline fill="#FFAB00" points="0.806100218 1.25274725 1.49704326 1.25274725 1.49704326 2.23870574"></polyline>
                                        <path d="M1.49704326,2.81868132 C1.15157174,2.81868132 0.921257392,2.58669109 0.921257392,2.23870574 L0.921257392,1.83272283 L0.806100218,1.83272283 C0.460628696,1.83272283 0.230314348,1.6007326 0.230314348,1.25274725 C0.230314348,0.904761905 0.460628696,0.672771673 0.806100218,0.672771673 L1.49704326,0.672771673 C1.84251478,0.672771673 2.07282913,0.904761905 2.07282913,1.25274725 L2.07282913,2.23870574 C2.07282913,2.58669109 1.84251478,2.81868132 1.49704326,2.81868132 L1.49704326,2.81868132 Z" fill="#37474F"></path>
                                    </g>
                                    <g transform="translate(2.303143, 0.000000)">
                                        <polyline fill="#FFAB00" points="0.748521631 1.25274725 1.43946467 1.25274725 1.43946467 2.23870574"></polyline>
                                        <path d="M1.43946467,2.81868132 C1.09399315,2.81868132 0.863678805,2.58669109 0.863678805,2.23870574 L0.863678805,1.83272283 L0.748521631,1.83272283 C0.403050109,1.83272283 0.172735761,1.6007326 0.172735761,1.25274725 C0.172735761,0.904761905 0.403050109,0.672771673 0.748521631,0.672771673 L1.43946467,0.672771673 C1.7849362,0.672771673 2.01525054,0.904761905 2.01525054,1.25274725 L2.01525054,2.23870574 C2.01525054,2.58669109 1.7849362,2.81868132 1.43946467,2.81868132 L1.43946467,2.81868132 Z" fill="#37474F"></path>
                                    </g>
                                </g>
                                <g transform="translate(0.000000, 3.630647)">
                                    <g>
                                        <polyline fill="#FFAB00" points="0.806100218 0.637973138 1.49704326 0.637973138 1.49704326 1.62393162"></polyline>
                                        <path d="M1.49704326,2.2039072 C1.15157174,2.2039072 0.921257392,1.97191697 0.921257392,1.62393162 L0.921257392,1.21794872 L0.806100218,1.21794872 C0.460628696,1.21794872 0.230314348,0.985958486 0.230314348,0.637973138 C0.230314348,0.28998779 0.460628696,0.057997558 0.806100218,0.057997558 L1.49704326,0.057997558 C1.84251478,0.057997558 2.07282913,0.28998779 2.07282913,0.637973138 L2.07282913,1.62393162 C2.07282913,1.91391941 1.84251478,2.2039072 1.49704326,2.2039072 L1.49704326,2.2039072 Z" fill="#37474F"></path>
                                    </g>
                                    <g transform="translate(2.303143, 0.000000)">
                                        <polyline fill="#FFAB00" points="0.748521631 0.637973138 1.43946467 0.637973138 1.43946467 1.62393162"></polyline>
                                        <path d="M1.43946467,2.2039072 C1.09399315,2.2039072 0.863678805,1.97191697 0.863678805,1.62393162 L0.863678805,1.21794872 L0.748521631,1.21794872 C0.403050109,1.21794872 0.172735761,0.985958486 0.172735761,0.637973138 C0.172735761,0.28998779 0.403050109,0.057997558 0.748521631,0.057997558 L1.43946467,0.057997558 C1.7849362,0.057997558 2.01525054,0.28998779 2.01525054,0.637973138 L2.01525054,1.62393162 C2.01525054,1.91391941 1.7849362,2.2039072 1.43946467,2.2039072 L1.43946467,2.2039072 Z" fill="#37474F"></path>
                                    </g>
                                </g>
                                <g transform="translate(0.000000, 6.530525)">
                                    <g>
                                        <polyline fill="#FFAB00" points="0.806100218 0.695970696 1.49704326 0.695970696 1.49704326 1.68192918"></polyline>
                                        <path d="M1.49704326,2.26190476 C1.15157174,2.26190476 0.921257392,2.02991453 0.921257392,1.68192918 L0.921257392,1.27594628 L0.806100218,1.27594628 C0.460628696,1.27594628 0.230314348,1.04395604 0.230314348,0.695970696 C0.230314348,0.347985348 0.460628696,0.115995116 0.806100218,0.115995116 L1.49704326,0.115995116 C1.84251478,0.115995116 2.07282913,0.347985348 2.07282913,0.695970696 L2.07282913,1.68192918 C2.07282913,2.02991453 1.84251478,2.26190476 1.49704326,2.26190476 L1.49704326,2.26190476 Z" fill="#37474F"></path>
                                    </g>
                                    <g transform="translate(2.303143, 0.000000)">
                                        <polyline fill="#FFAB00" points="0.748521631 0.695970696 1.43946467 0.695970696 1.43946467 1.68192918"></polyline>
                                        <path d="M1.43946467,2.26190476 C1.09399315,2.26190476 0.863678805,2.02991453 0.863678805,1.68192918 L0.863678805,1.27594628 L0.748521631,1.27594628 C0.403050109,1.27594628 0.172735761,1.04395604 0.172735761,0.695970696 C0.172735761,0.347985348 0.403050109,0.115995116 0.748521631,0.115995116 L1.43946467,0.115995116 C1.7849362,0.115995116 2.01525054,0.347985348 2.01525054,0.695970696 L2.01525054,1.68192918 C2.01525054,2.02991453 1.7849362,2.26190476 1.43946467,2.26190476 L1.43946467,2.26190476 Z" fill="#37474F"></path>
                                    </g>
                                </g>
                            </g>
                            <g id="Shape">
                                <g>
                                    <polyline fill="#FFAB00" points="1.18611889 1.25274725 1.87706194 1.25274725 1.87706194 2.23870574"></polyline>
                                    <path d="M1.87706194,2.81868132 C1.53159041,2.81868132 1.30127607,2.58669109 1.30127607,2.23870574 L1.30127607,1.83272283 L1.18611889,1.83272283 C0.84064737,1.83272283 0.610333022,1.6007326 0.610333022,1.25274725 C0.610333022,0.904761905 0.84064737,0.672771673 1.18611889,0.672771673 L1.87706194,0.672771673 C2.22253346,0.672771673 2.45284781,0.904761905 2.45284781,1.25274725 L2.45284781,2.23870574 C2.45284781,2.58669109 2.22253346,2.81868132 1.87706194,2.81868132 L1.87706194,2.81868132 Z" fill="#37474F"></path>
                                </g>
                                <g transform="translate(0.000000, 3.630647)">
                                    <polyline fill="#FFAB00" points="1.18611889 0.637973138 1.87706194 0.637973138 1.87706194 1.62393162"></polyline>
                                    <path d="M1.87706194,2.2039072 C1.53159041,2.2039072 1.30127607,1.97191697 1.30127607,1.62393162 L1.30127607,1.21794872 L1.18611889,1.21794872 C0.84064737,1.21794872 0.610333022,0.985958486 0.610333022,0.637973138 C0.610333022,0.28998779 0.84064737,0.057997558 1.18611889,0.057997558 L1.87706194,0.057997558 C2.22253346,0.057997558 2.45284781,0.28998779 2.45284781,0.637973138 L2.45284781,1.62393162 C2.45284781,1.91391941 2.22253346,2.2039072 1.87706194,2.2039072 L1.87706194,2.2039072 Z" fill="#37474F"></path>
                                </g>
                                <g transform="translate(0.000000, 6.530525)">
                                    <polyline fill="#FFAB00" points="1.18611889 0.695970696 1.87706194 0.695970696 1.87706194 1.68192918"></polyline>
                                    <path d="M1.87706194,2.26190476 C1.53159041,2.26190476 1.30127607,2.02991453 1.30127607,1.68192918 L1.30127607,1.27594628 L1.18611889,1.27594628 C0.84064737,1.27594628 0.610333022,1.04395604 0.610333022,0.695970696 C0.610333022,0.347985348 0.84064737,0.115995116 1.18611889,0.115995116 L1.87706194,0.115995116 C2.22253346,0.115995116 2.45284781,0.347985348 2.45284781,0.695970696 L2.45284781,1.68192918 C2.45284781,2.02991453 2.22253346,2.26190476 1.87706194,2.26190476 L1.87706194,2.26190476 Z" fill="#37474F"></path>
                                </g>
                            </g>
                        </g>
                        <g id="Group" transform="translate(16.548086, 25.948107)">
                            <g transform="translate(12.816993, 0.000000)" id="Shape">
                                <g>
                                    <g>
                                        <polyline fill="#FFAB00" points="0.806100218 1.07875458 1.49704326 1.07875458 1.49704326 2.06471306"></polyline>
                                        <path d="M1.49704326,2.64468864 C1.15157174,2.64468864 0.921257392,2.41269841 0.921257392,2.06471306 L0.921257392,1.65873016 L0.806100218,1.65873016 C0.460628696,1.65873016 0.230314348,1.42673993 0.230314348,1.07875458 C0.230314348,0.730769231 0.460628696,0.498778999 0.806100218,0.498778999 L1.49704326,0.498778999 C1.84251478,0.498778999 2.07282913,0.730769231 2.07282913,1.07875458 L2.07282913,2.06471306 C2.07282913,2.41269841 1.84251478,2.64468864 1.49704326,2.64468864 L1.49704326,2.64468864 Z" fill="#37474F"></path>
                                    </g>
                                    <g transform="translate(2.303143, 0.000000)">
                                        <polyline fill="#FFAB00" points="0.690943044 1.07875458 1.43946467 1.07875458 1.43946467 2.06471306"></polyline>
                                        <path d="M1.43946467,2.64468864 C1.09399315,2.64468864 0.863678805,2.41269841 0.863678805,2.06471306 L0.863678805,1.65873016 L0.748521631,1.65873016 C0.403050109,1.65873016 0.172735761,1.42673993 0.172735761,1.07875458 C0.172735761,0.730769231 0.403050109,0.498778999 0.748521631,0.498778999 L1.43946467,0.498778999 C1.7849362,0.498778999 2.01525054,0.730769231 2.01525054,1.07875458 L2.01525054,2.06471306 C2.01525054,2.41269841 1.72735761,2.64468864 1.43946467,2.64468864 L1.43946467,2.64468864 Z" fill="#37474F"></path>
                                    </g>
                                </g>
                                <g transform="translate(0.000000, 2.899878)">
                                    <g>
                                        <polyline fill="#FFAB00" points="0.806100218 1.19474969 1.49704326 1.19474969 1.49704326 2.18070818"></polyline>
                                        <path d="M1.49704326,2.76068376 C1.15157174,2.76068376 0.921257392,2.52869353 0.921257392,2.18070818 L0.921257392,1.77472527 L0.806100218,1.77472527 C0.460628696,1.77472527 0.230314348,1.54273504 0.230314348,1.19474969 C0.230314348,0.846764347 0.460628696,0.614774115 0.806100218,0.614774115 L1.49704326,0.614774115 C1.84251478,0.614774115 2.07282913,0.846764347 2.07282913,1.19474969 L2.07282913,2.18070818 C2.07282913,2.47069597 1.84251478,2.76068376 1.49704326,2.76068376 L1.49704326,2.76068376 Z" fill="#37474F"></path>
                                    </g>
                                    <g transform="translate(2.303143, 0.000000)">
                                        <polyline fill="#FFAB00" points="0.690943044 1.19474969 1.43946467 1.19474969 1.43946467 2.18070818"></polyline>
                                        <path d="M1.43946467,2.76068376 C1.09399315,2.76068376 0.863678805,2.52869353 0.863678805,2.18070818 L0.863678805,1.77472527 L0.748521631,1.77472527 C0.403050109,1.77472527 0.172735761,1.54273504 0.172735761,1.19474969 C0.172735761,0.846764347 0.403050109,0.614774115 0.748521631,0.614774115 L1.43946467,0.614774115 C1.7849362,0.614774115 2.01525054,0.846764347 2.01525054,1.19474969 L2.01525054,2.18070818 C2.01525054,2.47069597 1.72735761,2.76068376 1.43946467,2.76068376 L1.43946467,2.76068376 Z" fill="#37474F"></path>
                                    </g>
                                </g>
                                <g transform="translate(0.000000, 5.799756)">
                                    <g>
                                        <polyline fill="#FFAB00" points="0.806100218 1.25274725 1.49704326 1.25274725 1.49704326 2.23870574"></polyline>
                                        <path d="M1.49704326,2.81868132 C1.15157174,2.81868132 0.921257392,2.58669109 0.921257392,2.23870574 L0.921257392,1.83272283 L0.806100218,1.83272283 C0.460628696,1.83272283 0.230314348,1.6007326 0.230314348,1.25274725 C0.230314348,0.904761905 0.460628696,0.672771673 0.806100218,0.672771673 L1.49704326,0.672771673 C1.84251478,0.672771673 2.07282913,0.904761905 2.07282913,1.25274725 L2.07282913,2.23870574 C2.07282913,2.58669109 1.84251478,2.81868132 1.49704326,2.81868132 L1.49704326,2.81868132 Z" fill="#37474F"></path>
                                    </g>
                                    <g transform="translate(2.303143, 0.000000)">
                                        <polyline fill="#FFAB00" points="0.690943044 1.25274725 1.43946467 1.25274725 1.43946467 2.23870574"></polyline>
                                        <path d="M1.43946467,2.81868132 C1.09399315,2.81868132 0.863678805,2.58669109 0.863678805,2.23870574 L0.863678805,1.83272283 L0.748521631,1.83272283 C0.403050109,1.83272283 0.172735761,1.6007326 0.172735761,1.25274725 C0.172735761,0.904761905 0.403050109,0.672771673 0.748521631,0.672771673 L1.43946467,0.672771673 C1.7849362,0.672771673 2.01525054,0.904761905 2.01525054,1.25274725 L2.01525054,2.23870574 C2.01525054,2.58669109 1.72735761,2.81868132 1.43946467,2.81868132 L1.43946467,2.81868132 Z" fill="#37474F"></path>
                                    </g>
                                </g>
                            </g>
                            <g transform="translate(7.485216, 0.000000)" id="Shape">
                                <g>
                                    <g>
                                        <polyline fill="#FFAB00" points="1.24369748 1.07875458 1.93464052 1.07875458 1.93464052 2.06471306"></polyline>
                                        <path d="M1.93464052,2.64468864 C1.589169,2.64468864 1.35885465,2.41269841 1.35885465,2.06471306 L1.35885465,1.65873016 L1.24369748,1.65873016 C0.898225957,1.65873016 0.667911609,1.42673993 0.667911609,1.07875458 C0.667911609,0.730769231 0.898225957,0.498778999 1.24369748,0.498778999 L1.93464052,0.498778999 C2.28011204,0.498778999 2.51042639,0.730769231 2.51042639,1.07875458 L2.51042639,2.06471306 C2.51042639,2.41269841 2.28011204,2.64468864 1.93464052,2.64468864 L1.93464052,2.64468864 Z" fill="#37474F"></path>
                                    </g>
                                    <g transform="translate(2.303143, 0.000000)">
                                        <polyline fill="#FFAB00" points="1.18611889 1.07875458 1.87706194 1.07875458 1.87706194 2.06471306"></polyline>
                                        <path d="M1.87706194,2.64468864 C1.53159041,2.64468864 1.30127607,2.41269841 1.30127607,2.06471306 L1.30127607,1.65873016 L1.18611889,1.65873016 C0.84064737,1.65873016 0.610333022,1.42673993 0.610333022,1.07875458 C0.610333022,0.730769231 0.84064737,0.498778999 1.18611889,0.498778999 L1.87706194,0.498778999 C2.22253346,0.498778999 2.45284781,0.730769231 2.45284781,1.07875458 L2.45284781,2.06471306 C2.45284781,2.41269841 2.22253346,2.64468864 1.87706194,2.64468864 L1.87706194,2.64468864 Z" fill="#37474F"></path>
                                    </g>
                                </g>
                                <g transform="translate(0.000000, 2.899878)">
                                    <g>
                                        <polyline fill="#FFAB00" points="1.24369748 1.19474969 1.93464052 1.19474969 1.93464052 2.18070818"></polyline>
                                        <path d="M1.93464052,2.76068376 C1.589169,2.76068376 1.35885465,2.52869353 1.35885465,2.18070818 L1.35885465,1.77472527 L1.24369748,1.77472527 C0.898225957,1.77472527 0.667911609,1.54273504 0.667911609,1.19474969 C0.667911609,0.846764347 0.898225957,0.614774115 1.24369748,0.614774115 L1.93464052,0.614774115 C2.28011204,0.614774115 2.51042639,0.846764347 2.51042639,1.19474969 L2.51042639,2.18070818 C2.51042639,2.47069597 2.28011204,2.76068376 1.93464052,2.76068376 L1.93464052,2.76068376 Z" fill="#37474F"></path>
                                    </g>
                                    <g transform="translate(2.303143, 0.000000)">
                                        <polyline fill="#FFAB00" points="1.18611889 1.19474969 1.87706194 1.19474969 1.87706194 2.18070818"></polyline>
                                        <path d="M1.87706194,2.76068376 C1.53159041,2.76068376 1.30127607,2.52869353 1.30127607,2.18070818 L1.30127607,1.77472527 L1.18611889,1.77472527 C0.84064737,1.77472527 0.610333022,1.54273504 0.610333022,1.19474969 C0.610333022,0.846764347 0.84064737,0.614774115 1.18611889,0.614774115 L1.87706194,0.614774115 C2.22253346,0.614774115 2.45284781,0.846764347 2.45284781,1.19474969 L2.45284781,2.18070818 C2.45284781,2.47069597 2.22253346,2.76068376 1.87706194,2.76068376 L1.87706194,2.76068376 Z" fill="#37474F"></path>
                                    </g>
                                </g>
                                <g transform="translate(0.000000, 5.799756)">
                                    <g>
                                        <polyline fill="#FFAB00" points="1.24369748 1.25274725 1.93464052 1.25274725 1.93464052 2.23870574"></polyline>
                                        <path d="M1.93464052,2.81868132 C1.589169,2.81868132 1.35885465,2.58669109 1.35885465,2.23870574 L1.35885465,1.83272283 L1.24369748,1.83272283 C0.898225957,1.83272283 0.667911609,1.6007326 0.667911609,1.25274725 C0.667911609,0.904761905 0.898225957,0.672771673 1.24369748,0.672771673 L1.93464052,0.672771673 C2.28011204,0.672771673 2.51042639,0.904761905 2.51042639,1.25274725 L2.51042639,2.23870574 C2.51042639,2.58669109 2.28011204,2.81868132 1.93464052,2.81868132 L1.93464052,2.81868132 Z" fill="#37474F"></path>
                                    </g>
                                    <g transform="translate(2.303143, 0.000000)">
                                        <polyline fill="#FFAB00" points="1.18611889 1.25274725 1.87706194 1.25274725 1.87706194 2.23870574"></polyline>
                                        <path d="M1.87706194,2.81868132 C1.53159041,2.81868132 1.30127607,2.58669109 1.30127607,2.23870574 L1.30127607,1.83272283 L1.18611889,1.83272283 C0.84064737,1.83272283 0.610333022,1.6007326 0.610333022,1.25274725 C0.610333022,0.904761905 0.84064737,0.672771673 1.18611889,0.672771673 L1.87706194,0.672771673 C2.22253346,0.672771673 2.45284781,0.904761905 2.45284781,1.25274725 L2.45284781,2.23870574 C2.45284781,2.58669109 2.22253346,2.81868132 1.87706194,2.81868132 L1.87706194,2.81868132 Z" fill="#37474F"></path>
                                    </g>
                                </g>
                            </g>
                            <g transform="translate(3.028634, 0.000000)" id="Shape">
                                <g>
                                    <g>
                                        <polyline fill="#FFAB00" points="0.806100218 1.07875458 1.49704326 1.07875458 1.49704326 2.06471306"></polyline>
                                        <path d="M1.49704326,2.64468864 C1.15157174,2.64468864 0.921257392,2.41269841 0.921257392,2.06471306 L0.921257392,1.65873016 L0.806100218,1.65873016 C0.460628696,1.65873016 0.230314348,1.42673993 0.230314348,1.07875458 C0.230314348,0.730769231 0.460628696,0.498778999 0.806100218,0.498778999 L1.49704326,0.498778999 C1.84251478,0.498778999 2.07282913,0.730769231 2.07282913,1.07875458 L2.07282913,2.06471306 C2.07282913,2.41269841 1.84251478,2.64468864 1.49704326,2.64468864 L1.49704326,2.64468864 Z" fill="#37474F"></path>
                                    </g>
                                    <g transform="translate(2.303143, 0.000000)">
                                        <polyline fill="#FFAB00" points="0.748521631 1.07875458 1.43946467 1.07875458 1.43946467 2.06471306"></polyline>
                                        <path d="M1.43946467,2.64468864 C1.09399315,2.64468864 0.863678805,2.41269841 0.863678805,2.06471306 L0.863678805,1.65873016 L0.748521631,1.65873016 C0.403050109,1.65873016 0.172735761,1.42673993 0.172735761,1.07875458 C0.172735761,0.730769231 0.403050109,0.498778999 0.748521631,0.498778999 L1.43946467,0.498778999 C1.7849362,0.498778999 2.01525054,0.730769231 2.01525054,1.07875458 L2.01525054,2.06471306 C2.01525054,2.41269841 1.7849362,2.64468864 1.43946467,2.64468864 L1.43946467,2.64468864 Z" fill="#37474F"></path>
                                    </g>
                                </g>
                                <g transform="translate(0.000000, 2.899878)">
                                    <g>
                                        <polyline fill="#FFAB00" points="0.806100218 1.19474969 1.49704326 1.19474969 1.49704326 2.18070818"></polyline>
                                        <path d="M1.49704326,2.76068376 C1.15157174,2.76068376 0.921257392,2.52869353 0.921257392,2.18070818 L0.921257392,1.77472527 L0.806100218,1.77472527 C0.460628696,1.77472527 0.230314348,1.54273504 0.230314348,1.19474969 C0.230314348,0.846764347 0.460628696,0.614774115 0.806100218,0.614774115 L1.49704326,0.614774115 C1.84251478,0.614774115 2.07282913,0.846764347 2.07282913,1.19474969 L2.07282913,2.18070818 C2.07282913,2.47069597 1.84251478,2.76068376 1.49704326,2.76068376 L1.49704326,2.76068376 Z" fill="#37474F"></path>
                                    </g>
                                    <g transform="translate(2.303143, 0.000000)">
                                        <polyline fill="#FFAB00" points="0.748521631 1.19474969 1.43946467 1.19474969 1.43946467 2.18070818"></polyline>
                                        <path d="M1.43946467,2.76068376 C1.09399315,2.76068376 0.863678805,2.52869353 0.863678805,2.18070818 L0.863678805,1.77472527 L0.748521631,1.77472527 C0.403050109,1.77472527 0.172735761,1.54273504 0.172735761,1.19474969 C0.172735761,0.846764347 0.403050109,0.614774115 0.748521631,0.614774115 L1.43946467,0.614774115 C1.7849362,0.614774115 2.01525054,0.846764347 2.01525054,1.19474969 L2.01525054,2.18070818 C2.01525054,2.47069597 1.7849362,2.76068376 1.43946467,2.76068376 L1.43946467,2.76068376 Z" fill="#37474F"></path>
                                    </g>
                                </g>
                                <g transform="translate(0.000000, 5.799756)">
                                    <g>
                                        <polyline fill="#FFAB00" points="0.806100218 1.25274725 1.49704326 1.25274725 1.49704326 2.23870574"></polyline>
                                        <path d="M1.49704326,2.81868132 C1.15157174,2.81868132 0.921257392,2.58669109 0.921257392,2.23870574 L0.921257392,1.83272283 L0.806100218,1.83272283 C0.460628696,1.83272283 0.230314348,1.6007326 0.230314348,1.25274725 C0.230314348,0.904761905 0.460628696,0.672771673 0.806100218,0.672771673 L1.49704326,0.672771673 C1.84251478,0.672771673 2.07282913,0.904761905 2.07282913,1.25274725 L2.07282913,2.23870574 C2.07282913,2.58669109 1.84251478,2.81868132 1.49704326,2.81868132 L1.49704326,2.81868132 Z" fill="#37474F"></path>
                                    </g>
                                    <g transform="translate(2.303143, 0.000000)">
                                        <polyline fill="#FFAB00" points="0.748521631 1.25274725 1.43946467 1.25274725 1.43946467 2.23870574"></polyline>
                                        <path d="M1.43946467,2.81868132 C1.09399315,2.81868132 0.863678805,2.58669109 0.863678805,2.23870574 L0.863678805,1.83272283 L0.748521631,1.83272283 C0.403050109,1.83272283 0.172735761,1.6007326 0.172735761,1.25274725 C0.172735761,0.904761905 0.403050109,0.672771673 0.748521631,0.672771673 L1.43946467,0.672771673 C1.7849362,0.672771673 2.01525054,0.904761905 2.01525054,1.25274725 L2.01525054,2.23870574 C2.01525054,2.58669109 1.7849362,2.81868132 1.43946467,2.81868132 L1.43946467,2.81868132 Z" fill="#37474F"></path>
                                    </g>
                                </g>
                            </g>
                            <g id="Shape">
                                <g>
                                    <polyline fill="#FFAB00" points="1.18611889 1.07875458 1.87706194 1.07875458 1.87706194 2.06471306"></polyline>
                                    <path d="M1.87706194,2.64468864 C1.53159041,2.64468864 1.30127607,2.41269841 1.30127607,2.06471306 L1.30127607,1.65873016 L1.18611889,1.65873016 C0.84064737,1.65873016 0.610333022,1.42673993 0.610333022,1.07875458 C0.610333022,0.730769231 0.84064737,0.498778999 1.18611889,0.498778999 L1.87706194,0.498778999 C2.22253346,0.498778999 2.45284781,0.730769231 2.45284781,1.07875458 L2.45284781,2.06471306 C2.45284781,2.41269841 2.22253346,2.64468864 1.87706194,2.64468864 L1.87706194,2.64468864 Z" fill="#37474F"></path>
                                </g>
                                <g transform="translate(0.000000, 2.899878)">
                                    <polyline fill="#FFAB00" points="1.18611889 1.19474969 1.87706194 1.19474969 1.87706194 2.18070818"></polyline>
                                    <path d="M1.87706194,2.76068376 C1.53159041,2.76068376 1.30127607,2.52869353 1.30127607,2.18070818 L1.30127607,1.77472527 L1.18611889,1.77472527 C0.84064737,1.77472527 0.610333022,1.54273504 0.610333022,1.19474969 C0.610333022,0.846764347 0.84064737,0.614774115 1.18611889,0.614774115 L1.87706194,0.614774115 C2.22253346,0.614774115 2.45284781,0.846764347 2.45284781,1.19474969 L2.45284781,2.18070818 C2.45284781,2.47069597 2.22253346,2.76068376 1.87706194,2.76068376 L1.87706194,2.76068376 Z" fill="#37474F"></path>
                                </g>
                                <g transform="translate(0.000000, 5.799756)">
                                    <polyline fill="#FFAB00" points="1.18611889 1.25274725 1.87706194 1.25274725 1.87706194 2.23870574"></polyline>
                                    <path d="M1.87706194,2.81868132 C1.53159041,2.81868132 1.30127607,2.58669109 1.30127607,2.23870574 L1.30127607,1.83272283 L1.18611889,1.83272283 C0.84064737,1.83272283 0.610333022,1.6007326 0.610333022,1.25274725 C0.610333022,0.904761905 0.84064737,0.672771673 1.18611889,0.672771673 L1.87706194,0.672771673 C2.22253346,0.672771673 2.45284781,0.904761905 2.45284781,1.25274725 L2.45284781,2.23870574 C2.45284781,2.58669109 2.22253346,2.81868132 1.87706194,2.81868132 L1.87706194,2.81868132 Z" fill="#37474F"></path>
                                </g>
                            </g>
                        </g>
                        <g id="Group" transform="translate(2.729225, 4.639805)" fill="#37474F">
                            <g id="Shape">
                                <path d="M2.22253346,1.1019536 C2.22253346,1.44993895 1.93464052,1.73992674 1.589169,1.73992674 C1.24369748,1.73992674 0.955804544,1.44993895 0.955804544,1.1019536 C0.955804544,0.753968254 1.24369748,0.463980464 1.589169,0.463980464 C1.93464052,0.463980464 2.22253346,0.753968254 2.22253346,1.1019536 L2.22253346,1.1019536 Z"></path>
                                <path d="M1.589169,2.02991453 C1.07096172,2.02991453 0.667911609,1.62393162 0.667911609,1.1019536 C0.667911609,0.57997558 1.07096172,0.173992674 1.589169,0.173992674 C2.0497977,0.173992674 2.51042639,0.57997558 2.51042639,1.1019536 C2.51042639,1.62393162 2.10737628,2.02991453 1.589169,2.02991453 L1.589169,2.02991453 Z M1.589169,0.753968254 C1.41643324,0.753968254 1.24369748,0.927960928 1.24369748,1.1019536 C1.24369748,1.27594628 1.41643324,1.44993895 1.589169,1.44993895 C1.76190476,1.44993895 1.93464052,1.27594628 1.93464052,1.1019536 C1.93464052,0.927960928 1.76190476,0.753968254 1.589169,0.753968254 L1.589169,0.753968254 Z"></path>
                            </g>
                            <g transform="translate(4.606287, 0.000000)" id="Shape">
                                <path d="M1.99221911,1.1019536 C1.99221911,1.44993895 1.70432617,1.73992674 1.35885465,1.73992674 C1.01338313,1.73992674 0.725490196,1.44993895 0.725490196,1.1019536 C0.725490196,0.753968254 1.01338313,0.463980464 1.35885465,0.463980464 C1.70432617,0.463980464 1.99221911,0.753968254 1.99221911,1.1019536 L1.99221911,1.1019536 Z"></path>
                                <path d="M1.35885465,2.02991453 C0.84064737,2.02991453 0.437597261,1.62393162 0.437597261,1.1019536 C0.437597261,0.57997558 0.84064737,0.173992674 1.35885465,0.173992674 C1.87706194,0.173992674 2.28011204,0.57997558 2.28011204,1.1019536 C2.28011204,1.62393162 1.87706194,2.02991453 1.35885465,2.02991453 L1.35885465,2.02991453 Z M1.35885465,0.753968254 C1.18611889,0.753968254 1.01338313,0.927960928 1.01338313,1.1019536 C1.01338313,1.27594628 1.18611889,1.44993895 1.35885465,1.44993895 C1.53159041,1.44993895 1.70432617,1.27594628 1.70432617,1.1019536 C1.70432617,0.927960928 1.53159041,0.753968254 1.35885465,0.753968254 L1.35885465,0.753968254 Z"></path>
                            </g>
                            <g transform="translate(9.362278, 0.000000)" id="Shape">
                                <path d="M1.55462185,1.1019536 C1.55462185,1.44993895 1.26672891,1.73992674 0.921257392,1.73992674 C0.57578587,1.73992674 0.287892935,1.44993895 0.287892935,1.1019536 C0.287892935,0.753968254 0.57578587,0.463980464 0.921257392,0.463980464 C1.26672891,0.463980464 1.55462185,0.753968254 1.55462185,1.1019536 L1.55462185,1.1019536 Z"></path>
                                <path d="M0.978835979,2.02991453 C0.460628696,2.02991453 0.057578587,1.62393162 0.057578587,1.1019536 C0.057578587,0.57997558 0.460628696,0.173992674 0.978835979,0.173992674 C1.43946467,0.173992674 1.90009337,0.57997558 1.90009337,1.1019536 C1.84251478,1.62393162 1.43946467,2.02991453 0.978835979,2.02991453 L0.978835979,2.02991453 Z M0.978835979,0.753968254 C0.806100218,0.753968254 0.633364457,0.927960928 0.633364457,1.1019536 C0.633364457,1.27594628 0.806100218,1.44993895 0.978835979,1.44993895 C1.15157174,1.44993895 1.3243075,1.27594628 1.3243075,1.1019536 C1.26672891,0.927960928 1.15157174,0.753968254 0.978835979,0.753968254 L0.978835979,0.753968254 Z"></path>
                            </g>
                        </g>
                        <g id="Group" transform="translate(0.000000, 12.179487)">
                            <g transform="translate(3.454715, 9.859585)">
                                <rect id="Rectangle-path" fill="#FFFFFF" x="0.57578587" y="0.57997558" width="17.849362" height="13.3394383"></rect>
                                <path d="M18.4251478,14.4993895 L0.57578587,14.4993895 C0.230314348,14.4993895 0,14.2673993 0,13.9194139 L0,0.57997558 C0,0.231990232 0.230314348,0 0.57578587,0 L18.4251478,0 C18.7706194,0 19.0009337,0.231990232 19.0009337,0.57997558 L19.0009337,13.9194139 C19.0009337,14.2673993 18.7706194,14.4993895 18.4251478,14.4993895 L18.4251478,14.4993895 Z M1.15157174,13.3394383 L17.849362,13.3394383 L17.849362,1.15995116 L1.15157174,1.15995116 L1.15157174,13.3394383 L1.15157174,13.3394383 Z" id="Shape" fill="#37474F"></path>
                            </g>
                            <g transform="translate(0.575786, 23.199023)" id="Shape">
                                <path d="M0.57578587,0.57997558 L24.7587924,0.57997558" fill="#FFFFFF"></path>
                                <path d="M24.7587924,1.15995116 L0.57578587,1.15995116 C0.230314348,1.15995116 0,0.927960928 0,0.57997558 C0,0.231990232 0.230314348,0 0.57578587,0 L24.7587924,0 C25.1042639,0 25.3345783,0.231990232 25.3345783,0.57997558 C25.3345783,0.927960928 25.1042639,1.15995116 24.7587924,1.15995116 L24.7587924,1.15995116 Z" fill="#37474F"></path>
                            </g>
                            <g transform="translate(10.364146, 13.919414)">
                                <rect id="Rectangle-path" fill="#FFAB00" x="0.57578587" y="0.57997558" width="4.60628696" height="9.27960928"></rect>
                                <path d="M5.18207283,10.4395604 L0.57578587,10.4395604 C0.230314348,10.4395604 0,10.2075702 0,9.85958486 L0,0.57997558 C0,0.231990232 0.230314348,0 0.57578587,0 L5.18207283,0 C5.52754435,0 5.7578587,0.231990232 5.7578587,0.57997558 L5.7578587,9.85958486 C5.7578587,10.2075702 5.52754435,10.4395604 5.18207283,10.4395604 L5.18207283,10.4395604 Z M1.15157174,9.27960928 L4.60628696,9.27960928 L4.60628696,1.15995116 L1.15157174,1.15995116 L1.15157174,9.27960928 L1.15157174,9.27960928 Z" id="Shape" fill="#37474F"></path>
                            </g>
                            <g transform="translate(10.364146, 13.919414)">
                                <rect id="Rectangle-path" fill="#FFAB00" x="0.57578587" y="0.57997558" width="2.30314348" height="9.27960928"></rect>
                                <path d="M2.87892935,10.4395604 L0.57578587,10.4395604 C0.230314348,10.4395604 0,10.2075702 0,9.85958486 L0,0.57997558 C0,0.231990232 0.230314348,0 0.57578587,0 L2.87892935,0 C3.22440087,0 3.45471522,0.231990232 3.45471522,0.57997558 L3.45471522,9.85958486 C3.45471522,10.2075702 3.22440087,10.4395604 2.87892935,10.4395604 L2.87892935,10.4395604 Z M1.15157174,9.27960928 L2.30314348,9.27960928 L2.30314348,1.15995116 L1.15157174,1.15995116 L1.15157174,9.27960928 L1.15157174,9.27960928 Z" id="Shape" fill="#37474F"></path>
                            </g>
                            <g transform="translate(5.032369, 13.768620)" id="Shape">
                                <g>
                                    <g>
                                        <g>
                                            <polyline fill="#FFAB00" points="1.07096172 1.19474969 1.76190476 1.19474969 1.76190476 2.18070818"></polyline>
                                            <path d="M1.76190476,2.76068376 C1.41643324,2.76068376 1.18611889,2.52869353 1.18611889,2.18070818 L1.18611889,1.77472527 L1.01338313,1.77472527 C0.667911609,1.77472527 0.437597261,1.54273504 0.437597261,1.19474969 C0.437597261,0.846764347 0.667911609,0.614774115 1.01338313,0.614774115 L1.76190476,0.614774115 C2.10737628,0.614774115 2.33769063,0.846764347 2.33769063,1.19474969 L2.33769063,2.18070818 C2.33769063,2.52869353 2.10737628,2.76068376 1.76190476,2.76068376 L1.76190476,2.76068376 Z" fill="#37474F"></path>
                                        </g>
                                        <g transform="translate(2.452848, 0.000000)">
                                            <polyline fill="#FFAB00" points="0.863678805 1.19474969 1.55462185 1.19474969 1.55462185 2.18070818"></polyline>
                                            <path d="M1.55462185,2.76068376 C1.20915033,2.76068376 0.978835979,2.52869353 0.978835979,2.18070818 L0.978835979,1.77472527 L0.806100218,1.77472527 C0.460628696,1.77472527 0.230314348,1.54273504 0.230314348,1.19474969 C0.230314348,0.846764347 0.460628696,0.614774115 0.806100218,0.614774115 L1.55462185,0.614774115 C1.90009337,0.614774115 2.13040772,0.846764347 2.13040772,1.19474969 L2.13040772,2.18070818 C2.13040772,2.52869353 1.90009337,2.76068376 1.55462185,2.76068376 L1.55462185,2.76068376 Z" fill="#37474F"></path>
                                        </g>
                                    </g>
                                    <g transform="translate(0.000000, 3.630647)">
                                        <g>
                                            <polyline fill="#FFAB00" points="1.07096172 0.57997558 1.76190476 0.57997558 1.76190476 1.50793651"></polyline>
                                            <path d="M1.76190476,2.08791209 C1.41643324,2.08791209 1.18611889,1.85592186 1.18611889,1.50793651 L1.18611889,1.15995116 L1.01338313,1.15995116 C0.667911609,1.15995116 0.437597261,0.927960928 0.437597261,0.57997558 C0.437597261,0.231990232 0.667911609,0 1.01338313,0 L1.76190476,0 C2.10737628,0 2.33769063,0.231990232 2.33769063,0.57997558 L2.33769063,1.56593407 C2.33769063,1.85592186 2.10737628,2.08791209 1.76190476,2.08791209 L1.76190476,2.08791209 Z" fill="#37474F"></path>
                                        </g>
                                        <g transform="translate(2.452848, 0.000000)">
                                            <polyline fill="#FFAB00" points="0.863678805 0.57997558 1.55462185 0.57997558 1.55462185 1.50793651"></polyline>
                                            <path d="M1.55462185,2.08791209 C1.20915033,2.08791209 0.978835979,1.85592186 0.978835979,1.50793651 L0.978835979,1.15995116 L0.806100218,1.15995116 C0.460628696,1.15995116 0.230314348,0.927960928 0.230314348,0.57997558 C0.230314348,0.231990232 0.460628696,0 0.806100218,0 L1.55462185,0 C1.90009337,0 2.13040772,0.231990232 2.13040772,0.57997558 L2.13040772,1.56593407 C2.13040772,1.85592186 1.90009337,2.08791209 1.55462185,2.08791209 L1.55462185,2.08791209 Z" fill="#37474F"></path>
                                        </g>
                                    </g>
                                    <g transform="translate(0.000000, 6.530525)">
                                        <g>
                                            <polyline fill="#FFAB00" points="1.07096172 0.637973138 1.76190476 0.637973138 1.76190476 1.62393162"></polyline>
                                            <path d="M1.76190476,2.2039072 C1.41643324,2.2039072 1.18611889,1.97191697 1.18611889,1.62393162 L1.18611889,1.21794872 L1.01338313,1.21794872 C0.667911609,1.21794872 0.437597261,0.985958486 0.437597261,0.637973138 C0.437597261,0.28998779 0.667911609,0.057997558 1.01338313,0.057997558 L1.76190476,0.057997558 C2.10737628,0.057997558 2.33769063,0.28998779 2.33769063,0.637973138 L2.33769063,1.62393162 C2.33769063,1.91391941 2.10737628,2.2039072 1.76190476,2.2039072 L1.76190476,2.2039072 Z" fill="#37474F"></path>
                                        </g>
                                        <g transform="translate(2.452848, 0.000000)">
                                            <polyline fill="#FFAB00" points="0.863678805 0.637973138 1.55462185 0.637973138 1.55462185 1.62393162"></polyline>
                                            <path d="M1.55462185,2.2039072 C1.20915033,2.2039072 0.978835979,1.97191697 0.978835979,1.62393162 L0.978835979,1.21794872 L0.806100218,1.21794872 C0.460628696,1.21794872 0.230314348,0.985958486 0.230314348,0.637973138 C0.230314348,0.28998779 0.460628696,0.057997558 0.806100218,0.057997558 L1.55462185,0.057997558 C1.90009337,0.057997558 2.13040772,0.28998779 2.13040772,0.637973138 L2.13040772,1.62393162 C2.13040772,1.91391941 1.90009337,2.2039072 1.55462185,2.2039072 L1.55462185,2.2039072 Z" fill="#37474F"></path>
                                        </g>
                                    </g>
                                </g>
                                <g transform="translate(11.665422, 0.000000)">
                                    <g>
                                        <g>
                                            <polyline fill="#FFAB00" points="0.633364457 1.19474969 1.3243075 1.19474969 1.3243075 2.18070818"></polyline>
                                            <path d="M1.3243075,2.76068376 C0.978835979,2.76068376 0.748521631,2.52869353 0.748521631,2.18070818 L0.748521631,1.77472527 L0.633364457,1.77472527 C0.287892935,1.77472527 0.057578587,1.54273504 0.057578587,1.19474969 C0.057578587,0.846764347 0.287892935,0.614774115 0.633364457,0.614774115 L1.3243075,0.614774115 C1.66977902,0.614774115 1.90009337,0.846764347 1.90009337,1.19474969 L1.90009337,2.18070818 C1.90009337,2.52869353 1.66977902,2.76068376 1.3243075,2.76068376 L1.3243075,2.76068376 Z" fill="#37474F"></path>
                                        </g>
                                        <g transform="translate(2.303143, 0.000000)">
                                            <polyline fill="#FFAB00" points="0.57578587 1.19474969 1.26672891 1.19474969 1.26672891 2.18070818"></polyline>
                                            <path d="M1.26672891,2.76068376 C0.921257392,2.76068376 0.690943044,2.52869353 0.690943044,2.18070818 L0.690943044,1.77472527 L0.57578587,1.77472527 C0.230314348,1.77472527 0,1.54273504 0,1.19474969 C0,0.846764347 0.230314348,0.614774115 0.57578587,0.614774115 L1.3243075,0.614774115 C1.66977902,0.614774115 1.90009337,0.846764347 1.90009337,1.19474969 L1.90009337,2.18070818 C1.84251478,2.52869353 1.61220044,2.76068376 1.26672891,2.76068376 L1.26672891,2.76068376 Z" fill="#37474F"></path>
                                        </g>
                                    </g>
                                    <g transform="translate(0.000000, 3.630647)">
                                        <g>
                                            <polyline fill="#FFAB00" points="0.633364457 0.57997558 1.3243075 0.57997558 1.3243075 1.50793651"></polyline>
                                            <path d="M1.3243075,2.08791209 C0.978835979,2.08791209 0.748521631,1.85592186 0.748521631,1.50793651 L0.748521631,1.15995116 L0.633364457,1.15995116 C0.287892935,1.15995116 0.057578587,0.927960928 0.057578587,0.57997558 C0.057578587,0.231990232 0.287892935,0 0.633364457,0 L1.3243075,0 C1.66977902,0 1.90009337,0.231990232 1.90009337,0.57997558 L1.90009337,1.56593407 C1.90009337,1.85592186 1.66977902,2.08791209 1.3243075,2.08791209 L1.3243075,2.08791209 Z" fill="#37474F"></path>
                                        </g>
                                        <g transform="translate(2.303143, 0.000000)">
                                            <polyline fill="#FFAB00" points="0.57578587 0.57997558 1.26672891 0.57997558 1.26672891 1.50793651"></polyline>
                                            <path d="M1.26672891,2.08791209 C0.921257392,2.08791209 0.690943044,1.85592186 0.690943044,1.50793651 L0.690943044,1.15995116 L0.57578587,1.15995116 C0.230314348,1.15995116 0,0.927960928 0,0.57997558 C0,0.231990232 0.230314348,0 0.57578587,0 L1.3243075,0 C1.66977902,0 1.90009337,0.231990232 1.90009337,0.57997558 L1.90009337,1.56593407 C1.84251478,1.85592186 1.61220044,2.08791209 1.26672891,2.08791209 L1.26672891,2.08791209 Z" fill="#37474F"></path>
                                        </g>
                                    </g>
                                    <g transform="translate(0.000000, 6.530525)">
                                        <g>
                                            <polyline fill="#FFAB00" points="0.633364457 0.637973138 1.3243075 0.637973138 1.3243075 1.62393162"></polyline>
                                            <path d="M1.3243075,2.2039072 C0.978835979,2.2039072 0.748521631,1.97191697 0.748521631,1.62393162 L0.748521631,1.21794872 L0.633364457,1.21794872 C0.287892935,1.21794872 0.057578587,0.985958486 0.057578587,0.637973138 C0.057578587,0.28998779 0.287892935,0.057997558 0.633364457,0.057997558 L1.3243075,0.057997558 C1.66977902,0.057997558 1.90009337,0.28998779 1.90009337,0.637973138 L1.90009337,1.62393162 C1.90009337,1.91391941 1.66977902,2.2039072 1.3243075,2.2039072 L1.3243075,2.2039072 Z" fill="#37474F"></path>
                                        </g>
                                        <g transform="translate(2.303143, 0.000000)">
                                            <polyline fill="#FFAB00" points="0.57578587 0.637973138 1.26672891 0.637973138 1.26672891 1.62393162"></polyline>
                                            <path d="M1.26672891,2.2039072 C0.921257392,2.2039072 0.690943044,1.97191697 0.690943044,1.62393162 L0.690943044,1.21794872 L0.57578587,1.21794872 C0.230314348,1.21794872 0,0.985958486 0,0.637973138 C0,0.28998779 0.230314348,0.057997558 0.57578587,0.057997558 L1.3243075,0.057997558 C1.66977902,0.057997558 1.90009337,0.28998779 1.90009337,0.637973138 L1.90009337,1.62393162 C1.84251478,1.91391941 1.61220044,2.2039072 1.26672891,2.2039072 L1.26672891,2.2039072 Z" fill="#37474F"></path>
                                        </g>
                                    </g>
                                </g>
                            </g>
                            <g id="Shape">
                                <polygon fill="#FFFFFF" points="0.690943044 10.4395604 13.1854964 0.86996337 25.6800498 10.4395604"></polygon>
                                <path d="M25.6800498,11.019536 L25.6800498,11.019536 L0.690943044,11.019536 C0.460628696,11.019536 0.230314348,10.8455433 0.172735761,10.6135531 C0.115157174,10.3815629 0.172735761,10.0915751 0.345471522,9.97557998 L12.8400249,0.405982906 C13.0703392,0.231990232 13.3582322,0.231990232 13.5309679,0.405982906 L25.9679427,9.97557998 C26.1406785,10.0915751 26.2558357,10.2655678 26.2558357,10.497558 C26.2558357,10.7875458 26.0255213,11.019536 25.6800498,11.019536 L25.6800498,11.019536 Z M2.36072207,9.85958486 L23.9526922,9.85958486 L13.1854964,1.56593407 L2.36072207,9.85958486 L2.36072207,9.85958486 Z" fill="#37474F"></path>
                            </g>
                            <g transform="translate(3.880797, 3.909035)" id="Shape">
                                <polygon fill="#78909C" points="2.39526922 6.53052503 9.30469966 1.19474969 16.2141301 6.53052503"></polygon>
                                <path d="M17.9414877,7.11050061 L0.667911609,7.11050061 L9.30469966,0.498778999 L17.9414877,7.11050061 L17.9414877,7.11050061 Z M4.06504824,5.95054945 L14.5443511,5.95054945 L9.30469966,1.94871795 L4.06504824,5.95054945 L4.06504824,5.95054945 Z" fill="#37474F"></path>
                            </g>
                        </g>
                    </g>
                </g>
            </g>
        </g>
    </g>
</svg>