<?xml version="1.0" encoding="UTF-8" standalone="no"?>
<svg width="382px" height="42px" viewBox="0 0 382 42" version="1.1" xmlns="http://www.w3.org/2000/svg" xmlns:xlink="http://www.w3.org/1999/xlink">
    <!-- Generator: Sketch 3.7 (28169) - http://www.bohemiancoding.com/sketch -->
    <title>Logo</title>
    <desc>Created with Sketch.</desc>
    <defs></defs>
    <g id="Page-1" stroke="none" stroke-width="1" fill="none" fill-rule="evenodd">
        <g id="Logo" transform="translate(0.000000, 1.000000)">
            <path d="M19.1570642,10.2505474 L25.4833674,10.2505474 L25.4833674,11.003672 C23.7696906,11.1295778 23.6388016,11.3813894 23.6388016,12.6369822 L23.6388016,23.440624 C23.6388016,25.7023081 25.0882765,26.9579008 26.9328423,26.9579008 C29.173711,26.9579008 30.4922968,25.5764023 30.4922968,23.440624 L30.4922968,12.8887938 C30.4922968,11.6320459 30.0972058,11.1295778 28.51563,11.003672 L28.51563,10.2505474 L33.5233474,10.2505474 L33.5233474,11.003672 C31.9417716,11.1295778 31.5466806,11.6320459 31.5466806,12.8887938 L31.5466806,22.8122501 C31.5466806,25.9529646 30.0972058,27.7121805 26.4056503,27.7121805 C22.8474077,27.7121805 21.133731,25.8270588 21.133731,22.6874994 L21.133731,12.6369822 C21.133731,11.3813894 20.870741,11.1295778 19.1570642,11.003672 L19.1570642,10.2505474" id="Fill-4" fill="#003DA1"></path>
            <path d="M33.1282565,27.3344631 L33.1282565,26.5813385 C34.4456303,26.4554327 34.8419332,26.0788704 34.8419332,25.3245907 L34.8419332,17.5369125 C34.8419332,16.4060705 34.5777313,16.2801647 33.1282565,16.1542589 L33.1282565,15.4011343 L36.950701,15.2752285 L36.950701,17.6616632 C37.7408829,16.2801647 38.6643777,15.1493227 40.5089435,15.1493227 C42.7498123,15.1493227 43.6720952,16.5308212 43.6720952,18.6677546 L43.6720952,25.3245907 C43.6720952,26.2047762 44.0683981,26.4554327 45.3857719,26.5813385 L45.3857719,27.3344631 L41.4324384,27.3344631 L41.4324384,18.4159429 C41.4324384,16.7826328 40.7731455,16.2801647 39.8508626,16.2801647 C38.5322768,16.2801647 37.0828019,18.0393806 37.0828019,20.4258154 L37.0828019,25.3245907 C37.0828019,26.0788704 37.4778929,26.4554327 38.7952668,26.5813385 L38.7952668,27.3344631 L33.1282565,27.3344631" id="Fill-5" fill="#003DA1"></path>
            <path d="M49.8675094,11.5061401 C49.8675094,12.5110764 49.3403174,13.1394503 48.5489235,13.1394503 C47.7587416,13.1394503 47.2315497,12.5110764 47.2315497,11.5061401 C47.2315497,10.6271097 47.7587416,9.99873581 48.5489235,9.99873581 C49.3403174,9.99873581 49.8675094,10.6271097 49.8675094,11.5061401 L49.8675094,11.5061401 Z M45.9129639,27.3344631 L45.9129639,26.5813385 C47.2315497,26.4554327 47.6266406,26.0788704 47.6266406,25.3245907 L47.6266406,17.4110067 C47.6266406,16.2801647 47.2315497,16.1542589 45.9129639,16.0295082 L45.9129639,15.2752285 L49.8675094,15.1493227 L49.8675094,25.3245907 C49.8675094,26.0788704 50.2626003,26.4554327 51.5811861,26.5813385 L51.5811861,27.3344631 L45.9129639,27.3344631 L45.9129639,27.3344631 Z" id="Fill-6" fill="#003DA1"></path>
            <path d="M55.5345197,10.8789213 L55.5345197,15.4011343 L58.6988832,15.4011343 L58.6988832,16.4060705 L55.5345197,16.4060705 L55.5345197,25.19984 C55.5345197,26.2047762 55.9308226,26.7072443 56.7210045,26.7072443 C57.5123984,26.7072443 58.1704794,26.2047762 58.1704794,23.5665298 L58.1704794,22.8122501 L59.0939742,22.8122501 L59.0939742,24.0689979 C59.0939742,26.5813385 58.0395903,27.7121805 56.0617116,27.7121805 C54.3480348,27.7121805 53.293651,26.5813385 53.293651,24.571466 L53.293651,16.4060705 L51.7120752,16.4060705 L51.7120752,15.6517908 C53.5578529,14.8986662 54.6122368,14.0184807 54.7443377,10.8789213 L55.5345197,10.8789213" id="Fill-7" fill="#003DA1"></path>
            <path d="M69.7699139,21.3048458 C69.7699139,17.6616632 67.9241361,15.1493227 65.0251865,15.1493227 C62.1250248,15.1493227 60.0162571,17.6616632 60.0162571,21.4307516 C60.0162571,24.571466 62.1250248,27.7121805 65.4202774,27.7121805 C68.3192271,27.7121805 69.6378129,25.4504965 69.7699139,23.3147182 L68.97852,23.0640617 C68.71553,24.8221226 67.9241361,26.7072443 65.6844794,26.7072443 C63.8387016,26.7072443 62.5201158,24.8221226 62.5201158,21.3048458 L69.7699139,21.3048458 L69.7699139,21.3048458 Z M62.5201158,20.4258154 C62.5201158,17.1591951 63.5744997,15.9036024 65.0251865,15.9036024 C66.3425603,15.9036024 67.1339542,17.1591951 67.1339542,20.4258154 L62.5201158,20.4258154 L62.5201158,20.4258154 Z" id="Fill-8" fill="#003DA1"></path>
            <path d="M76.886399,11.003672 C78.2049848,11.003672 78.6000758,11.2554836 78.6000758,12.2604199 L78.6000758,16.7826328 L78.4691868,16.7826328 C77.9419948,15.7776966 77.150601,15.1493227 75.8332271,15.1493227 C73.1972674,15.1493227 71.0872877,17.787569 71.0872877,21.4307516 C71.0872877,25.3245907 73.1972674,27.7121805 75.5690252,27.7121805 C77.150601,27.7121805 78.0728839,26.8331501 78.6000758,25.5764023 L78.7321768,25.5764023 L78.7321768,27.3344631 L82.2904194,27.2097124 L82.2904194,26.4554327 C81.2372474,26.4554327 80.8409445,26.0788704 80.8409445,24.6973719 L80.8409445,9.99873581 L76.886399,10.2505474 L76.886399,11.003672 L76.886399,11.003672 Z M73.5923584,21.4307516 C73.5923584,17.6616632 74.5146413,16.0295082 75.9641161,16.0295082 C77.5456919,16.0295082 78.6000758,17.9134748 78.6000758,21.4307516 C78.6000758,25.7023081 77.150601,26.8331501 75.8332271,26.8331501 C74.5146413,26.8331501 73.5923584,25.3245907 73.5923584,21.4307516 L73.5923584,21.4307516 Z" id="Fill-9" fill="#003DA1"></path>
            <path d="M82.9497123,27.3344631 L82.9497123,26.5813385 C84.5312881,26.4554327 84.79549,26.2047762 84.79549,24.8221226 L84.79549,12.6369822 C84.79549,11.3813894 84.5312881,11.1295778 82.9497123,11.003672 L82.9497123,10.2505474 L89.2760155,10.2505474 L89.2760155,11.003672 C87.6944397,11.1295778 87.4314497,11.3813894 87.4314497,12.6369822 L87.4314497,17.9134748 L93.0996719,17.9134748 L93.0996719,12.6369822 C93.0996719,11.3813894 92.703369,11.1295778 91.1217932,11.003672 L91.1217932,10.2505474 L97.4480965,10.2505474 L97.4480965,11.003672 C95.8665206,11.1295778 95.6035306,11.3813894 95.6035306,12.6369822 L95.6035306,24.8221226 C95.6035306,26.2047762 95.8665206,26.4554327 97.4480965,26.5813385 L97.4480965,27.3344631 L91.1217932,27.3344631 L91.1217932,26.5813385 C92.703369,26.4554327 93.0996719,26.2047762 93.0996719,24.8221226 L93.0996719,18.7925053 L87.4314497,18.7925053 L87.4314497,24.8221226 C87.4314497,26.2047762 87.6944397,26.4554327 89.2760155,26.5813385 L89.2760155,27.3344631 L82.9497123,27.3344631" id="Fill-10" fill="#003DA1"></path>
            <path d="M107.598056,21.3048458 C107.598056,17.6616632 105.752278,15.1493227 102.852117,15.1493227 C99.9531671,15.1493227 97.8443994,17.6616632 97.8443994,21.4307516 C97.8443994,24.571466 99.9531671,27.7121805 103.24842,27.7121805 C106.147369,27.7121805 107.465955,25.4504965 107.728945,23.3147182 L106.806662,23.0640617 C106.54246,24.8221226 105.752278,26.7072443 103.51141,26.7072443 C101.797733,26.7072443 100.348258,24.8221226 100.348258,21.3048458 L107.598056,21.3048458 L107.598056,21.3048458 Z M100.348258,20.4258154 C100.348258,17.1591951 101.402642,15.9036024 102.852117,15.9036024 C104.302804,15.9036024 105.092985,17.1591951 105.092985,20.4258154 L100.348258,20.4258154 L100.348258,20.4258154 Z" id="Fill-11" fill="#003DA1"></path>
            <path d="M117.877693,23.9430921 C117.877693,25.7023081 117.614703,26.2047762 117.219612,26.2047762 C116.823309,26.2047762 116.560319,25.9529646 116.560319,25.19984 L116.560319,18.2900371 C116.560319,16.4060705 115.505935,15.1493227 112.605774,15.1493227 C110.234016,15.1493227 108.65244,16.5308212 108.65244,18.1641313 C108.65244,19.1690676 109.179632,19.6715357 109.837713,19.6715357 C110.629107,19.6715357 111.156299,19.1690676 111.156299,18.1641313 C111.156299,17.5369125 110.892097,16.9085386 110.101915,16.7826328 C110.629107,16.1542589 111.419289,15.9036024 112.342784,15.9036024 C113.660157,15.9036024 114.31945,16.5308212 114.31945,17.9134748 L114.31945,20.0492531 C112.078582,20.8023777 107.993147,21.9332197 107.993147,24.8221226 C107.993147,26.4554327 109.179632,27.7121805 111.156299,27.7121805 C113.000865,27.7121805 113.792258,26.8331501 114.451551,25.7023081 C114.583652,27.0838066 115.373834,27.7121805 116.560319,27.7121805 C118.141895,27.7121805 118.801188,26.5813385 118.801188,23.9430921 L117.877693,23.9430921 L117.877693,23.9430921 Z M114.31945,22.4356878 C114.31945,25.19984 113.132965,26.7072443 111.815592,26.7072443 C111.024198,26.7072443 110.364905,26.0788704 110.364905,24.6973719 C110.364905,22.5615936 112.210683,21.6825632 114.31945,20.9282835 L114.31945,22.4356878 L114.31945,22.4356878 Z" id="Fill-12" fill="#003DA1"></path>
            <path d="M118.404885,27.3344631 L118.404885,26.5813385 C119.723471,26.4554327 120.118562,26.0788704 120.118562,25.3245907 L120.118562,12.3863257 C120.118562,11.5061401 119.59137,11.003672 118.404885,11.003672 L118.404885,10.1246416 L122.35943,9.99873581 L122.35943,25.3245907 C122.35943,26.0788704 122.754521,26.4554327 124.073107,26.5813385 L124.073107,27.3344631 L118.404885,27.3344631" id="Fill-13" fill="#003DA1"></path>
            <path d="M127.763451,10.8789213 L127.763451,15.4011343 L130.926602,15.4011343 L130.926602,16.4060705 L127.763451,16.4060705 L127.763451,25.19984 C127.763451,26.2047762 128.158542,26.7072443 128.949935,26.7072443 C129.740117,26.7072443 130.39941,26.2047762 130.39941,23.5665298 L130.39941,22.8122501 L131.321693,22.8122501 L131.321693,24.0689979 C131.321693,26.5813385 130.267309,27.7121805 128.290643,27.7121805 C126.576966,27.7121805 125.522582,26.5813385 125.522582,24.571466 L125.522582,16.4060705 L123.941006,16.4060705 L123.941006,15.6517908 C125.786784,14.8986662 126.841168,14.0184807 126.972057,10.8789213 L127.763451,10.8789213" id="Fill-14" fill="#003DA1"></path>
            <path d="M131.190804,27.3344631 L131.190804,26.5813385 C132.508178,26.4554327 132.903269,26.0788704 132.903269,25.3245907 L132.903269,12.2604199 C132.903269,11.2554836 132.508178,11.003672 131.190804,11.003672 L131.190804,10.2505474 L135.144138,9.99873581 L135.144138,17.4110067 C135.67133,16.2801647 136.725714,15.1493227 138.43939,15.1493227 C140.417269,15.1493227 141.734643,16.5308212 141.734643,18.6677546 L141.734643,25.3245907 C141.734643,26.0788704 142.129734,26.4554327 143.316219,26.5813385 L143.316219,27.3344631 L139.493774,27.3344631 L139.493774,18.5418488 C139.493774,16.9085386 138.834481,16.2801647 137.912198,16.2801647 C136.594825,16.2801647 135.144138,17.9134748 135.144138,20.2999096 L135.144138,25.3245907 C135.144138,26.0788704 135.539229,26.4554327 136.857815,26.5813385 L136.857815,27.3344631 L131.190804,27.3344631" id="Fill-15" fill="#003DA1"></path>
            <path d="M153.069875,23.5665298 C152.805674,25.9529646 151.75129,28.0887428 148.85234,28.0887428 C146.084279,28.0887428 143.71131,25.4504965 143.71131,21.6825632 C143.71131,18.6677546 145.952178,15.4011343 149.11533,15.4011343 C151.356199,15.4011343 152.805674,16.7826328 152.805674,18.6677546 C152.805674,19.9233473 152.410583,20.5517212 151.4883,20.5517212 C150.696906,20.5517212 150.169714,19.9233473 150.169714,19.0443169 C150.169714,18.0393806 150.566017,17.5369125 151.224098,17.5369125 C151.4883,17.5369125 151.620401,17.6616632 151.620401,17.6616632 L151.75129,17.6616632 C151.356199,16.656727 150.433916,16.2801647 149.511633,16.2801647 C147.533754,16.2801647 146.21638,18.1641313 146.21638,21.6825632 C146.21638,25.8270588 147.665855,27.0838066 149.11533,27.0838066 C151.224098,27.0838066 152.015492,25.19984 152.279694,23.440624 L153.069875,23.5665298" id="Fill-16" fill="#003DA1"></path>
            <path d="M164.010017,24.3208095 C163.877916,26.0788704 163.745815,26.7072443 163.218623,26.7072443 C162.823532,26.7072443 162.691431,26.3295269 162.691431,25.5764023 L162.691431,18.5418488 C162.691431,16.656727 161.504946,15.4011343 158.605997,15.4011343 C156.233027,15.4011343 154.651451,16.7826328 154.651451,18.5418488 C154.651451,19.546785 155.046542,20.0492531 155.837936,20.0492531 C156.628118,20.0492531 157.15531,19.4208792 157.15531,18.5418488 C157.15531,17.787569 156.89232,17.1591951 156.100926,17.1591951 C156.628118,16.5308212 157.419512,16.2801647 158.341795,16.2801647 C159.660381,16.2801647 160.318462,16.9085386 160.318462,18.2900371 L160.318462,20.2999096 C158.078805,21.1800951 153.992158,22.309782 153.992158,25.19984 C153.992158,26.8331501 155.178643,28.0887428 157.15531,28.0887428 C159.001088,28.0887428 159.79127,27.2097124 160.450563,26.0788704 C160.582664,27.4603689 161.372845,28.0887428 162.55933,28.0887428 C164.273007,28.0887428 164.800199,26.9579008 164.800199,24.3208095 L164.010017,24.3208095 L164.010017,24.3208095 Z M160.318462,22.6874994 C160.318462,25.5764023 159.133189,27.0838066 157.814603,27.0838066 C157.023209,27.0838066 156.365128,26.4554327 156.365128,25.0739342 C156.365128,22.9381559 158.209694,22.0591255 160.318462,21.3048458 L160.318462,22.6874994 L160.318462,22.6874994 Z" id="Fill-17" fill="#003DA1"></path>
            <path d="M165.064401,27.7121805 L165.064401,26.9579008 C166.249674,26.8331501 166.645977,26.4554327 166.645977,25.7023081 L166.645977,18.7925053 C166.645977,17.1591951 166.249674,16.5308212 164.9323,16.5308212 L164.9323,15.7776966 L168.622644,15.5270401 L168.622644,18.5418488 C169.017735,17.1591951 169.940017,15.4011343 171.522805,15.4011343 C172.445088,15.4011343 173.367371,16.1542589 173.367371,17.6616632 C173.367371,18.6677546 172.840179,19.2949734 172.180886,19.2949734 C171.653694,19.2949734 170.995613,18.9184111 170.995613,17.787569 C170.995613,17.1591951 171.390704,16.5308212 172.180886,16.5308212 C172.049997,16.2801647 171.785795,16.2801647 171.390704,16.2801647 C169.677027,16.2801647 168.886845,19.9233473 168.886845,22.0591255 L168.886845,25.7023081 C168.886845,26.4554327 169.281936,26.8331501 171.126502,26.9579008 L171.126502,27.7121805 L165.064401,27.7121805" id="Fill-18" fill="#003DA1"></path>
            <path d="M183.253129,21.6825632 C183.253129,18.0393806 181.407351,15.4011343 178.508401,15.4011343 C175.476139,15.4011343 173.367371,18.0393806 173.367371,21.8073139 C173.367371,24.9480284 175.60824,28.0887428 178.771391,28.0887428 C181.802442,28.0887428 182.988927,25.8270588 183.253129,23.6912805 L182.461735,23.440624 C182.198745,25.19984 181.407351,27.0838066 179.035593,27.0838066 C177.321916,27.0838066 176.003331,25.19984 176.003331,21.6825632 L183.253129,21.6825632 L183.253129,21.6825632 Z M176.003331,20.6764719 C176.003331,17.5369125 176.926825,16.2801647 178.508401,16.2801647 C179.825775,16.2801647 180.617169,17.5369125 180.617169,20.6764719 L176.003331,20.6764719 L176.003331,20.6764719 Z" id="Fill-19" fill="#003DA1"></path>
            <path d="M6.08876387,23.626595 C5.25010452,26.6679709 3.57036194,26.9879334 2.89773774,26.9879334 C1.72337226,26.9879334 0.546582903,26.1874497 0.546582903,21.0668954 L0.546582903,9.06195045 L6.59292903,6.02172962 L6.59292903,17.705557 C6.59292903,19.465928 6.42447,22.3467452 6.08876387,23.626595" id="Fill-20" fill="#003DA1"></path>
            <path d="M13.1422284,17.3855946 C13.1422284,21.5462615 12.6380632,24.4270787 11.6309448,26.3480085 C10.6226145,28.2689383 9.11133097,29.3893844 7.60004742,29.7093468 L5.75305774,29.3893844 C8.27267161,29.3893844 9.78274323,27.1484921 10.4553674,25.8674872 C11.2940268,24.1071162 11.6309448,21.5462615 11.6309448,17.8649607 L11.6309448,3.30031614 L13.1422284,3.62027859 L13.1422284,17.3855946 L13.1422284,17.3855946 Z M4.40902129,28.2689383 C6.76138806,27.9489758 8.10421258,25.3881211 8.43991871,24.267675 C8.94408387,22.507304 9.11133097,20.4258154 9.11133097,18.0255195 L9.11133097,4.74072472 L10.4553674,4.90128349 L10.4553674,17.3855946 C10.4553674,20.4258154 10.2869084,23.1472289 9.61549613,25.0670036 C8.77562484,26.8285297 7.60004742,28.1083795 6.08876387,28.4283419 L4.40902129,28.2689383 L4.40902129,28.2689383 Z M6.59292903,6.02172962 L7.93575355,6.18113329 L7.93575355,16.9050733 C7.93575355,19.7858905 7.76850645,22.1873415 7.43280032,23.7871538 C6.76138806,26.028046 5.41735161,26.9879334 4.57748032,27.3090509 L2.89773774,26.9879334 L2.56203161,26.9879334 C2.73049065,27.6290134 3.23465581,28.1083795 3.90606806,28.2689383 C4.07331516,28.7494595 4.57748032,29.2288256 5.25010452,29.3893844 C5.75305774,30.1898681 6.42447,30.5098305 7.43280032,30.5098305 C8.60837774,30.6692342 9.4470371,30.1898681 10.4553674,29.5487881 C13.3094755,27.6290134 14.3178058,23.3066325 14.3178058,17.5449982 L14.3178058,2.01931124 L6.59292903,6.02172962 L6.59292903,6.02172962 Z" id="Fill-21" fill="#003DA1"></path>
            <path d="M184.438402,13.1394503 L184.966805,13.1394503 C185.229795,13.1394503 185.361896,13.3912619 185.361896,13.5171677 C185.361896,13.7678242 185.229795,13.89373 184.966805,13.89373 L184.438402,13.89373 L184.438402,13.1394503 L184.438402,13.1394503 Z M184.438402,14.1443865 L184.834705,14.1443865 C184.966805,14.1443865 185.229795,14.1443865 185.229795,14.3961981 C185.229795,14.7727604 185.229795,15.0234169 185.361896,15.1493227 L185.756987,15.1493227 C185.624886,15.0234169 185.624886,14.6468546 185.624886,14.6468546 C185.624886,14.1443865 185.493997,14.0184807 185.229795,14.0184807 C185.493997,14.0184807 185.756987,13.7678242 185.756987,13.5171677 C185.756987,13.2653561 185.493997,12.8887938 185.097695,12.8887938 L184.175412,12.8887938 L184.175412,15.1493227 L184.438402,15.1493227 L184.438402,14.1443865 L184.438402,14.1443865 Z M184.834705,12.134514 C183.780321,12.134514 182.856826,13.0146996 182.856826,14.0184807 C182.856826,15.1493227 183.780321,16.0295082 184.834705,16.0295082 C186.021189,16.0295082 186.943472,15.1493227 186.943472,14.0184807 C186.943472,13.0146996 186.021189,12.134514 184.834705,12.134514 L184.834705,12.134514 Z M184.834705,12.3863257 C185.889088,12.3863257 186.680482,13.1394503 186.680482,14.0184807 C186.680482,15.0234169 185.889088,15.7776966 184.834705,15.7776966 C183.912422,15.7776966 183.121028,15.0234169 183.121028,14.0184807 C183.121028,13.1394503 183.912422,12.3863257 184.834705,12.3863257 L184.834705,12.3863257 Z" id="Fill-22" fill="#003DA1"></path>
            <path d="M239.54116,17.8031593 C239.44246,15.1185193 237.6856,13.6380193 234.58642,13.6380193 C231.72412,13.6380193 229.94752,15.0790393 229.94752,17.4083593 C229.94752,18.5730193 230.42128,19.4613193 231.30958,19.9942993 C231.94126,20.3890993 232.17814,20.4483193 234.50746,21.0010393 C236.14588,21.3760993 236.42224,21.4550593 236.91574,21.6919393 C237.92248,22.1459593 238.29754,22.6591993 238.29754,23.5277593 C238.29754,25.0279993 237.0934,25.9162993 235.06018,25.9162993 C232.57294,25.9162993 231.23062,24.8305993 231.1714,22.7578993 L229.4935,22.7578993 C229.51324,25.6991593 231.50698,27.3967993 234.94174,27.3967993 C236.56042,27.3967993 237.70534,27.0809593 238.59364,26.4097993 C239.54116,25.6596793 240.0544,24.6134593 240.0544,23.4093193 C240.0544,22.2446593 239.52142,21.2773993 238.4752,20.6259793 C237.80404,20.1719593 236.97496,19.9153393 235.19836,19.5205393 C233.38228,19.1454793 232.90852,18.9875593 232.31632,18.6519793 C231.88204,18.3953593 231.62542,17.9215993 231.62542,17.3096593 C231.62542,15.9278593 232.71112,15.1185193 234.58642,15.1185193 C236.63938,15.1185193 237.64612,15.9475993 237.86326,17.8031593 L239.54116,17.8031593 Z M246.07848,17.5662793 L244.1637,17.5662793 L244.1637,14.7237193 L242.60424,14.7237193 L242.60424,17.5662793 L241.0053,17.5662793 L241.0053,18.8493793 L242.60424,18.8493793 L242.60424,23.6067193 C242.60424,25.8175993 242.62398,26.1136993 242.8806,26.5084993 C243.19644,27.0217393 243.80838,27.2586193 244.8546,27.2586193 C245.30862,27.2586193 245.62446,27.2388793 246.07848,27.1796593 L246.07848,25.8373393 C245.7429,25.9162993 245.52576,25.9557793 245.22966,25.9557793 C244.32162,25.9557793 244.1637,25.7386393 244.1637,24.4752793 L244.1637,18.8493793 L246.07848,18.8493793 L246.07848,17.5662793 Z M255.75446,17.5662793 L254.195,17.5662793 L254.195,22.1854393 C254.195,23.5080193 254.0963,24.1199593 253.81994,24.6529393 C253.32644,25.5412393 252.45788,26.0544793 251.4314,26.0544793 C250.62206,26.0544793 249.99038,25.7583793 249.67454,25.2648793 C249.43766,24.8898193 249.3587,24.3765793 249.3587,23.1921793 L249.3587,17.5662793 L247.79924,17.5662793 L247.79924,23.7448993 C247.79924,25.0477393 247.9769,25.7781193 248.43092,26.3308393 C248.98364,27.0217393 249.87194,27.3770593 250.97738,27.3770593 C252.4184,27.3770593 253.58306,26.7453793 254.2937,25.6201993 L254.2937,27.1006993 L255.75446,27.1006993 L255.75446,17.5662793 Z M266.95042,13.9341193 L265.39096,13.9341193 L265.39096,18.8888593 C264.8185,17.8623793 263.69332,17.2899193 262.23256,17.2899193 C261.02842,17.2899193 259.90324,17.7834193 259.13338,18.6519793 C258.34378,19.5402793 257.94898,20.7444193 257.94898,22.3236193 C257.94898,25.4227993 259.64662,27.3770593 262.351,27.3770593 C263.81176,27.3770593 264.97642,26.7453793 265.46992,25.6991593 L265.46992,27.1006993 L266.95042,27.1006993 L266.95042,13.9341193 Z M262.50892,18.6124993 C263.27878,18.6124993 264.0289,18.9283393 264.54214,19.4810593 C265.15408,20.1324793 265.43044,21.0405193 265.43044,22.3630993 C265.43044,24.6726793 264.325,26.0544793 262.50892,26.0544793 C260.71258,26.0544793 259.54792,24.5739793 259.54792,22.2841393 C259.54792,20.0140393 260.6731,18.6124993 262.50892,18.6124993 L262.50892,18.6124993 Z M276.29082,24.0409993 C275.8368,25.4622793 275.08668,26.0544793 273.7641,26.0544793 C271.82958,26.0544793 270.82284,24.9490393 270.76362,22.7184193 L277.92924,22.7184193 C277.94898,21.4155793 277.8108,20.5470193 277.47522,19.7771593 C276.80406,18.2176993 275.3433,17.2899193 273.60618,17.2899193 C271.0005,17.2899193 269.14494,19.4020993 269.14494,22.3828393 C269.14494,25.4622793 270.86232,27.3770593 273.6654,27.3770593 C275.9355,27.3770593 277.3173,26.2716193 277.83054,24.0409993 L276.29082,24.0409993 Z M270.78336,21.4353193 C271.02024,19.5797593 271.9875,18.5927593 273.5667,18.5927593 C275.1459,18.5927593 276.17238,19.6587193 276.31056,21.4353193 L270.78336,21.4353193 Z M281.485821,17.5662793 L280.025061,17.5662793 L280.025061,27.1006993 L281.584521,27.1006993 L281.584521,22.4815393 C281.584521,21.2181793 281.663481,20.6062393 281.920101,20.0535193 C282.314901,19.1652193 283.222941,18.6124993 284.308641,18.6124993 C285.098241,18.6124993 285.729921,18.9085993 286.065501,19.4020993 C286.302381,19.7771593 286.381341,20.2311793 286.381341,21.4945393 L286.381341,27.1006993 L287.940801,27.1006993 L287.940801,20.9418193 C287.940801,19.7771593 287.842101,19.2244393 287.546001,18.6717193 C287.072241,17.8031593 286.065501,17.2899193 284.802141,17.2899193 C283.321641,17.2899193 282.314901,17.8228993 281.485821,19.0467793 L281.485821,17.5662793 Z M294.300461,17.5662793 L292.385681,17.5662793 L292.385681,14.7237193 L290.826221,14.7237193 L290.826221,17.5662793 L289.227281,17.5662793 L289.227281,18.8493793 L290.826221,18.8493793 L290.826221,23.6067193 C290.826221,25.8175993 290.845961,26.1136993 291.102581,26.5084993 C291.418421,27.0217393 292.030361,27.2586193 293.076581,27.2586193 C293.530601,27.2586193 293.846441,27.2388793 294.300461,27.1796593 L294.300461,25.8373393 C293.964881,25.9162993 293.747741,25.9557793 293.451641,25.9557793 C292.543601,25.9557793 292.385681,25.7386393 292.385681,24.4752793 L292.385681,18.8493793 L294.300461,18.8493793 L294.300461,17.5662793 Z M296.475241,13.9341193 L296.475241,27.1006993 L297.284581,27.1006993 L297.284581,21.0602593 L301.370761,21.0602593 C304.430461,21.0799993 305.101621,21.7708993 305.160841,25.0674793 C305.200321,26.3110993 305.279281,26.8638193 305.437201,27.1006993 L306.325501,27.1006993 L306.226801,26.9230393 C306.068881,26.6269393 305.950441,25.8768193 305.930701,24.9095593 C305.812261,22.6394593 305.733301,22.2446593 305.141101,21.5340193 C304.667341,21.0602593 304.173841,20.8431193 303.305281,20.7246793 C305.081881,20.3693593 306.108361,19.1652193 306.108361,17.4280993 C306.108361,16.1647393 305.595121,15.1579993 304.647601,14.5460593 C303.976441,14.1117793 303.147361,13.9341193 301.903741,13.9341193 L296.475241,13.9341193 Z M297.284581,14.6250193 L301.647121,14.6250193 C302.792041,14.6250193 303.522421,14.7829393 304.094881,15.1382593 C304.904221,15.6317593 305.299021,16.4213593 305.299021,17.4675793 C305.299021,18.5137993 304.864741,19.3428793 304.035661,19.8363793 C303.423721,20.2114393 302.574901,20.3693593 301.252321,20.3693593 L297.284581,20.3693593 L297.284581,14.6250193 Z M315.80303,23.8633393 C315.44771,25.6794193 314.26331,26.7256393 312.52619,26.7256393 C310.31531,26.7256393 308.99273,25.1464393 308.97299,22.4815393 L316.65185,22.4815393 C316.65185,21.1984393 316.49393,20.3693593 316.09913,19.5994993 C315.38849,18.1782193 314.08565,17.3688793 312.50645,17.3688793 C309.95999,17.3688793 308.20313,19.4415793 308.20313,22.4420593 C308.20313,25.4425393 309.90077,27.3770593 312.52619,27.3770593 C314.67785,27.3770593 316.15835,26.0742193 316.55315,23.8633393 L315.80303,23.8633393 Z M308.97299,21.8301193 C309.09143,20.8036393 309.22961,20.2706593 309.60467,19.6389793 C310.19687,18.6322393 311.30231,18.0202993 312.50645,18.0202993 C313.65137,18.0202993 314.65811,18.5730193 315.27005,19.5402793 C315.68459,20.1916993 315.84251,20.7641593 315.88199,21.8301193 L308.97299,21.8301193 Z M325.418739,20.3890993 C325.339779,19.4218393 325.181859,18.9283393 324.747579,18.4348393 C324.135639,17.7439393 323.128899,17.3688793 321.826059,17.3688793 C319.694139,17.3688793 318.411039,18.3361393 318.411039,19.9548193 C318.411039,20.7444193 318.805839,21.4155793 319.457259,21.7708993 C319.970499,22.0472593 320.463999,22.2051793 322.023459,22.5604993 C324.273819,23.0737393 324.964719,23.5672393 324.964719,24.6134593 C324.964719,25.8768193 323.780319,26.7256393 321.983979,26.7256393 C320.799579,26.7256393 319.812579,26.3110993 319.299339,25.6004593 C318.983499,25.1661793 318.865059,24.7516393 318.845319,23.9225593 L318.095199,23.9225593 C318.134679,26.1729193 319.496739,27.3770593 321.983979,27.3770593 C324.214599,27.3770593 325.714839,26.2518793 325.714839,24.5937193 C325.714839,23.7646393 325.300299,23.0539993 324.609399,22.6591993 C324.056679,22.3433593 323.464479,22.1459593 322.181379,21.8695993 C320.385039,21.4550593 319.891539,21.2773993 319.476999,20.8431193 C319.279599,20.6259793 319.161159,20.2706593 319.161159,19.9153393 C319.161159,18.7309393 320.128419,18.0202993 321.766839,18.0202993 C323.622399,18.0202993 324.510699,18.7506793 324.648879,20.3890993 L325.418739,20.3890993 Z M331.797088,17.3688793 C329.092708,17.3688793 327.335848,19.3428793 327.335848,22.3828393 C327.335848,25.4030593 329.053228,27.3770593 331.718128,27.3770593 C334.402768,27.3770593 336.100408,25.4425393 336.100408,22.4223193 C336.100408,19.3823593 334.383028,17.3688793 331.797088,17.3688793 L331.797088,17.3688793 Z M331.777348,18.0202993 C333.909268,18.0202993 335.350288,19.7968993 335.350288,22.4223193 C335.350288,25.0279993 333.929008,26.7256393 331.737868,26.7256393 C329.526988,26.7256393 328.085968,25.0279993 328.085968,22.3828393 C328.085968,19.7376793 329.526988,18.0202993 331.777348,18.0202993 L331.777348,18.0202993 Z M345.913518,17.6452393 L345.163398,17.6452393 L345.163398,22.7776393 C345.163398,25.2056593 343.900038,26.7453793 341.945778,26.7453793 C340.840338,26.7453793 339.892818,26.2123993 339.517758,25.3833193 C339.261138,24.8700793 339.201918,24.3963193 339.201918,23.2908793 L339.201918,17.6452393 L338.451798,17.6452393 L338.451798,23.7448993 C338.451798,26.0939593 339.636198,27.3770593 341.787858,27.3770593 C343.406538,27.3770593 344.511978,26.6269393 345.183138,25.1069593 L345.183138,27.1006993 L345.913518,27.1006993 L345.913518,17.6452393 Z M353.417047,17.5662793 C351.561487,17.5267993 350.298127,18.4150993 349.745407,20.1324793 L349.745407,17.6452393 L348.995287,17.6452393 L348.995287,27.1006993 L349.765147,27.1006993 L349.765147,23.0145193 C349.765147,21.1589593 349.942807,20.4088393 350.535007,19.5994993 C351.166687,18.7704193 352.074727,18.3163993 353.140687,18.3163993 L353.417047,18.3163993 L353.417047,17.5662793 Z M361.414076,23.7646393 C361.157456,25.6004593 359.913836,26.7256393 358.097756,26.7256393 C355.946096,26.7256393 354.524816,24.9885193 354.524816,22.3828393 C354.524816,19.7179393 355.965836,18.0202993 358.216196,18.0202993 C359.913836,18.0202993 360.999536,18.9085993 361.315376,20.5470193 L362.085236,20.5470193 C361.828616,18.5532793 360.407336,17.3688793 358.216196,17.3688793 C355.511816,17.3688793 353.774696,19.3428793 353.774696,22.4025793 C353.774696,23.6264593 354.070796,24.7318993 354.643256,25.6004593 C355.452596,26.7848593 356.577776,27.3770593 358.137236,27.3770593 C360.367856,27.3770593 361.848356,26.0544793 362.164196,23.7646393 L361.414076,23.7646393 Z M371.325885,23.8633393 C370.970565,25.6794193 369.786165,26.7256393 368.049045,26.7256393 C365.838165,26.7256393 364.515585,25.1464393 364.495845,22.4815393 L372.174705,22.4815393 C372.174705,21.1984393 372.016785,20.3693593 371.621985,19.5994993 C370.911345,18.1782193 369.608505,17.3688793 368.029305,17.3688793 C365.482845,17.3688793 363.725985,19.4415793 363.725985,22.4420593 C363.725985,25.4425393 365.423625,27.3770593 368.049045,27.3770593 C370.200705,27.3770593 371.681205,26.0742193 372.076005,23.8633393 L371.325885,23.8633393 Z M364.495845,21.8301193 C364.614285,20.8036393 364.752465,20.2706593 365.127525,19.6389793 C365.719725,18.6322393 366.825165,18.0202993 368.029305,18.0202993 C369.174225,18.0202993 370.180965,18.5730193 370.792905,19.5402793 C371.207445,20.1916993 371.365365,20.7641593 371.404845,21.8301193 L364.495845,21.8301193 Z M380.941595,20.3890993 C380.862635,19.4218393 380.704715,18.9283393 380.270435,18.4348393 C379.658495,17.7439393 378.651755,17.3688793 377.348915,17.3688793 C375.216995,17.3688793 373.933895,18.3361393 373.933895,19.9548193 C373.933895,20.7444193 374.328695,21.4155793 374.980115,21.7708993 C375.493355,22.0472593 375.986855,22.2051793 377.546315,22.5604993 C379.796675,23.0737393 380.487575,23.5672393 380.487575,24.6134593 C380.487575,25.8768193 379.303175,26.7256393 377.506835,26.7256393 C376.322435,26.7256393 375.335435,26.3110993 374.822195,25.6004593 C374.506355,25.1661793 374.387915,24.7516393 374.368175,23.9225593 L373.618055,23.9225593 C373.657535,26.1729193 375.019595,27.3770593 377.506835,27.3770593 C379.737455,27.3770593 381.237695,26.2518793 381.237695,24.5937193 C381.237695,23.7646393 380.823155,23.0539993 380.132255,22.6591993 C379.579535,22.3433593 378.987335,22.1459593 377.704235,21.8695993 C375.907895,21.4550593 375.414395,21.2773993 374.999855,20.8431193 C374.802455,20.6259793 374.684015,20.2706593 374.684015,19.9153393 C374.684015,18.7309393 375.651275,18.0202993 377.289695,18.0202993 C379.145255,18.0202993 380.033555,18.7506793 380.171735,20.3890993 L380.941595,20.3890993 Z" id="StudentResources" fill="#003DA1"></path>
            <path d="M208,-2.44249065e-15 L208,40" id="Line" stroke="#003DA1" stroke-width="0.5" stroke-linecap="square"></path>
        </g>
    </g>
</svg>