<?xml version="1.0" encoding="UTF-8" standalone="no"?>
<svg width="245px" height="40px" viewBox="0 0 245 40" version="1.1" xmlns="http://www.w3.org/2000/svg" xmlns:xlink="http://www.w3.org/1999/xlink">
    <!-- Generator: sketchtool 3.6 (26304) - http://www.bohemiancoding.com/sketch -->
    <title>UnitedHealthcare</title>
    <desc>Created with sketchtool.</desc>
    <defs></defs>
    <g id="Mobile-Login" stroke="none" stroke-width="1" fill="none" fill-rule="evenodd">
        <g id="Student-Login" transform="translate(-40.000000, -80.000000)">
            <g id="BG-&amp;-Title" transform="translate(0.000000, 1.000000)" fill="#FFFFFF">
                <rect id="BG" x="0" y="0" width="320" height="568"></rect>
            </g>
            <g id="UnitedHealthcare" transform="translate(40.000000, 80.000000)" fill="#003DA1">
                <path d="M25.0988274,11.5936 L33.3872996,11.5936 L33.3872996,12.6368 C31.1421081,12.8112 30.9706224,13.16 30.9706224,14.8992 L30.9706224,29.864 C30.9706224,32.9968 32.869667,34.736 35.2863441,34.736 C38.2222416,34.736 39.9498006,32.8224 39.9498006,29.864 L39.9498006,15.248 C39.9498006,13.5072 39.432168,12.8112 37.36005,12.6368 L37.36005,11.5936 L43.9209632,11.5936 L43.9209632,12.6368 C41.8488452,12.8112 41.3312126,13.5072 41.3312126,15.248 L41.3312126,28.9936 C41.3312126,33.344 39.432168,35.7808 34.5956381,35.7808 C29.9337695,35.7808 27.688578,33.1696 27.688578,28.8208 L27.688578,14.8992 C27.688578,13.16 27.3440189,12.8112 25.0988274,12.6368 L25.0988274,11.5936" id="Fill-4"></path>
                <path d="M43.4033306,35.2576 L43.4033306,34.2144 C45.1293018,34.04 45.6485221,33.5184 45.6485221,32.4736 L45.6485221,21.6864 C45.6485221,20.12 45.3023752,19.9456 43.4033306,19.7712 L43.4033306,18.728 L48.4113462,18.5536 L48.4113462,21.8592 C49.4466113,19.9456 50.6565377,18.3792 53.0732148,18.3792 C56.0091123,18.3792 57.2174509,20.2928 57.2174509,23.2528 L57.2174509,32.4736 C57.2174509,33.6928 57.7366713,34.04 59.4626424,34.2144 L59.4626424,35.2576 L54.2831412,35.2576 L54.2831412,22.904 C54.2831412,20.6416 53.4193617,19.9456 52.2110232,19.9456 C50.4834642,19.9456 48.5844196,22.3824 48.5844196,25.688 L48.5844196,32.4736 C48.5844196,33.5184 49.1020522,34.04 50.8280233,34.2144 L50.8280233,35.2576 L43.4033306,35.2576" id="Fill-5"></path>
                <path d="M65.3344374,13.3328 C65.3344374,14.7248 64.6437314,15.5952 63.6068784,15.5952 C62.5716133,15.5952 61.8809073,14.7248 61.8809073,13.3328 C61.8809073,12.1152 62.5716133,11.2448 63.6068784,11.2448 C64.6437314,11.2448 65.3344374,12.1152 65.3344374,13.3328 L65.3344374,13.3328 Z M60.1533484,35.2576 L60.1533484,34.2144 C61.8809073,34.04 62.3985399,33.5184 62.3985399,32.4736 L62.3985399,21.512 C62.3985399,19.9456 61.8809073,19.7712 60.1533484,19.5984 L60.1533484,18.5536 L65.3344374,18.3792 L65.3344374,32.4736 C65.3344374,33.5184 65.8520699,34.04 67.5796289,34.2144 L67.5796289,35.2576 L60.1533484,35.2576 L60.1533484,35.2576 Z" id="Fill-6"></path>
                <path d="M72.7591301,12.464 L72.7591301,18.728 L76.904954,18.728 L76.904954,20.12 L72.7591301,20.12 L72.7591301,32.3008 C72.7591301,33.6928 73.2783504,34.3888 74.3136155,34.3888 C75.3504685,34.3888 76.2126601,33.6928 76.2126601,30.0384 L76.2126601,28.9936 L77.4225865,28.9936 L77.4225865,30.7344 C77.4225865,34.2144 76.0411745,35.7808 73.4498361,35.7808 C71.2046446,35.7808 69.8232326,34.2144 69.8232326,31.4304 L69.8232326,20.12 L67.7511145,20.12 L67.7511145,19.0752 C70.1693795,18.032 71.5507915,16.8128 71.723865,12.464 L72.7591301,12.464" id="Fill-7"></path>
                <path d="M91.4097802,26.9056 C91.4097802,21.8592 88.9915152,18.3792 85.1934261,18.3792 C81.3937491,18.3792 78.6309251,21.8592 78.6309251,27.08 C78.6309251,31.4304 81.3937491,35.7808 85.7110587,35.7808 C89.5091478,35.7808 91.2367067,32.648 91.4097802,29.6896 L90.3729273,29.3424 C90.0283682,31.7776 88.9915152,34.3888 86.0572056,34.3888 C83.6389406,34.3888 81.9113817,31.7776 81.9113817,26.9056 L91.4097802,26.9056 L91.4097802,26.9056 Z M81.9113817,25.688 C81.9113817,21.1632 83.2927937,19.424 85.1934261,19.424 C86.9193972,19.424 87.9562501,21.1632 87.9562501,25.688 L81.9113817,25.688 L81.9113817,25.688 Z" id="Fill-8"></path>
                <path d="M100.733517,12.6368 C102.461076,12.6368 102.978709,12.9856 102.978709,14.3776 L102.978709,20.6416 L102.807223,20.6416 C102.116517,19.2496 101.079664,18.3792 99.3536933,18.3792 C95.9001632,18.3792 93.1357513,22.0336 93.1357513,27.08 C93.1357513,32.4736 95.9001632,35.7808 99.0075463,35.7808 C101.079664,35.7808 102.288003,34.5632 102.978709,32.8224 L103.151782,32.8224 L103.151782,35.2576 L107.813651,35.0848 L107.813651,34.04 C106.433827,34.04 105.914606,33.5184 105.914606,31.6048 L105.914606,11.2448 L100.733517,11.5936 L100.733517,12.6368 L100.733517,12.6368 Z M96.4177957,27.08 C96.4177957,21.8592 97.6261343,19.5984 99.5251789,19.5984 C101.597297,19.5984 102.978709,22.208 102.978709,27.08 C102.978709,32.9968 101.079664,34.5632 99.3536933,34.5632 C97.6261343,34.5632 96.4177957,32.4736 96.4177957,27.08 L96.4177957,27.08 Z" id="Fill-9"></path>
                <path d="M108.67743,35.2576 L108.67743,34.2144 C110.749549,34.04 111.095695,33.6928 111.095695,31.7776 L111.095695,14.8992 C111.095695,13.16 110.749549,12.8112 108.67743,12.6368 L108.67743,11.5936 L116.965903,11.5936 L116.965903,12.6368 C114.893785,12.8112 114.549226,13.16 114.549226,14.8992 L114.549226,22.208 L121.975506,22.208 L121.975506,14.8992 C121.975506,13.16 121.456286,12.8112 119.384168,12.6368 L119.384168,11.5936 L127.67264,11.5936 L127.67264,12.6368 C125.600522,12.8112 125.255963,13.16 125.255963,14.8992 L125.255963,31.7776 C125.255963,33.6928 125.600522,34.04 127.67264,34.2144 L127.67264,35.2576 L119.384168,35.2576 L119.384168,34.2144 C121.456286,34.04 121.975506,33.6928 121.975506,31.7776 L121.975506,23.4256 L114.549226,23.4256 L114.549226,31.7776 C114.549226,33.6928 114.893785,34.04 116.965903,34.2144 L116.965903,35.2576 L108.67743,35.2576" id="Fill-10"></path>
                <path d="M140.970715,26.9056 C140.970715,21.8592 138.55245,18.3792 134.752773,18.3792 C130.954684,18.3792 128.19186,21.8592 128.19186,27.08 C128.19186,31.4304 130.954684,35.7808 135.271994,35.7808 C139.070083,35.7808 140.797642,32.648 141.142201,29.6896 L139.933862,29.3424 C139.587715,31.7776 138.55245,34.3888 135.616553,34.3888 C133.371361,34.3888 131.472317,31.7776 131.472317,26.9056 L140.970715,26.9056 L140.970715,26.9056 Z M131.472317,25.688 C131.472317,21.1632 132.853729,19.424 134.752773,19.424 C136.653406,19.424 137.688671,21.1632 137.688671,25.688 L131.472317,25.688 L131.472317,25.688 Z" id="Fill-11"></path>
                <path d="M154.438689,30.56 C154.438689,32.9968 154.094129,33.6928 153.576497,33.6928 C153.057277,33.6928 152.712717,33.344 152.712717,32.3008 L152.712717,22.7296 C152.712717,20.12 151.331305,18.3792 147.531628,18.3792 C144.424245,18.3792 142.352127,20.2928 142.352127,22.5552 C142.352127,23.9472 143.042833,24.6432 143.905025,24.6432 C144.941878,24.6432 145.632584,23.9472 145.632584,22.5552 C145.632584,21.6864 145.286437,20.816 144.251172,20.6416 C144.941878,19.7712 145.977143,19.424 147.187069,19.424 C148.91304,19.424 149.77682,20.2928 149.77682,22.208 L149.77682,25.1664 C146.840922,26.2096 141.488348,27.776 141.488348,31.7776 C141.488348,34.04 143.042833,35.7808 145.632584,35.7808 C148.049261,35.7808 149.086114,34.5632 149.949893,32.9968 C150.122967,34.9104 151.158232,35.7808 152.712717,35.7808 C154.784835,35.7808 155.648615,34.2144 155.648615,30.56 L154.438689,30.56 L154.438689,30.56 Z M149.77682,28.472 C149.77682,32.3008 148.222334,34.3888 146.496363,34.3888 C145.45951,34.3888 144.595731,33.5184 144.595731,31.6048 C144.595731,28.6464 147.013996,27.4288 149.77682,26.384 L149.77682,28.472 L149.77682,28.472 Z" id="Fill-12"></path>
                <path d="M155.129395,35.2576 L155.129395,34.2144 C156.856954,34.04 157.374586,33.5184 157.374586,32.4736 L157.374586,14.552 C157.374586,13.3328 156.68388,12.6368 155.129395,12.6368 L155.129395,11.4192 L160.310484,11.2448 L160.310484,32.4736 C160.310484,33.5184 160.828116,34.04 162.555675,34.2144 L162.555675,35.2576 L155.129395,35.2576" id="Fill-13"></path>
                <path d="M167.390617,12.464 L167.390617,18.728 L171.534853,18.728 L171.534853,20.12 L167.390617,20.12 L167.390617,32.3008 C167.390617,33.6928 167.90825,34.3888 168.945103,34.3888 C169.980368,34.3888 170.844147,33.6928 170.844147,30.0384 L170.844147,28.9936 L172.052486,28.9936 L172.052486,30.7344 C172.052486,34.2144 170.671074,35.7808 168.081323,35.7808 C165.836132,35.7808 164.45472,34.2144 164.45472,31.4304 L164.45472,20.12 L162.382602,20.12 L162.382602,19.0752 C164.800867,18.032 166.182279,16.8128 166.353764,12.464 L167.390617,12.464" id="Fill-14"></path>
                <path d="M171.881,35.2576 L171.881,34.2144 C173.606971,34.04 174.124604,33.5184 174.124604,32.4736 L174.124604,14.3776 C174.124604,12.9856 173.606971,12.6368 171.881,12.6368 L171.881,11.5936 L177.060501,11.2448 L177.060501,21.512 C177.751207,19.9456 179.132619,18.3792 181.377811,18.3792 C183.969149,18.3792 185.69512,20.2928 185.69512,23.2528 L185.69512,32.4736 C185.69512,33.5184 186.212753,34.04 187.767238,34.2144 L187.767238,35.2576 L182.759223,35.2576 L182.759223,23.0784 C182.759223,20.816 181.895443,19.9456 180.687105,19.9456 C178.961134,19.9456 177.060501,22.208 177.060501,25.5136 L177.060501,32.4736 C177.060501,33.5184 177.578134,34.04 179.305693,34.2144 L179.305693,35.2576 L171.881,35.2576" id="Fill-15"></path>
                <path d="M200.546094,30.0384 C200.199947,33.344 198.818535,36.3024 195.020445,36.3024 C191.393842,36.3024 188.284871,32.648 188.284871,27.4288 C188.284871,23.2528 191.220768,18.728 195.365005,18.728 C198.300902,18.728 200.199947,20.6416 200.199947,23.2528 C200.199947,24.992 199.682314,25.8624 198.473976,25.8624 C197.437123,25.8624 196.746417,24.992 196.746417,23.7744 C196.746417,22.3824 197.265637,21.6864 198.127829,21.6864 C198.473976,21.6864 198.647049,21.8592 198.647049,21.8592 L198.818535,21.8592 C198.300902,20.4672 197.092563,19.9456 195.884225,19.9456 C193.292887,19.9456 191.566915,22.5552 191.566915,27.4288 C191.566915,33.1696 193.46596,34.9104 195.365005,34.9104 C198.127829,34.9104 199.164682,32.3008 199.510828,29.864 L200.546094,30.0384" id="Fill-16"></path>
                <path d="M214.879434,31.0832 C214.706361,33.5184 214.533287,34.3888 213.842581,34.3888 C213.324949,34.3888 213.151875,33.8656 213.151875,32.8224 L213.151875,23.0784 C213.151875,20.4672 211.59739,18.728 207.799301,18.728 C204.69033,18.728 202.618212,20.6416 202.618212,23.0784 C202.618212,24.4704 203.135844,25.1664 204.172697,25.1664 C205.207962,25.1664 205.898668,24.296 205.898668,23.0784 C205.898668,22.0336 205.554109,21.1632 204.517256,21.1632 C205.207962,20.2928 206.244815,19.9456 207.453154,19.9456 C209.180713,19.9456 210.042904,20.816 210.042904,22.7296 L210.042904,25.5136 C207.108595,26.7328 201.754432,28.2976 201.754432,32.3008 C201.754432,34.5632 203.308918,36.3024 205.898668,36.3024 C208.316933,36.3024 209.352198,35.0848 210.215978,33.5184 C210.389051,35.432 211.424316,36.3024 212.978802,36.3024 C215.223993,36.3024 215.914699,34.736 215.914699,31.0832 L214.879434,31.0832 L214.879434,31.0832 Z M210.042904,28.8208 C210.042904,32.8224 208.490007,34.9104 206.762448,34.9104 C205.725595,34.9104 204.863403,34.04 204.863403,32.1264 C204.863403,29.168 207.28008,27.9504 210.042904,26.9056 L210.042904,28.8208 L210.042904,28.8208 Z" id="Fill-17"></path>
                <path d="M216.260846,35.7808 L216.260846,34.736 C217.813744,34.5632 218.332964,34.04 218.332964,32.9968 L218.332964,23.4256 C218.332964,21.1632 217.813744,20.2928 216.087773,20.2928 L216.087773,19.2496 L220.922715,18.9024 L220.922715,23.0784 C221.440347,21.1632 222.648686,18.728 224.722392,18.728 C225.93073,18.728 227.139069,19.7712 227.139069,21.8592 C227.139069,23.2528 226.448363,24.1216 225.584583,24.1216 C224.893877,24.1216 224.031686,23.6 224.031686,22.0336 C224.031686,21.1632 224.549318,20.2928 225.584583,20.2928 C225.413098,19.9456 225.066951,19.9456 224.549318,19.9456 C222.304127,19.9456 221.268862,24.992 221.268862,27.9504 L221.268862,32.9968 C221.268862,34.04 221.786494,34.5632 224.203171,34.736 L224.203171,35.7808 L216.260846,35.7808" id="Fill-18"></path>
                <path d="M240.090998,27.4288 C240.090998,22.3824 237.672733,18.728 233.874643,18.728 C229.901893,18.728 227.139069,22.3824 227.139069,27.6016 C227.139069,31.952 230.074966,36.3024 234.219202,36.3024 C238.190365,36.3024 239.744851,33.1696 240.090998,30.2112 L239.054145,29.864 C238.709585,32.3008 237.672733,34.9104 234.565349,34.9104 C232.320158,34.9104 230.592599,32.3008 230.592599,27.4288 L240.090998,27.4288 L240.090998,27.4288 Z M230.592599,26.0352 C230.592599,21.6864 231.802525,19.9456 233.874643,19.9456 C235.600615,19.9456 236.637467,21.6864 236.637467,26.0352 L230.592599,26.0352 L230.592599,26.0352 Z" id="Fill-19"></path>
                <path d="M7.97725748,30.1216 C6.87847918,34.3344 4.67774692,34.7776 3.79650132,34.7776 C2.25789413,34.7776 0.71611129,33.6688 0.71611129,26.576 L0.71611129,9.9472 L8.63779472,5.736 L8.63779472,21.92 C8.63779472,24.3584 8.41708636,28.3488 7.97725748,30.1216" id="Fill-20"></path>
                <path d="M17.2184276,21.4768 C17.2184276,27.24 16.5578903,31.2304 15.2384037,33.8912 C13.9173292,36.552 11.9373053,38.104 9.95728138,38.5472 L7.53742859,38.104 C10.838527,38.104 12.816963,35 13.6982087,33.2256 C14.796987,30.7872 15.2384037,27.24 15.2384037,22.1408 L15.2384037,1.9664 L17.2184276,2.4096 L17.2184276,21.4768 L17.2184276,21.4768 Z M5.77652522,36.552 C8.85850308,36.1088 10.6178186,32.5616 11.0576475,31.0096 C11.7181848,28.5712 11.9373053,25.688 11.9373053,22.3632 L11.9373053,3.9616 L13.6982087,4.184 L13.6982087,21.4768 C13.6982087,25.688 13.4775003,29.4576 12.5978425,32.1168 C11.4974764,34.5568 9.95728138,36.3296 7.97725748,36.7728 L5.77652522,36.552 L5.77652522,36.552 Z M8.63779472,5.736 L10.3971103,5.9568 L10.3971103,20.8112 C10.3971103,24.8016 10.1779897,28.128 9.73816085,30.344 C8.85850308,33.448 7.09759971,34.7776 5.99723358,35.2224 L3.79650132,34.7776 L3.35667243,34.7776 C3.57738079,35.6656 4.23791804,36.3296 5.11757581,36.552 C5.33669633,37.2176 5.99723358,37.8816 6.87847918,38.104 C7.53742859,39.2128 8.41708636,39.656 9.73816085,39.656 C11.2783559,39.8768 12.3771342,39.2128 13.6982087,38.3248 C17.4375481,35.6656 18.7586226,29.6784 18.7586226,21.6976 L18.7586226,0.192 L8.63779472,5.736 L8.63779472,5.736 Z" id="Fill-21"></path>
                <path d="M241.643895,15.5952 L242.336189,15.5952 C242.680748,15.5952 242.853822,15.944 242.853822,16.1184 C242.853822,16.4656 242.680748,16.64 242.336189,16.64 L241.643895,16.64 L241.643895,15.5952 L241.643895,15.5952 Z M241.643895,16.9872 L242.163116,16.9872 C242.336189,16.9872 242.680748,16.9872 242.680748,17.336 C242.680748,17.8576 242.680748,18.2048 242.853822,18.3792 L243.371454,18.3792 C243.198381,18.2048 243.198381,17.6832 243.198381,17.6832 C243.198381,16.9872 243.026895,16.8128 242.680748,16.8128 C243.026895,16.8128 243.371454,16.4656 243.371454,16.1184 C243.371454,15.7696 243.026895,15.248 242.507675,15.248 L241.299336,15.248 L241.299336,18.3792 L241.643895,18.3792 L241.643895,16.9872 L241.643895,16.9872 Z M242.163116,14.2032 C240.781704,14.2032 239.571777,15.4224 239.571777,16.8128 C239.571777,18.3792 240.781704,19.5984 242.163116,19.5984 C243.717601,19.5984 244.92594,18.3792 244.92594,16.8128 C244.92594,15.4224 243.717601,14.2032 242.163116,14.2032 L242.163116,14.2032 Z M242.163116,14.552 C243.544528,14.552 244.58138,15.5952 244.58138,16.8128 C244.58138,18.2048 243.544528,19.2496 242.163116,19.2496 C240.954777,19.2496 239.917924,18.2048 239.917924,16.8128 C239.917924,15.5952 240.954777,14.552 242.163116,14.552 L242.163116,14.552 Z" id="Fill-22"></path>
            </g>
        </g>
    </g>
</svg>