<?xml version="1.0" encoding="UTF-8" standalone="no"?>
<svg width="333px" height="43px" viewBox="0 0 333 43" version="1.1" xmlns="http://www.w3.org/2000/svg" xmlns:xlink="http://www.w3.org/1999/xlink">
    <!-- Generator: sketchtool 3.7.2 (28276) - http://www.bohemiancoding.com/sketch -->
    <title>47A466CB-ACA1-4B1F-9ABF-EFE44047B1F4</title>
    <desc>Created with sketchtool.</desc>
    <defs>
        <rect id="path-1" x="0" y="0" width="1024" height="88"></rect>
        <filter x="-50%" y="-50%" width="200%" height="200%" filterUnits="objectBoundingBox" id="filter-2">
            <feOffset dx="0" dy="1" in="SourceAlpha" result="shadowOffsetOuter1"></feOffset>
            <feColorMatrix values="0 0 0 0 0.878959396   0 0 0 0 0.878959396   0 0 0 0 0.878959396  0 0 0 0.5 0" type="matrix" in="shadowOffsetOuter1"></feColorMatrix>
        </filter>
    </defs>
    <g id="Welcome" stroke="none" stroke-width="1" fill="none" fill-rule="evenodd">
        <g id="Updated-Header" transform="translate(-31.000000, -27.000000)">
            <rect id="First-Fold-BK" fill="#003DA1" x="0" y="0" width="1024" height="656"></rect>
            <g id="Alt-Header">
                <g id="Rectangle-25">
                    <use fill="black" fill-opacity="1" filter="url(#filter-2)" xlink:href="#path-1"></use>
                    <use fill="#FFFFFF" fill-rule="evenodd" xlink:href="#path-1"></use>
                </g>
                <g id="UnitedHealthcare" transform="translate(31.000000, 27.000000)">
                    <path d="M25.4203407,10.6320803 L30.8428864,10.6320803 L30.8428864,11.3188201 C29.3740206,11.4336278 29.26183,11.6632432 29.26183,12.8081606 L29.26183,22.6595058 C29.26183,24.7218317 30.504237,25.866749 32.0852934,25.866749 C34.006038,25.866749 35.1362544,24.6070239 35.1362544,22.6595058 L35.1362544,13.0377761 C35.1362544,11.8918054 34.797605,11.4336278 33.4419686,11.3188201 L33.4419686,10.6320803 L37.7342978,10.6320803 L37.7342978,11.3188201 C36.3786614,11.4336278 36.040012,11.8918054 36.040012,13.0377761 L36.040012,22.0865205 C36.040012,24.9503938 34.797605,26.5545421 31.6334146,26.5545421 C28.5834924,26.5545421 27.1146265,24.8355861 27.1146265,21.972766 L27.1146265,12.8081606 C27.1146265,11.6632432 26.8892065,11.4336278 25.4203407,11.3188201 L25.4203407,10.6320803" id="Fill-4" fill="#003DA1"></path>
                    <path d="M37.3956484,26.2101189 L37.3956484,25.5233792 C38.524826,25.4085714 38.8645142,25.0652015 38.8645142,24.3774085 L38.8645142,17.2761822 C38.8645142,16.2450193 38.6380554,16.1302116 37.3956484,16.0154039 L37.3956484,15.3286641 L40.6720294,15.2138564 L40.6720294,17.3899367 C41.3493282,16.1302116 42.1408952,15.0990486 43.7219516,15.0990486 C45.6426962,15.0990486 46.4332244,16.3587737 46.4332244,18.3073452 L46.4332244,24.3774085 C46.4332244,25.1800093 46.7729126,25.4085714 47.9020902,25.5233792 L47.9020902,26.2101189 L44.5135186,26.2101189 L44.5135186,18.0777297 C44.5135186,16.5883892 43.9484104,16.1302116 43.1578822,16.1302116 C42.0276658,16.1302116 40.7852588,17.7343598 40.7852588,19.9104402 L40.7852588,24.3774085 C40.7852588,25.0652015 41.1239082,25.4085714 42.2530858,25.5233792 L42.2530858,26.2101189 L37.3956484,26.2101189" id="Fill-5" fill="#003DA1"></path>
                    <path d="M51.7435794,11.7769977 C51.7435794,12.6933529 51.2917006,13.2663382 50.613363,13.2663382 C49.9360642,13.2663382 49.4841854,12.6933529 49.4841854,11.7769977 C49.4841854,10.9754502 49.9360642,10.4024649 50.613363,10.4024649 C51.2917006,10.4024649 51.7435794,10.9754502 51.7435794,11.7769977 L51.7435794,11.7769977 Z M48.353969,26.2101189 L48.353969,25.5233792 C49.4841854,25.4085714 49.8228348,25.0652015 49.8228348,24.3774085 L49.8228348,17.1613745 C49.8228348,16.1302116 49.4841854,16.0154039 48.353969,15.9016494 L48.353969,15.2138564 L51.7435794,15.0990486 L51.7435794,24.3774085 C51.7435794,25.0652015 52.0822288,25.4085714 53.2124453,25.5233792 L53.2124453,26.2101189 L48.353969,26.2101189 L48.353969,26.2101189 Z" id="Fill-6" fill="#003DA1"></path>
                    <path d="M56.6010169,11.2050656 L56.6010169,15.3286641 L59.3133285,15.3286641 L59.3133285,16.2450193 L56.6010169,16.2450193 L56.6010169,24.2636541 C56.6010169,25.1800093 56.9407051,25.6381869 57.6180039,25.6381869 C58.2963415,25.6381869 58.8604109,25.1800093 58.8604109,22.7743135 L58.8604109,22.0865205 L59.6519779,22.0865205 L59.6519779,23.2324911 C59.6519779,25.5233792 58.7482203,26.5545421 57.0528957,26.5545421 C55.5840299,26.5545421 54.6802723,25.5233792 54.6802723,23.6906687 L54.6802723,16.2450193 L53.3246359,16.2450193 L53.3246359,15.5572263 C54.9067311,14.8704865 55.8104887,14.0678857 55.9237181,11.2050656 L56.6010169,11.2050656" id="Fill-7" fill="#003DA1"></path>
                    <path d="M68.8027833,20.7119876 C68.8027833,17.3899367 67.2206881,15.0990486 64.7358741,15.0990486 C62.2500213,15.0990486 60.4425061,17.3899367 60.4425061,20.8267954 C60.4425061,23.6906687 62.2500213,26.5545421 65.0745235,26.5545421 C67.5593375,26.5545421 68.6895539,24.4922162 68.8027833,22.5446981 L68.1244457,22.3161359 C67.8990257,23.9192309 67.2206881,25.6381869 65.3009823,25.6381869 C63.7188871,25.6381869 62.5886707,23.9192309 62.5886707,20.7119876 L68.8027833,20.7119876 L68.8027833,20.7119876 Z M62.5886707,19.9104402 C62.5886707,16.9317591 63.4924283,15.7868417 64.7358741,15.7868417 C65.8650517,15.7868417 66.5433893,16.9317591 66.5433893,19.9104402 L62.5886707,19.9104402 L62.5886707,19.9104402 Z" id="Fill-8" fill="#003DA1"></path>
                    <path d="M74.9026277,11.3188201 C76.0328441,11.3188201 76.3714935,11.5484355 76.3714935,12.4647907 L76.3714935,16.5883892 L76.2593029,16.5883892 C75.8074241,15.672034 75.1290865,15.0990486 73.9999089,15.0990486 C71.7405149,15.0990486 69.9319609,17.5047444 69.9319609,20.8267954 C69.9319609,24.3774085 71.7405149,26.5545421 73.7734501,26.5545421 C75.1290865,26.5545421 75.9196147,25.7529946 76.3714935,24.6070239 L76.4847229,24.6070239 L76.4847229,26.2101189 L79.5346452,26.0963645 L79.5346452,25.4085714 C78.6319264,25.4085714 78.2922382,25.0652015 78.2922382,23.8054764 L78.2922382,10.4024649 L74.9026277,10.6320803 L74.9026277,11.3188201 L74.9026277,11.3188201 Z M72.0791643,20.8267954 C72.0791643,17.3899367 72.8696925,15.9016494 74.1120995,15.9016494 C75.4677359,15.9016494 76.3714935,17.6195521 76.3714935,20.8267954 C76.3714935,24.7218317 75.1290865,25.7529946 73.9999089,25.7529946 C72.8696925,25.7529946 72.0791643,24.3774085 72.0791643,20.8267954 L72.0791643,20.8267954 Z" id="Fill-9" fill="#003DA1"></path>
                    <path d="M80.0997534,26.2101189 L80.0997534,25.5233792 C81.4553898,25.4085714 81.6818486,25.1800093 81.6818486,23.9192309 L81.6818486,12.8081606 C81.6818486,11.6632432 81.4553898,11.4336278 80.0997534,11.3188201 L80.0997534,10.6320803 L85.522299,10.6320803 L85.522299,11.3188201 C84.1666626,11.4336278 83.9412426,11.6632432 83.9412426,12.8081606 L83.9412426,17.6195521 L88.7997188,17.6195521 L88.7997188,12.8081606 C88.7997188,11.6632432 88.4600306,11.4336278 87.1043942,11.3188201 L87.1043942,10.6320803 L92.5269398,10.6320803 L92.5269398,11.3188201 C91.1713034,11.4336278 90.9458834,11.6632432 90.9458834,12.8081606 L90.9458834,23.9192309 C90.9458834,25.1800093 91.1713034,25.4085714 92.5269398,25.5233792 L92.5269398,26.2101189 L87.1043942,26.2101189 L87.1043942,25.5233792 C88.4600306,25.4085714 88.7997188,25.1800093 88.7997188,23.9192309 L88.7997188,18.4210996 L83.9412426,18.4210996 L83.9412426,23.9192309 C83.9412426,25.1800093 84.1666626,25.4085714 85.522299,25.5233792 L85.522299,26.2101189 L80.0997534,26.2101189" id="Fill-10" fill="#003DA1"></path>
                    <path d="M101.226905,20.7119876 C101.226905,17.3899367 99.64481,15.0990486 97.1589572,15.0990486 C94.6741432,15.0990486 92.866628,17.3899367 92.866628,20.8267954 C92.866628,23.6906687 94.6741432,26.5545421 97.4986454,26.5545421 C99.9834594,26.5545421 101.113676,24.4922162 101.339096,22.5446981 L100.548568,22.3161359 C100.322109,23.9192309 99.64481,25.6381869 97.7240654,25.6381869 C96.2551996,25.6381869 95.0127926,23.9192309 95.0127926,20.7119876 L101.226905,20.7119876 L101.226905,20.7119876 Z M95.0127926,19.9104402 C95.0127926,16.9317591 95.9165502,15.7868417 97.1589572,15.7868417 C98.402403,15.7868417 99.0797018,16.9317591 99.0797018,19.9104402 L95.0127926,19.9104402 L95.0127926,19.9104402 Z" id="Fill-11" fill="#003DA1"></path>
                    <path d="M110.038022,23.1176834 C110.038022,24.7218317 109.812602,25.1800093 109.473953,25.1800093 C109.134265,25.1800093 108.908845,24.9503938 108.908845,24.2636541 L108.908845,17.962922 C108.908845,16.2450193 108.005087,15.0990486 105.519234,15.0990486 C103.486299,15.0990486 102.130663,16.3587737 102.130663,17.8481143 C102.130663,18.7644695 102.582542,19.2226471 103.146611,19.2226471 C103.824949,19.2226471 104.276827,18.7644695 104.276827,17.8481143 C104.276827,17.2761822 104.050369,16.7031969 103.37307,16.5883892 C103.824949,16.0154039 104.502247,15.7868417 105.293814,15.7868417 C106.422992,15.7868417 106.9881,16.3587737 106.9881,17.6195521 L106.9881,19.5670703 C105.067356,20.25381 101.565555,21.284973 101.565555,23.9192309 C101.565555,25.4085714 102.582542,26.5545421 104.276827,26.5545421 C105.857884,26.5545421 106.536221,25.7529946 107.10133,24.7218317 C107.214559,25.9815568 107.891858,26.5545421 108.908845,26.5545421 C110.264481,26.5545421 110.829589,25.5233792 110.829589,23.1176834 L110.038022,23.1176834 L110.038022,23.1176834 Z M106.9881,21.7431506 C106.9881,24.2636541 105.971113,25.6381869 104.841936,25.6381869 C104.163598,25.6381869 103.59849,25.0652015 103.59849,23.8054764 C103.59849,21.8579583 105.180585,21.0564108 106.9881,20.3686178 L106.9881,21.7431506 L106.9881,21.7431506 Z" id="Fill-12" fill="#003DA1"></path>
                    <path d="M110.489901,26.2101189 L110.489901,25.5233792 C111.620118,25.4085714 111.958767,25.0652015 111.958767,24.3774085 L111.958767,12.5795985 C111.958767,11.7769977 111.506888,11.3188201 110.489901,11.3188201 L110.489901,10.5172726 L113.879512,10.4024649 L113.879512,24.3774085 C113.879512,25.0652015 114.218161,25.4085714 115.348378,25.5233792 L115.348378,26.2101189 L110.489901,26.2101189" id="Fill-13" fill="#003DA1"></path>
                    <path d="M118.511529,11.2050656 L118.511529,15.3286641 L121.222802,15.3286641 L121.222802,16.2450193 L118.511529,16.2450193 L118.511529,24.2636541 C118.511529,25.1800093 118.850179,25.6381869 119.528516,25.6381869 C120.205815,25.6381869 120.770923,25.1800093 120.770923,22.7743135 L120.770923,22.0865205 L121.561451,22.0865205 L121.561451,23.2324911 C121.561451,25.5233792 120.657694,26.5545421 118.963408,26.5545421 C117.494542,26.5545421 116.590785,25.5233792 116.590785,23.6906687 L116.590785,16.2450193 L115.235148,16.2450193 L115.235148,15.5572263 C116.817243,14.8704865 117.721001,14.0678857 117.833192,11.2050656 L118.511529,11.2050656" id="Fill-14" fill="#003DA1"></path>
                    <path d="M121.449261,26.2101189 L121.449261,25.5233792 C122.578438,25.4085714 122.917088,25.0652015 122.917088,24.3774085 L122.917088,12.4647907 C122.917088,11.5484355 122.578438,11.3188201 121.449261,11.3188201 L121.449261,10.6320803 L124.837832,10.4024649 L124.837832,17.1613745 C125.289711,16.1302116 126.193469,15.0990486 127.662335,15.0990486 C129.357659,15.0990486 130.486837,16.3587737 130.486837,18.3073452 L130.486837,24.3774085 C130.486837,25.0652015 130.825486,25.4085714 131.842473,25.5233792 L131.842473,26.2101189 L128.566092,26.2101189 L128.566092,18.1925375 C128.566092,16.7031969 128.000984,16.1302116 127.210456,16.1302116 C126.081278,16.1302116 124.837832,17.6195521 124.837832,19.7956324 L124.837832,24.3774085 C124.837832,25.0652015 125.176482,25.4085714 126.306698,25.5233792 L126.306698,26.2101189 L121.449261,26.2101189" id="Fill-15" fill="#003DA1"></path>
                    <path d="M140.20275,22.7743135 C139.976292,24.9503938 139.072534,26.897912 136.58772,26.897912 C134.215097,26.897912 132.181123,24.4922162 132.181123,21.0564108 C132.181123,18.3073452 134.101867,15.3286641 136.81314,15.3286641 C138.733885,15.3286641 139.976292,16.5883892 139.976292,18.3073452 C139.976292,19.4522625 139.637642,20.0252479 138.847114,20.0252479 C138.168776,20.0252479 137.716898,19.4522625 137.716898,18.6507151 C137.716898,17.7343598 138.056586,17.2761822 138.620655,17.2761822 C138.847114,17.2761822 138.960343,17.3899367 138.960343,17.3899367 L139.072534,17.3899367 C138.733885,16.4735815 137.943356,16.1302116 137.152828,16.1302116 C135.457504,16.1302116 134.328326,17.8481143 134.328326,21.0564108 C134.328326,24.8355861 135.570733,25.9815568 136.81314,25.9815568 C138.620655,25.9815568 139.298993,24.2636541 139.525452,22.6595058 L140.20275,22.7743135" id="Fill-16" fill="#003DA1"></path>
                    <path d="M149.580015,23.4621066 C149.466785,25.0652015 149.353556,25.6381869 148.901677,25.6381869 C148.563028,25.6381869 148.449798,25.2937637 148.449798,24.6070239 L148.449798,18.1925375 C148.449798,16.4735815 147.432811,15.3286641 144.947997,15.3286641 C142.914023,15.3286641 141.558387,16.5883892 141.558387,18.1925375 C141.558387,19.1088927 141.897036,19.5670703 142.575374,19.5670703 C143.252673,19.5670703 143.704551,18.9940849 143.704551,18.1925375 C143.704551,17.5047444 143.479131,16.9317591 142.800794,16.9317591 C143.252673,16.3587737 143.93101,16.1302116 144.721538,16.1302116 C145.851755,16.1302116 146.415824,16.7031969 146.415824,17.962922 L146.415824,19.7956324 C144.496118,20.5982332 140.993279,21.6283429 140.993279,24.2636541 C140.993279,25.7529946 142.010266,26.897912 143.704551,26.897912 C145.286647,26.897912 145.963945,26.0963645 146.529054,25.0652015 C146.642283,26.3249266 147.319582,26.897912 148.336569,26.897912 C149.805435,26.897912 150.257313,25.866749 150.257313,23.4621066 L149.580015,23.4621066 L149.580015,23.4621066 Z M146.415824,21.972766 C146.415824,24.6070239 145.399876,25.9815568 144.26966,25.9815568 C143.591322,25.9815568 143.027253,25.4085714 143.027253,24.1488463 C143.027253,22.2013282 144.608309,21.3997807 146.415824,20.7119876 L146.415824,21.972766 L146.415824,21.972766 Z" id="Fill-17" fill="#003DA1"></path>
                    <path d="M150.483772,26.5545421 L150.483772,25.866749 C151.49972,25.7529946 151.839409,25.4085714 151.839409,24.7218317 L151.839409,18.4210996 C151.839409,16.9317591 151.49972,16.3587737 150.370543,16.3587737 L150.370543,15.672034 L153.533694,15.4434718 L153.533694,18.1925375 C153.872344,16.9317591 154.662872,15.3286641 156.019547,15.3286641 C156.810075,15.3286641 157.600604,16.0154039 157.600604,17.3899367 C157.600604,18.3073452 157.148725,18.8792772 156.583617,18.8792772 C156.131738,18.8792772 155.567668,18.5359073 155.567668,17.5047444 C155.567668,16.9317591 155.906318,16.3587737 156.583617,16.3587737 C156.471426,16.1302116 156.244967,16.1302116 155.906318,16.1302116 C154.437452,16.1302116 153.760153,19.4522625 153.760153,21.3997807 L153.760153,24.7218317 C153.760153,25.4085714 154.098803,25.7529946 155.679859,25.866749 L155.679859,26.5545421 L150.483772,26.5545421" id="Fill-18" fill="#003DA1"></path>
                    <path d="M166.07411,21.0564108 C166.07411,17.7343598 164.492015,15.3286641 162.007201,15.3286641 C159.408119,15.3286641 157.600604,17.7343598 157.600604,21.1701653 C157.600604,24.0340386 159.521348,26.897912 162.232621,26.897912 C164.830665,26.897912 165.847652,24.8355861 166.07411,22.888068 L165.395773,22.6595058 C165.170353,24.2636541 164.492015,25.9815568 162.45908,25.9815568 C160.990214,25.9815568 159.859998,24.2636541 159.859998,21.0564108 L166.07411,21.0564108 L166.07411,21.0564108 Z M159.859998,20.1390023 C159.859998,17.2761822 160.651565,16.1302116 162.007201,16.1302116 C163.136379,16.1302116 163.814716,17.2761822 163.814716,20.1390023 L159.859998,20.1390023 L159.859998,20.1390023 Z" id="Fill-19" fill="#003DA1"></path>
                    <path d="M14.2189405,22.8290842 C13.5000896,25.6023753 12.0603102,25.8941344 11.4837752,25.8941344 C10.4771762,25.8941344 9.46849963,25.16421 9.46849963,20.4950116 L9.46849963,9.54825328 L14.651082,6.77601544 L14.651082,17.4299614 C14.651082,19.0351629 14.5066886,21.6620479 14.2189405,22.8290842" id="Fill-20" fill="#003DA1"></path>
                    <path d="M20.2647672,17.1382023 C20.2647672,20.9321236 19.8326256,23.5590085 18.9693813,25.3106162 C18.1050982,27.0622239 16.8097123,28.0839073 15.5143264,28.3756664 L13.9311924,28.0839073 C16.0908614,28.0839073 17.3852085,26.0405405 17.9617435,24.872451 C18.6805944,23.2672494 18.9693813,20.9321236 18.9693813,17.5753143 L18.9693813,4.2944834 L20.2647672,4.58624247 L20.2647672,17.1382023 L20.2647672,17.1382023 Z M12.7791611,27.0622239 C14.7954755,26.7704649 15.9464679,24.435339 16.234216,23.4136556 C16.6663576,21.8084541 16.8097123,19.9104402 16.8097123,17.7217205 L16.8097123,5.60792587 L17.9617435,5.75433205 L17.9617435,17.1382023 C17.9617435,19.9104402 17.81735,22.3919722 17.2418538,24.1425266 C16.5219641,25.7487815 15.5143264,26.9158178 14.2189405,27.2075768 L12.7791611,27.0622239 L12.7791611,27.0622239 Z M14.651082,6.77601544 L15.8020745,6.92136834 L15.8020745,16.7000371 C15.8020745,19.326922 15.6587198,21.516695 15.3709717,22.9754903 C14.7954755,25.0188571 13.6434442,25.8941344 12.9235546,26.1869467 L11.4837752,25.8941344 L11.1960271,25.8941344 C11.3404206,26.4787058 11.7725621,26.9158178 12.3480583,27.0622239 C12.491413,27.5003892 12.9235546,27.9375012 13.5000896,28.0839073 C13.9311924,28.8138317 14.5066886,29.1055907 15.3709717,29.1055907 C16.3786095,29.2509436 17.0974604,28.8138317 17.9617435,28.2292602 C20.4081218,26.4787058 21.272405,22.5373251 21.272405,17.2835552 L21.272405,3.12639382 L14.651082,6.77601544 L14.651082,6.77601544 Z" id="Fill-21" fill="#003DA1"></path>
                    <path d="M167.090059,13.2663382 L167.542976,13.2663382 C167.768396,13.2663382 167.881626,13.4959537 167.881626,13.6107614 C167.881626,13.8393236 167.768396,13.9541313 167.542976,13.9541313 L167.090059,13.9541313 L167.090059,13.2663382 L167.090059,13.2663382 Z M167.090059,14.1826934 L167.429747,14.1826934 C167.542976,14.1826934 167.768396,14.1826934 167.768396,14.4123089 C167.768396,14.7556788 167.768396,14.9842409 167.881626,15.0990486 L168.220275,15.0990486 C168.107046,14.9842409 168.107046,14.640871 168.107046,14.640871 C168.107046,14.1826934 167.994855,14.0678857 167.768396,14.0678857 C167.994855,14.0678857 168.220275,13.8393236 168.220275,13.6107614 C168.220275,13.3811459 167.994855,13.0377761 167.655167,13.0377761 L166.864639,13.0377761 L166.864639,15.0990486 L167.090059,15.0990486 L167.090059,14.1826934 L167.090059,14.1826934 Z M167.429747,12.349983 C166.525989,12.349983 165.734422,13.1525838 165.734422,14.0678857 C165.734422,15.0990486 166.525989,15.9016494 167.429747,15.9016494 C168.446734,15.9016494 169.237262,15.0990486 169.237262,14.0678857 C169.237262,13.1525838 168.446734,12.349983 167.429747,12.349983 L167.429747,12.349983 Z M167.429747,12.5795985 C168.333504,12.5795985 169.011842,13.2663382 169.011842,14.0678857 C169.011842,14.9842409 168.333504,15.672034 167.429747,15.672034 C166.639219,15.672034 165.960881,14.9842409 165.960881,14.0678857 C165.960881,13.2663382 166.639219,12.5795985 167.429747,12.5795985 L167.429747,12.5795985 Z" id="Fill-22" fill="#003DA1"></path>
                    <path d="M198.612,17.6648571 C198.522,15.2168571 196.92,13.8668571 194.094,13.8668571 C191.484,13.8668571 189.864,15.1808571 189.864,17.3048571 C189.864,18.3668571 190.296,19.1768571 191.106,19.6628571 C191.682,20.0228571 191.898,20.0768571 194.022,20.5808571 C195.516,20.9228571 195.768,20.9948571 196.218,21.2108571 C197.136,21.6248571 197.478,22.0928571 197.478,22.8848571 C197.478,24.2528571 196.38,25.0628571 194.526,25.0628571 C192.258,25.0628571 191.034,24.0728571 190.98,22.1828571 L189.45,22.1828571 C189.468,24.8648571 191.286,26.4128571 194.418,26.4128571 C195.894,26.4128571 196.938,26.1248571 197.748,25.5128571 C198.612,24.8288571 199.08,23.8748571 199.08,22.7768571 C199.08,21.7148571 198.594,20.8328571 197.64,20.2388571 C197.028,19.8248571 196.272,19.5908571 194.652,19.2308571 C192.996,18.8888571 192.564,18.7448571 192.024,18.4388571 C191.628,18.2048571 191.394,17.7728571 191.394,17.2148571 C191.394,15.9548571 192.384,15.2168571 194.094,15.2168571 C195.966,15.2168571 196.884,15.9728571 197.082,17.6648571 L198.612,17.6648571 Z M204.571817,17.4488571 L202.825817,17.4488571 L202.825817,14.8568571 L201.403817,14.8568571 L201.403817,17.4488571 L199.945817,17.4488571 L199.945817,18.6188571 L201.403817,18.6188571 L201.403817,22.9568571 C201.403817,24.9728571 201.421817,25.2428571 201.655817,25.6028571 C201.943817,26.0708571 202.501817,26.2868571 203.455817,26.2868571 C203.869817,26.2868571 204.157817,26.2688571 204.571817,26.2148571 L204.571817,24.9908571 C204.265817,25.0628571 204.067817,25.0988571 203.797817,25.0988571 C202.969817,25.0988571 202.825817,24.9008571 202.825817,23.7488571 L202.825817,18.6188571 L204.571817,18.6188571 L204.571817,17.4488571 Z M213.393634,17.4488571 L211.971634,17.4488571 L211.971634,21.6608571 C211.971634,22.8668571 211.881634,23.4248571 211.629634,23.9108571 C211.179634,24.7208571 210.387634,25.1888571 209.451634,25.1888571 C208.713634,25.1888571 208.137634,24.9188571 207.849634,24.4688571 C207.633634,24.1268571 207.561634,23.6588571 207.561634,22.5788571 L207.561634,17.4488571 L206.139634,17.4488571 L206.139634,23.0828571 C206.139634,24.2708571 206.301634,24.9368571 206.715634,25.4408571 C207.219634,26.0708571 208.029634,26.3948571 209.037634,26.3948571 C210.351634,26.3948571 211.413634,25.8188571 212.061634,24.7928571 L212.061634,26.1428571 L213.393634,26.1428571 L213.393634,17.4488571 Z M223.601452,14.1368571 L222.179452,14.1368571 L222.179452,18.6548571 C221.657452,17.7188571 220.631452,17.1968571 219.299452,17.1968571 C218.201452,17.1968571 217.175452,17.6468571 216.473452,18.4388571 C215.753452,19.2488571 215.393452,20.3468571 215.393452,21.7868571 C215.393452,24.6128571 216.941452,26.3948571 219.407452,26.3948571 C220.739452,26.3948571 221.801452,25.8188571 222.251452,24.8648571 L222.251452,26.1428571 L223.601452,26.1428571 L223.601452,14.1368571 Z M219.551452,18.4028571 C220.253452,18.4028571 220.937452,18.6908571 221.405452,19.1948571 C221.963452,19.7888571 222.215452,20.6168571 222.215452,21.8228571 C222.215452,23.9288571 221.207452,25.1888571 219.551452,25.1888571 C217.913452,25.1888571 216.851452,23.8388571 216.851452,21.7508571 C216.851452,19.6808571 217.877452,18.4028571 219.551452,18.4028571 L219.551452,18.4028571 Z M232.117269,23.3528571 C231.703269,24.6488571 231.019269,25.1888571 229.813269,25.1888571 C228.049269,25.1888571 227.131269,24.1808571 227.077269,22.1468571 L233.611269,22.1468571 C233.629269,20.9588571 233.503269,20.1668571 233.197269,19.4648571 C232.585269,18.0428571 231.253269,17.1968571 229.669269,17.1968571 C227.293269,17.1968571 225.601269,19.1228571 225.601269,21.8408571 C225.601269,24.6488571 227.167269,26.3948571 229.723269,26.3948571 C231.793269,26.3948571 233.053269,25.3868571 233.521269,23.3528571 L232.117269,23.3528571 Z M227.095269,20.9768571 C227.311269,19.2848571 228.193269,18.3848571 229.633269,18.3848571 C231.073269,18.3848571 232.009269,19.3568571 232.135269,20.9768571 L227.095269,20.9768571 Z M236.853086,17.4488571 L235.521086,17.4488571 L235.521086,26.1428571 L236.943086,26.1428571 L236.943086,21.9308571 C236.943086,20.7788571 237.015086,20.2208571 237.249086,19.7168571 C237.609086,18.9068571 238.437086,18.4028571 239.427086,18.4028571 C240.147086,18.4028571 240.723086,18.6728571 241.029086,19.1228571 C241.245086,19.4648571 241.317086,19.8788571 241.317086,21.0308571 L241.317086,26.1428571 L242.739086,26.1428571 L242.739086,20.5268571 C242.739086,19.4648571 242.649086,18.9608571 242.379086,18.4568571 C241.947086,17.6648571 241.029086,17.1968571 239.877086,17.1968571 C238.527086,17.1968571 237.609086,17.6828571 236.853086,18.7988571 L236.853086,17.4488571 Z M248.536903,17.4488571 L246.790903,17.4488571 L246.790903,14.8568571 L245.368903,14.8568571 L245.368903,17.4488571 L243.910903,17.4488571 L243.910903,18.6188571 L245.368903,18.6188571 L245.368903,22.9568571 C245.368903,24.9728571 245.386903,25.2428571 245.620903,25.6028571 C245.908903,26.0708571 246.466903,26.2868571 247.420903,26.2868571 C247.834903,26.2868571 248.122903,26.2688571 248.536903,26.2148571 L248.536903,24.9908571 C248.230903,25.0628571 248.032903,25.0988571 247.762903,25.0988571 C246.934903,25.0988571 246.790903,24.9008571 246.790903,23.7488571 L246.790903,18.6188571 L248.536903,18.6188571 L248.536903,17.4488571 Z M250.518721,14.1368571 L250.518721,26.1428571 L251.256721,26.1428571 L251.256721,20.6348571 L254.982721,20.6348571 C257.772721,20.6528571 258.384721,21.2828571 258.438721,24.2888571 C258.474721,25.4228571 258.546721,25.9268571 258.690721,26.1428571 L259.500721,26.1428571 L259.410721,25.9808571 C259.266721,25.7108571 259.158721,25.0268571 259.140721,24.1448571 C259.032721,22.0748571 258.960721,21.7148571 258.420721,21.0668571 C257.988721,20.6348571 257.538721,20.4368571 256.746721,20.3288571 C258.366721,20.0048571 259.302721,18.9068571 259.302721,17.3228571 C259.302721,16.1708571 258.834721,15.2528571 257.970721,14.6948571 C257.358721,14.2988571 256.602721,14.1368571 255.468721,14.1368571 L250.518721,14.1368571 Z M251.256721,14.7668571 L255.234721,14.7668571 C256.278721,14.7668571 256.944721,14.9108571 257.466721,15.2348571 C258.204721,15.6848571 258.564721,16.4048571 258.564721,17.3588571 C258.564721,18.3128571 258.168721,19.0688571 257.412721,19.5188571 C256.854721,19.8608571 256.080721,20.0048571 254.874721,20.0048571 L251.256721,20.0048571 L251.256721,14.7668571 Z M268.143704,23.1908571 C267.819704,24.8468571 266.739704,25.8008571 265.155704,25.8008571 C263.139704,25.8008571 261.933704,24.3608571 261.915704,21.9308571 L268.917704,21.9308571 C268.917704,20.7608571 268.773704,20.0048571 268.413704,19.3028571 C267.765704,18.0068571 266.577704,17.2688571 265.137704,17.2688571 C262.815704,17.2688571 261.213704,19.1588571 261.213704,21.8948571 C261.213704,24.6308571 262.761704,26.3948571 265.155704,26.3948571 C267.117704,26.3948571 268.467704,25.2068571 268.827704,23.1908571 L268.143704,23.1908571 Z M261.915704,21.3368571 C262.023704,20.4008571 262.149704,19.9148571 262.491704,19.3388571 C263.031704,18.4208571 264.039704,17.8628571 265.137704,17.8628571 C266.181704,17.8628571 267.099704,18.3668571 267.657704,19.2488571 C268.035704,19.8428571 268.179704,20.3648571 268.215704,21.3368571 L261.915704,21.3368571 Z M276.912687,20.0228571 C276.840687,19.1408571 276.696687,18.6908571 276.300687,18.2408571 C275.742687,17.6108571 274.824687,17.2688571 273.636687,17.2688571 C271.692687,17.2688571 270.522687,18.1508571 270.522687,19.6268571 C270.522687,20.3468571 270.882687,20.9588571 271.476687,21.2828571 C271.944687,21.5348571 272.394687,21.6788571 273.816687,22.0028571 C275.868687,22.4708571 276.498687,22.9208571 276.498687,23.8748571 C276.498687,25.0268571 275.418687,25.8008571 273.780687,25.8008571 C272.700687,25.8008571 271.800687,25.4228571 271.332687,24.7748571 C271.044687,24.3788571 270.936687,24.0008571 270.918687,23.2448571 L270.234687,23.2448571 C270.270687,25.2968571 271.512687,26.3948571 273.780687,26.3948571 C275.814687,26.3948571 277.182687,25.3688571 277.182687,23.8568571 C277.182687,23.1008571 276.804687,22.4528571 276.174687,22.0928571 C275.670687,21.8048571 275.130687,21.6248571 273.960687,21.3728571 C272.322687,20.9948571 271.872687,20.8328571 271.494687,20.4368571 C271.314687,20.2388571 271.206687,19.9148571 271.206687,19.5908571 C271.206687,18.5108571 272.088687,17.8628571 273.582687,17.8628571 C275.274687,17.8628571 276.084687,18.5288571 276.210687,20.0228571 L276.912687,20.0228571 Z M282.72967,17.2688571 C280.26367,17.2688571 278.66167,19.0688571 278.66167,21.8408571 C278.66167,24.5948571 280.22767,26.3948571 282.65767,26.3948571 C285.10567,26.3948571 286.65367,24.6308571 286.65367,21.8768571 C286.65367,19.1048571 285.08767,17.2688571 282.72967,17.2688571 L282.72967,17.2688571 Z M282.71167,17.8628571 C284.65567,17.8628571 285.96967,19.4828571 285.96967,21.8768571 C285.96967,24.2528571 284.67367,25.8008571 282.67567,25.8008571 C280.65967,25.8008571 279.34567,24.2528571 279.34567,21.8408571 C279.34567,19.4288571 280.65967,17.8628571 282.71167,17.8628571 L282.71167,17.8628571 Z M295.602653,17.5208571 L294.918653,17.5208571 L294.918653,22.2008571 C294.918653,24.4148571 293.766653,25.8188571 291.984653,25.8188571 C290.976653,25.8188571 290.112653,25.3328571 289.770653,24.5768571 C289.536653,24.1088571 289.482653,23.6768571 289.482653,22.6688571 L289.482653,17.5208571 L288.798653,17.5208571 L288.798653,23.0828571 C288.798653,25.2248571 289.878653,26.3948571 291.840653,26.3948571 C293.316653,26.3948571 294.324653,25.7108571 294.936653,24.3248571 L294.936653,26.1428571 L295.602653,26.1428571 L295.602653,17.5208571 Z M302.445636,17.4488571 C300.753636,17.4128571 299.601636,18.2228571 299.097636,19.7888571 L299.097636,17.5208571 L298.413636,17.5208571 L298.413636,26.1428571 L299.115636,26.1428571 L299.115636,22.4168571 C299.115636,20.7248571 299.277636,20.0408571 299.817636,19.3028571 C300.393636,18.5468571 301.221636,18.1328571 302.193636,18.1328571 L302.445636,18.1328571 L302.445636,17.4488571 Z M309.738619,23.1008571 C309.504619,24.7748571 308.370619,25.8008571 306.714619,25.8008571 C304.752619,25.8008571 303.456619,24.2168571 303.456619,21.8408571 C303.456619,19.4108571 304.770619,17.8628571 306.822619,17.8628571 C308.370619,17.8628571 309.360619,18.6728571 309.648619,20.1668571 L310.350619,20.1668571 C310.116619,18.3488571 308.820619,17.2688571 306.822619,17.2688571 C304.356619,17.2688571 302.772619,19.0688571 302.772619,21.8588571 C302.772619,22.9748571 303.042619,23.9828571 303.564619,24.7748571 C304.302619,25.8548571 305.328619,26.3948571 306.750619,26.3948571 C308.784619,26.3948571 310.134619,25.1888571 310.422619,23.1008571 L309.738619,23.1008571 Z M318.777602,23.1908571 C318.453602,24.8468571 317.373602,25.8008571 315.789602,25.8008571 C313.773602,25.8008571 312.567602,24.3608571 312.549602,21.9308571 L319.551602,21.9308571 C319.551602,20.7608571 319.407602,20.0048571 319.047602,19.3028571 C318.399602,18.0068571 317.211602,17.2688571 315.771602,17.2688571 C313.449602,17.2688571 311.847602,19.1588571 311.847602,21.8948571 C311.847602,24.6308571 313.395602,26.3948571 315.789602,26.3948571 C317.751602,26.3948571 319.101602,25.2068571 319.461602,23.1908571 L318.777602,23.1908571 Z M312.549602,21.3368571 C312.657602,20.4008571 312.783602,19.9148571 313.125602,19.3388571 C313.665602,18.4208571 314.673602,17.8628571 315.771602,17.8628571 C316.815602,17.8628571 317.733602,18.3668571 318.291602,19.2488571 C318.669602,19.8428571 318.813602,20.3648571 318.849602,21.3368571 L312.549602,21.3368571 Z M327.546584,20.0228571 C327.474584,19.1408571 327.330584,18.6908571 326.934584,18.2408571 C326.376584,17.6108571 325.458584,17.2688571 324.270584,17.2688571 C322.326584,17.2688571 321.156584,18.1508571 321.156584,19.6268571 C321.156584,20.3468571 321.516584,20.9588571 322.110584,21.2828571 C322.578584,21.5348571 323.028584,21.6788571 324.450584,22.0028571 C326.502584,22.4708571 327.132584,22.9208571 327.132584,23.8748571 C327.132584,25.0268571 326.052584,25.8008571 324.414584,25.8008571 C323.334584,25.8008571 322.434584,25.4228571 321.966584,24.7748571 C321.678584,24.3788571 321.570584,24.0008571 321.552584,23.2448571 L320.868584,23.2448571 C320.904584,25.2968571 322.146584,26.3948571 324.414584,26.3948571 C326.448584,26.3948571 327.816584,25.3688571 327.816584,23.8568571 C327.816584,23.1008571 327.438584,22.4528571 326.808584,22.0928571 C326.304584,21.8048571 325.764584,21.6248571 324.594584,21.3728571 C322.956584,20.9948571 322.506584,20.8328571 322.128584,20.4368571 C321.948584,20.2388571 321.840584,19.9148571 321.840584,19.5908571 C321.840584,18.5108571 322.722584,17.8628571 324.216584,17.8628571 C325.908584,17.8628571 326.718584,18.5288571 326.844584,20.0228571 L327.546584,20.0228571 Z" id="StudentResources" fill="#003DA1"></path>
                    <path d="M180.642857,7.28507658 L180.642857,32.1437808" id="Line" stroke="#CFCFCF" stroke-width="0.5" stroke-linecap="square"></path>
                </g>
            </g>
        </g>
    </g>
</svg>