<?xml version="1.0" encoding="UTF-8" standalone="no"?>
<svg width="46px" height="46px" viewBox="0 0 46 46" version="1.1" xmlns="http://www.w3.org/2000/svg" xmlns:xlink="http://www.w3.org/1999/xlink">
    <!-- Generator: Sketch 3.7.1 (28215) - http://www.bohemiancoding.com/sketch -->
    <title>SVG</title>
    <desc>Created with Sketch.</desc>
    <defs>
        <path d="M46,5.2155 C46,2.3355 43.665,0.0005 40.785,0.0005 L5.215,0.0005 C2.335,0.0005 0,2.3355 0,5.2155 L0,40.7845 C0,43.6645 2.335,46.0005 5.215,46.0005 L40.785,46.0005 C43.665,46.0005 46,43.6645 46,40.7845 L46,5.2155 Z" id="path-1"></path>
        <path d="M0.396,2.557 C0.396,3.218 0.628,3.791 1.018,4.141 C1.446,4.502 1.885,4.701 3.104,5.05 C4.813,5.549 5.044,5.687 5.044,6.21 C5.044,6.771 4.617,7.057 3.8,7.057 C2.751,7.057 2.275,6.659 2.226,5.736 L0.091,5.736 C0.128,7.643 1.457,8.74 3.726,8.74 C5.874,8.74 7.203,7.681 7.203,5.973 C7.203,5.163 6.862,4.502 6.203,4.091 C5.813,3.829 5.228,3.617 4.337,3.38 C3.08,3.056 2.97,3.019 2.739,2.907 C2.544,2.807 2.446,2.645 2.446,2.421 C2.446,1.959 2.861,1.685 3.544,1.685 C4.349,1.685 4.824,2.059 4.861,2.707 L6.874,2.707 C6.838,0.974 5.666,0.002 3.642,0.002 C1.677,0.002 0.396,1.012 0.396,2.557 L0.396,2.557 Z M8.289,0.214 L8.289,8.529 L10.411,8.529 L10.411,5.437 L11.717,5.437 C12.814,5.449 13.12,5.836 13.217,7.345 C13.278,8.167 13.302,8.28 13.4,8.529 L15.571,8.529 L15.51,8.442 C15.413,8.317 15.34,7.967 15.303,7.494 C15.182,5.562 14.912,4.963 14.034,4.639 C14.803,4.315 15.279,3.542 15.279,2.62 C15.279,1.76 14.876,1.024 14.181,0.601 C13.706,0.326 13.205,0.214 12.302,0.214 L8.289,0.214 L8.289,0.214 Z M10.411,1.922 L11.887,1.922 C12.778,1.922 13.193,2.233 13.193,2.881 C13.193,3.567 12.79,3.879 11.924,3.879 L10.411,3.879 L10.411,1.922 L10.411,1.922 Z" id="path-3"></path>
    </defs>
    <g id="Welcome" stroke="none" stroke-width="1" fill="none" fill-rule="evenodd">
        <g id="StudentResource-Header" transform="translate(-18.000000, -13.000000)">
            <g id="SVG" transform="translate(18.000000, 13.000000)">
                <g id="Group">
                    <mask id="mask-2" fill="white">
                        <use xlink:href="#path-1"></use>
                    </mask>
                    <use id="Fill-1" fill="#0037A2" xlink:href="#path-1"></use>
                    <g id="Group-5" mask="url(#mask-2)">
                        <g transform="translate(23.000000, 28.000000)">
                            <mask id="mask-4" fill="white">
                                <use xlink:href="#path-3"></use>
                            </mask>
                            <g id="Clip-4" stroke="none" fill="none"></g>
                            <polygon id="Fill-3" stroke="none" fill="#FFFFFF" fill-rule="evenodd" mask="url(#mask-4)" points="-4.909 13.74 20.571 13.74 20.571 -4.998 -4.909 -4.998"></polygon>
                        </g>
                    </g>
                    <path d="M13.6908,17.384 L13.6908,-4.641 L11.3858,-5.153 L11.3858,18.152 C11.3858,24.042 10.8728,28.14 9.5928,30.957 C8.5678,33.006 6.2638,36.591 2.4228,36.591 L5.2398,37.104 C7.5448,36.591 9.8488,34.799 11.3858,31.725 C12.9228,28.652 13.6908,24.042 13.6908,17.384 L13.6908,17.384 Z M0.3728,34.799 L2.9348,35.054 C5.2398,34.542 7.0318,32.494 8.3128,29.676 C9.3368,26.604 9.5928,22.249 9.5928,17.384 L9.5928,-2.592 L7.5448,-2.848 L7.5448,18.408 C7.5448,22.249 7.2878,25.579 6.5198,28.396 C6.0078,30.189 3.9588,34.286 0.3728,34.799 L0.3728,34.799 Z M3.7028,-0.799 L15.4828,-7.202 L15.4828,17.64 C15.4828,26.859 13.9468,33.774 9.5928,36.847 C8.0558,37.872 6.7758,38.64 4.9828,38.384 C3.4468,38.384 2.4228,37.872 1.6538,36.591 C0.6298,36.335 -0.1392,35.567 -0.3952,34.799 C-1.4192,34.542 -2.1872,33.774 -2.4442,32.749 L-1.9322,32.749 L0.6298,33.262 C1.9098,32.749 3.9588,31.213 4.9828,27.628 C5.4958,25.067 5.7518,21.225 5.7518,16.616 L5.7518,-0.544 L3.7028,-0.799 Z M2.9348,27.371 C1.6538,32.238 -0.9072,32.749 -1.9322,32.749 C-3.7242,32.749 -5.5172,31.469 -5.5172,23.274 L-5.5172,4.066 L3.7028,-0.799 L3.7028,17.896 C3.7028,20.713 3.4468,25.323 2.9348,27.371 L2.9348,27.371 Z" id="Fill-6" fill="#9BB0DA" mask="url(#mask-2)"></path>
                </g>
            </g>
        </g>
    </g>
</svg>