<?xml version="1.0" encoding="UTF-8" standalone="no"?>
<svg width="203px" height="42px" viewBox="0 0 203 42" version="1.1" xmlns="http://www.w3.org/2000/svg" xmlns:xlink="http://www.w3.org/1999/xlink">
    <!-- Generator: Sketch 3.7.2 (28276) - http://www.bohemiancoding.com/sketch -->
    <title>Group</title>
    <desc>Created with Sketch.</desc>
    <defs></defs>
    <g id="Welcome" stroke="none" stroke-width="1" fill="none" fill-rule="evenodd">
        <g id="Desktop" transform="translate(-41.000000, -2583.000000)" fill="#FFFFFF">
            <g id="Footer" transform="translate(0.000000, 2219.000000)">
                <g id="Group-7" transform="translate(41.000000, 364.000000)">
                    <g id="uhc-logo">
                        <g id="Layer_1">
                            <g id="Group">
                                <path d="M27.2222222,17.3444444 L33.8333333,17.3444444 L33.8333333,18.2 C32.0444444,18.2777778 31.8888889,18.6666667 31.8888889,20.0666667 L31.8888889,31.9666667 C31.8888889,34.5333333 33.3666667,35.8555556 35.3888889,35.8555556 C37.7222222,35.8555556 39.2,34.3777778 39.2,31.8888889 L39.2,20.3777778 C39.2,18.9777778 38.7333333,18.3555556 37.1,18.2 L37.1,17.3444444 L42.3888889,17.3444444 L42.3888889,18.2 C40.6777778,18.2777778 40.2888889,18.9 40.2888889,20.3777778 L40.2888889,31.3444444 C40.2888889,34.7666667 38.8111111,36.7888889 34.9222222,36.7888889 C31.0333333,36.7888889 29.2444444,34.6888889 29.2444444,31.2666667 L29.2444444,20.0666667 C29.2444444,18.6666667 29.0888889,18.2777778 27.3,18.2 L27.3,17.3444444 L27.2222222,17.3444444 Z" id="Shape"></path>
                                <path d="M41.9222222,36.2444444 L41.9222222,35.3888889 C43.2444444,35.3111111 43.7111111,34.8444444 43.7111111,33.9888889 L43.7111111,25.3555556 C43.7111111,24.1888889 43.4,23.9555556 41.9222222,23.8777778 L41.9222222,23.0222222 L45.9666667,22.8666667 L45.9666667,25.5111111 L46.0444444,25.5111111 C46.8222222,23.9555556 47.8333333,22.7111111 49.7777778,22.7111111 C52.0333333,22.7111111 53.1222222,24.1888889 53.1222222,26.6 L53.1222222,33.9111111 C53.1222222,34.8444444 53.5111111,35.2333333 54.8333333,35.3111111 L54.8333333,36.1666667 L50.7888889,36.1666667 L50.7888889,26.4444444 C50.7888889,24.6555556 50.0888889,24.0333333 49.1555556,24.0333333 C47.6777778,24.0333333 46.2,25.9777778 46.2,28.7 L46.2,34.0666667 C46.2,34.9222222 46.6666667,35.3888889 47.9888889,35.4666667 L47.9888889,36.3222222 L41.9222222,36.3222222 L41.9222222,36.2444444 Z" id="Shape"></path>
                                <path d="M55.3777778,36.2444444 L55.3777778,35.3888889 C56.7,35.3111111 57.1666667,34.8444444 57.1666667,33.9888889 L57.1666667,25.2 C57.1666667,24.0333333 56.8555556,23.8 55.3777778,23.8 L55.3777778,22.9444444 L59.5,22.7888889 L59.5,34.0666667 C59.5,34.9222222 59.9666667,35.3888889 61.2888889,35.4666667 L61.2888889,36.3222222 L55.3777778,36.3222222 L55.3777778,36.2444444 Z M59.5,18.8222222 C59.5,19.8333333 58.9555556,20.6111111 58.1,20.6111111 C57.2444444,20.6111111 56.7,19.9111111 56.7,18.8222222 C56.7,17.7333333 57.2444444,17.0333333 58.1,17.0333333 C58.9555556,17.0333333 59.5,17.7333333 59.5,18.8222222 L59.5,18.8222222 Z" id="Shape"></path>
                                <path d="M65.4888889,17.9666667 L65.4888889,23.0222222 L68.8333333,23.0222222 L68.8333333,24.1111111 L65.4888889,24.1111111 L65.4888889,33.8333333 C65.4888889,35.0777778 65.8777778,35.5444444 66.6555556,35.5444444 C67.5888889,35.5444444 68.2888889,35 68.2888889,32.0444444 L68.2888889,31.2666667 L69.1444444,31.2666667 L69.1444444,32.5888889 C69.1444444,35.3888889 68.1333333,36.6333333 66.0333333,36.6333333 C64.2444444,36.6333333 63.0777778,35.4666667 63.0777778,33.2888889 L63.0777778,24.1111111 L61.4444444,24.1111111 L61.4444444,23.3333333 C63.4666667,22.4777778 64.4777778,21.5444444 64.6333333,18.0444444 L65.4888889,18.0444444 L65.4888889,17.9666667 Z" id="Shape"></path>
                                <path d="M72.8777778,28.5444444 C72.8777778,25.0444444 73.8888889,23.6444444 75.5222222,23.6444444 C77,23.6444444 77.7777778,25.0444444 77.7777778,28.5444444 L72.8777778,28.5444444 L72.8777778,28.5444444 Z M80.5,29.5555556 C80.5,25.5888889 78.5555556,22.7111111 75.5222222,22.7111111 C72.4111111,22.7111111 70.2333333,25.5888889 70.2333333,29.6333333 C70.2333333,33.0555556 72.4888889,36.5555556 75.9111111,36.5555556 C79.0222222,36.5555556 80.3444444,34.1444444 80.5777778,31.7333333 L79.7222222,31.5777778 C79.4111111,33.4444444 78.5555556,35.5444444 76.2222222,35.5444444 C74.3555556,35.5444444 72.9555556,33.4444444 72.9555556,29.5555556 L80.5,29.5555556 L80.5,29.5555556 Z" id="Shape"></path>
                                <path d="M84.5444444,29.7888889 C84.5444444,25.5111111 85.5555556,23.8 87.0333333,23.8 C88.7444444,23.8 89.7555556,25.8222222 89.7555556,29.7888889 C89.7555556,34.5333333 88.2777778,35.7777778 86.8,35.7777778 C85.4777778,35.7 84.5444444,33.9888889 84.5444444,29.7888889 L84.5444444,29.7888889 Z M87.9666667,18.2 C89.3666667,18.2777778 89.7555556,18.4333333 89.7555556,19.6 L89.7555556,24.5777778 L89.6777778,24.5777778 C89.1333333,23.4888889 88.2,22.7111111 86.8777778,22.7111111 C84,22.7111111 81.8222222,25.6666667 81.8222222,29.7111111 C81.8222222,34.0666667 84.0777778,36.5555556 86.5666667,36.5555556 C88.2777778,36.5555556 89.1333333,35.5444444 89.7555556,34.3 L89.8333333,34.3 L89.8333333,36.2444444 L93.7222222,36.0888889 L93.7222222,35.2333333 C92.6333333,35.2333333 92.0888889,34.8444444 92.0888889,33.2888889 L92.0888889,17.1111111 L87.8888889,17.2666667 L87.8888889,18.2 L87.9666667,18.2 Z" id="Shape"></path>
                                <path d="M94.4222222,36.2444444 L94.4222222,35.3888889 C96.0555556,35.3111111 96.3666667,34.9222222 96.3666667,33.5222222 L96.3666667,20.0666667 C96.3666667,18.6666667 96.0555556,18.2777778 94.4222222,18.2 L94.4222222,17.3444444 L101.111111,17.3444444 L101.111111,18.2 C99.4,18.2777778 99.0888889,18.6666667 99.0888889,20.0666667 L99.0888889,25.7444444 L105,25.7444444 L105,20.0666667 C105,18.6666667 104.688889,18.2777778 102.977778,18.2 L102.977778,17.3444444 L109.666667,17.3444444 L109.666667,18.2 C108.033333,18.2777778 107.722222,18.6666667 107.722222,20.0666667 L107.722222,33.5222222 C107.722222,34.9222222 108.033333,35.3111111 109.666667,35.3888889 L109.666667,36.2444444 L102.977778,36.2444444 L102.977778,35.3888889 C104.688889,35.3111111 105,34.9222222 105,33.5222222 L105,26.8333333 L99.0888889,26.8333333 L99.0888889,33.5222222 C99.0888889,34.9222222 99.4,35.3111111 101.111111,35.3888889 L101.111111,36.2444444 L94.4222222,36.2444444 L94.4222222,36.2444444 Z" id="Shape"></path>
                                <path d="M112.777778,28.5444444 C112.777778,25.0444444 113.788889,23.6444444 115.422222,23.6444444 C116.9,23.6444444 117.677778,25.0444444 117.677778,28.5444444 L112.777778,28.5444444 L112.777778,28.5444444 Z M120.322222,29.5555556 C120.322222,25.5888889 118.377778,22.7111111 115.344444,22.7111111 C112.233333,22.7111111 110.055556,25.5888889 110.055556,29.6333333 C110.055556,33.0555556 112.311111,36.5555556 115.733333,36.5555556 C118.844444,36.5555556 120.166667,34.1444444 120.4,31.7333333 L119.544444,31.5777778 C119.233333,33.4444444 118.377778,35.5444444 116.044444,35.5444444 C114.177778,35.5444444 112.777778,33.4444444 112.777778,29.5555556 L120.322222,29.5555556 L120.322222,29.5555556 Z" id="Shape"></path>
                                <path d="M127.477778,30.8 C127.477778,33.9111111 126.233333,35.5444444 124.833333,35.5444444 C123.977778,35.5444444 123.355556,34.8444444 123.355556,33.3666667 C123.355556,31.0333333 125.377778,29.9444444 127.555556,29.1666667 L127.555556,30.8 L127.477778,30.8 Z M131.211111,32.4333333 C131.133333,34.4555556 130.9,35 130.433333,35 C130.044444,35 129.888889,34.6111111 129.888889,33.8333333 L129.888889,26.1333333 C129.888889,24.0333333 128.722222,22.6333333 125.611111,22.6333333 C123.2,22.6333333 121.411111,24.1111111 121.411111,25.9777778 C121.411111,27.0666667 121.955556,27.6111111 122.733333,27.6111111 C123.511111,27.6111111 124.133333,26.9888889 124.133333,25.9777778 C124.133333,25.2 123.822222,24.5 122.966667,24.4222222 C123.511111,23.7222222 124.366667,23.4111111 125.3,23.4111111 C126.777778,23.4111111 127.477778,24.1111111 127.477778,25.6666667 L127.477778,27.9222222 C125.066667,28.7777778 120.788889,30.1 120.788889,33.2111111 C120.788889,35 122.033333,36.3222222 124.133333,36.3222222 C126.077778,36.3222222 126.855556,35.3888889 127.555556,34.1444444 L127.633333,34.1444444 C127.788889,35.6222222 128.566667,36.3222222 129.888889,36.3222222 C131.6,36.3222222 132.144444,35.0777778 132.144444,32.2 L131.211111,32.4333333 L131.211111,32.4333333 Z" id="Shape"></path>
                                <path d="M131.677778,36.2444444 L131.677778,35.3888889 C133,35.3111111 133.466667,34.8444444 133.466667,33.9888889 L133.466667,19.6777778 C133.466667,18.7444444 133,18.2777778 131.677778,18.2 L131.677778,17.3444444 L135.877778,17.1888889 L135.877778,34.0666667 C135.877778,34.9222222 136.344444,35.3888889 137.666667,35.4666667 L137.666667,36.3222222 L131.677778,36.3222222 L131.677778,36.2444444 Z" id="Shape"></path>
                                <path d="M141.633333,17.9666667 L141.633333,23.0222222 L144.977778,23.0222222 L144.977778,24.1111111 L141.633333,24.1111111 L141.633333,33.8333333 C141.633333,35.0777778 142.022222,35.5444444 142.8,35.5444444 C143.733333,35.5444444 144.433333,35 144.433333,32.0444444 L144.433333,31.2666667 L145.288889,31.2666667 L145.288889,32.5888889 C145.288889,35.3888889 144.277778,36.6333333 142.177778,36.6333333 C140.388889,36.6333333 139.222222,35.4666667 139.222222,33.2888889 L139.222222,24.1111111 L137.511111,24.1111111 L137.511111,23.3333333 C139.533333,22.4777778 140.544444,21.5444444 140.7,18.0444444 L141.633333,18.0444444 L141.633333,17.9666667 Z" id="Shape"></path>
                                <path d="M145.133333,36.2444444 L145.133333,35.3888889 C146.455556,35.3111111 146.922222,34.8444444 146.922222,33.9888889 L146.922222,19.6 C146.922222,18.4333333 146.611111,18.2 145.133333,18.2 L145.133333,17.3444444 L149.333333,17.1111111 L149.333333,25.2 L149.411111,25.2 C149.955556,23.9555556 151.044444,22.7111111 152.833333,22.7111111 C154.933333,22.7111111 156.255556,24.1888889 156.255556,26.6 L156.255556,33.9111111 C156.255556,34.7666667 156.722222,35.2333333 157.966667,35.3111111 L157.966667,36.1666667 L153.922222,36.1666667 L153.922222,26.6 C153.922222,24.6555556 153.222222,24.0333333 152.211111,24.0333333 C150.811111,24.0333333 149.333333,25.8222222 149.333333,28.4666667 L149.333333,33.9888889 C149.333333,34.8444444 149.8,35.3111111 151.122222,35.3888889 L151.122222,36.2444444 L145.133333,36.2444444 L145.133333,36.2444444 Z" id="Shape"></path>
                                <path d="M168.233333,31.7333333 C168,34.3777778 166.755556,36.7111111 163.722222,36.7111111 C160.922222,36.7111111 158.355556,34.2222222 158.355556,30.1 C158.355556,26.6777778 160.766667,22.7888889 164.111111,22.7888889 C166.444444,22.7888889 167.922222,24.2666667 167.922222,26.3666667 C167.922222,27.6888889 167.533333,28.3888889 166.522222,28.3888889 C165.744444,28.3888889 165.2,27.6888889 165.2,26.7555556 C165.2,25.5888889 165.588889,25.1222222 166.288889,25.1222222 C166.444444,25.1222222 166.6,25.2 166.677778,25.2 L166.755556,25.1222222 C166.366667,24.1111111 165.433333,23.5666667 164.422222,23.5666667 C162.4,23.5666667 161,25.6666667 161,29.5555556 C161,34.2222222 162.477778,35.5444444 164.033333,35.5444444 C166.288889,35.5444444 166.988889,33.5222222 167.3,31.5777778 L168.233333,31.7333333 L168.233333,31.7333333 Z" id="Shape"></path>
                                <path d="M175.933333,30.8 C175.933333,33.9111111 174.688889,35.6222222 173.211111,35.6222222 C172.355556,35.6222222 171.655556,34.9222222 171.655556,33.4444444 C171.655556,31.1111111 173.677778,30.0222222 175.855556,29.2444444 L175.855556,30.8 L175.933333,30.8 Z M179.666667,32.5111111 C179.588889,34.5333333 179.433333,35.1555556 178.888889,35.1555556 C178.5,35.1555556 178.344444,34.7666667 178.344444,33.9888889 L178.344444,26.2111111 C178.344444,24.1111111 177.177778,22.7111111 174.066667,22.7111111 C171.655556,22.7111111 169.866667,24.1888889 169.866667,26.0555556 C169.866667,27.1444444 170.411111,27.7666667 171.188889,27.7666667 C171.966667,27.7666667 172.588889,27.1444444 172.588889,26.1333333 C172.588889,25.3555556 172.277778,24.6555556 171.422222,24.5777778 C171.966667,23.8777778 172.822222,23.5666667 173.755556,23.5666667 C175.233333,23.5666667 175.933333,24.2666667 175.933333,25.8222222 L175.933333,28.0777778 C173.522222,28.9333333 169.166667,30.2555556 169.166667,33.4444444 C169.166667,35.3111111 170.411111,36.5555556 172.511111,36.5555556 C174.455556,36.5555556 175.311111,35.6222222 175.933333,34.3777778 L176.011111,34.3777778 C176.166667,35.8555556 176.944444,36.5555556 178.266667,36.5555556 C179.977778,36.5555556 180.522222,35.3111111 180.522222,32.3555556 L179.666667,32.5111111 L179.666667,32.5111111 Z" id="Shape"></path>
                                <path d="M180.911111,36.3222222 L180.911111,35.4666667 C182.077778,35.3888889 182.544444,34.9222222 182.544444,34.0666667 L182.544444,26.5222222 C182.544444,24.6555556 182.233333,24.0333333 180.833333,23.9555556 L180.833333,23.0222222 L184.644444,22.8666667 L184.644444,26.0555556 L184.722222,26.0555556 C185.111111,24.5777778 186.044444,22.7111111 187.677778,22.7111111 C188.688889,22.7111111 189.7,23.5666667 189.7,25.1222222 C189.7,26.2888889 189.155556,26.9111111 188.377778,26.9111111 C187.755556,26.9111111 187.133333,26.5222222 187.133333,25.2777778 C187.133333,24.5777778 187.522222,23.8777778 188.3,23.8777778 C188.144444,23.6444444 187.911111,23.5666667 187.6,23.5666667 C185.733333,23.5666667 184.877778,27.6888889 184.877778,30.1 L184.877778,34.0666667 C184.877778,34.9222222 185.344444,35.3888889 187.211111,35.4666667 L187.211111,36.3222222 L180.911111,36.3222222 L180.911111,36.3222222 Z" id="Shape"></path>
                                <path d="M192.344444,28.5444444 C192.344444,24.9666667 193.433333,23.5666667 194.988889,23.5666667 C196.466667,23.5666667 197.322222,24.9666667 197.322222,28.5444444 L192.344444,28.5444444 L192.344444,28.5444444 Z M199.966667,29.6333333 C199.966667,25.5888889 198.022222,22.7111111 194.988889,22.7111111 C191.877778,22.7111111 189.7,25.5888889 189.7,29.7111111 C189.7,33.1333333 191.955556,36.6333333 195.377778,36.6333333 C198.488889,36.6333333 199.811111,34.2222222 200.044444,31.8111111 L199.188889,31.6555556 C198.877778,33.5222222 198.022222,35.6222222 195.611111,35.6222222 C193.744444,35.6222222 192.344444,33.5222222 192.344444,29.6333333 L199.966667,29.6333333 L199.966667,29.6333333 Z" id="Shape"></path>
                                <path d="M200.977778,19.7555556 C201.988889,19.7555556 202.766667,20.5333333 202.766667,21.5444444 C202.766667,22.5555556 201.988889,23.3333333 200.977778,23.3333333 C199.966667,23.3333333 199.188889,22.5555556 199.188889,21.5444444 C199.188889,20.5333333 199.966667,19.7555556 200.977778,19.7555556 L200.977778,19.7555556 Z M200.977778,19.4444444 C199.811111,19.4444444 198.877778,20.3777778 198.877778,21.4666667 C198.877778,22.6333333 199.811111,23.5666667 200.977778,23.5666667 C202.144444,23.5666667 203,22.6333333 203,21.4666667 C203,20.3777778 202.066667,19.4444444 200.977778,19.4444444 L200.977778,19.4444444 Z M200.588889,21.6222222 L200.977778,21.6222222 C201.055556,21.6222222 201.288889,21.6222222 201.366667,21.8555556 C201.366667,22.1666667 201.366667,22.4777778 201.444444,22.6333333 L201.833333,22.6333333 C201.755556,22.4777778 201.755556,22.0888889 201.755556,22.0111111 C201.755556,21.5444444 201.677778,21.4666667 201.366667,21.3888889 L201.366667,21.3888889 C201.677778,21.3111111 201.911111,21.1555556 201.911111,20.8444444 C201.911111,20.5333333 201.677778,20.2222222 201.211111,20.2222222 L200.277778,20.2222222 L200.277778,22.6333333 L200.666667,22.6333333 L200.666667,21.6222222 L200.588889,21.6222222 Z M200.588889,20.6111111 L201.055556,20.6111111 C201.288889,20.6111111 201.366667,20.7666667 201.366667,21 C201.366667,21.2333333 201.288889,21.3888889 201.055556,21.3888889 L200.588889,21.3888889 L200.588889,20.6111111 L200.588889,20.6111111 Z" id="Shape"></path>
                                <path d="M3.18888889,36.2444444 L3.18888889,36.2444444 L3.18888889,36.2444444 L3.26666667,36.2444444 L3.34444444,36.2444444 L3.42222222,36.2444444 L3.5,36.2444444 L3.57777778,36.2444444 L3.65555556,36.2444444 L3.73333333,36.2444444 L3.81111111,36.2444444 L3.88888889,36.2444444 L3.96666667,36.2444444 L4.04444444,36.2444444 L4.12222222,36.2444444 L4.2,36.2444444 L4.27777778,36.2444444 L4.35555556,36.2444444 L4.43333333,36.2444444 L4.51111111,36.2444444 L4.58888889,36.2444444 L4.66666667,36.2444444 L4.74444444,36.2444444 C4.74444444,36.2444444 4.82222222,36.2444444 4.82222222,36.1666667 L4.9,36.1666667 C4.9,36.1666667 4.97777778,36.1666667 4.97777778,36.0888889 L5.05555556,36.0888889 C5.05555556,36.0888889 5.13333333,36.0888889 5.13333333,36.0111111 L5.21111111,36.0111111 L5.28888889,35.9333333 L5.36666667,35.9333333 L5.44444444,35.8555556 L5.52222222,35.8555556 L5.6,35.7777778 C5.6,35.7777778 5.6,35.7777778 5.67777778,35.7 L5.75555556,35.6222222 C5.75555556,35.6222222 5.75555556,35.6222222 5.83333333,35.5444444 L5.91111111,35.4666667 C5.91111111,35.4666667 5.91111111,35.3888889 5.98888889,35.3888889 L6.06666667,35.3111111 L6.14444444,35.2333333 L6.22222222,35.1555556 C6.22222222,35.1555556 6.22222222,35.0777778 6.3,35.0777778 C6.3,35 6.37777778,35 6.37777778,34.9222222 C6.37777778,34.9222222 6.37777778,34.8444444 6.45555556,34.8444444 C6.45555556,34.7666667 6.53333333,34.7666667 6.53333333,34.6888889 L6.61111111,34.6111111 C6.61111111,34.5333333 6.68888889,34.5333333 6.68888889,34.4555556 L6.76666667,34.3777778 C6.76666667,34.3 6.84444444,34.3 6.84444444,34.2222222 L6.92222222,34.1444444 C6.92222222,34.0666667 7,34.0666667 7,33.9888889 C7,33.9111111 7,33.9111111 7.07777778,33.8333333 C7.07777778,33.7555556 7.15555556,33.7555556 7.15555556,33.6777778 C7.15555556,33.6 7.23333333,33.6 7.23333333,33.5222222 C7.23333333,33.4444444 7.31111111,33.4444444 7.31111111,33.3666667 C7,33.1333333 7,33.0555556 7,32.9777778 C7,32.9 7.07777778,32.9 7.07777778,32.8222222 C7.07777778,32.7444444 7.15555556,32.7444444 7.15555556,32.6666667 C7.15555556,32.5888889 7.23333333,32.5888889 7.23333333,32.5111111 C7.23333333,32.4333333 7.31111111,32.4333333 7.31111111,32.3555556 C7.31111111,32.2777778 7.38888889,32.2 7.38888889,32.1222222 C7.38888889,32.0444444 7.46666667,31.9666667 7.46666667,31.8888889 C7.46666667,31.8111111 7.46666667,31.8111111 7.54444444,31.7333333 C7.62222222,31.5777778 7.62222222,31.5 7.7,31.3444444 C8.24444444,29.4 8.4,25.3555556 8.4,22.7111111 L8.4,5.75555556 L0,10.1888889 L0,27.6888889 C0,34.3777778 1.16666667,35.9333333 2.72222222,36.2444444 L2.72222222,36.2444444 L3.18888889,36.2444444 L3.18888889,36.2444444 Z" id="Shape"></path>
                                <path d="M5.28888889,38.0333333 C8.55555556,37.5666667 10.4222222,33.9888889 10.8888889,32.2 C11.5888889,29.7111111 11.7444444,26.6777778 11.7444444,23.1777778 L11.7444444,3.81111111 L8.24444444,5.67777778 L10.1111111,6.14444444 L10.1111111,21.7 C10.1111111,25.6666667 10.0333333,29.2444444 9.33333333,31.5777778 C8.4,34.8444444 6.76666667,36.1666667 5.6,36.6333333 L2.64444444,36.3222222 L2.64444444,36.3222222 C2.95555556,37.2555556 3.65555556,37.9555556 4.51111111,38.1111111 L5.28888889,38.0333333 L5.28888889,38.0333333 Z" id="Shape"></path>
                                <path d="M4.58888889,38.0333333 C4.9,38.8111111 5.6,39.5111111 6.45555556,39.6666667 L7.23333333,39.7444444 C10.6555556,39.7444444 12.9111111,36.4 13.6888889,34.6111111 C14.8555556,32.0444444 15.4,28.3111111 15.4,23.0222222 L15.4,1.94444444 L11.8222222,3.88888889 L13.6888889,4.27777778 L13.6888889,22.3222222 C13.6888889,26.8333333 13.5333333,30.6444444 12.4444444,33.5222222 C11.5111111,36.0111111 9.8,37.8777778 7.62222222,38.4222222 L5.28888889,38.1111111 L4.58888889,38.0333333 L4.58888889,38.0333333 Z" id="Shape"></path>
                                <path d="M15.3222222,1.94444444 L17.2666667,2.33333333 L17.2666667,22.2444444 C17.2666667,28.3888889 16.6444444,32.5111111 15.2444444,35.3888889 C14,38.0333333 11.8222222,39.7444444 9.8,40.0555556 L7.15555556,39.7444444 L6.37777778,39.6666667 C7,40.7555556 8.16666667,41.3 9.33333333,41.3777778 C10.9666667,41.4555556 12.2888889,40.7555556 13.6111111,39.9 C17.6555556,37.1 18.9,30.8777778 18.9,22.4777778 L18.9,0 L15.3222222,1.94444444 L15.3222222,1.94444444 Z" id="Shape"></path>
                            </g>
                        </g>
                    </g>
                </g>
            </g>
        </g>
    </g>
</svg>