<?xml version="1.0" encoding="utf-8"?>
<!-- Generator: Adobe Illustrator 18.1.1, SVG Export Plug-In . SVG Version: 6.00 Build 0)  -->
<!DOCTYPE svg PUBLIC "-//W3C//DTD SVG 1.1//EN" "http://www.w3.org/Graphics/SVG/1.1/DTD/svg11.dtd">
<svg version="1.1" id="Layer_1" xmlns="http://www.w3.org/2000/svg" xmlns:xlink="http://www.w3.org/1999/xlink" x="0px" y="0px"
	 viewBox="0 0 261.8 53.5" enable-background="new 0 0 261.8 53.5" xml:space="preserve">
<g>
	<path fill="#FFFFFF" d="M35,22.3h8.5v1.1C41.2,23.5,41,24,41,25.8v15.3c0,3.3,1.9,5,4.5,5c3,0,4.9-1.9,4.9-5.1V26.2
		c0-1.8-0.6-2.6-2.7-2.8v-1.1h6.8v1.1c-2.2,0.1-2.7,0.9-2.7,2.8v14.1c0,4.4-1.9,7-6.9,7c-5,0-7.3-2.7-7.3-7.1V25.8
		c0-1.8-0.2-2.3-2.5-2.4V22.3z"/>
	<path fill="#FFFFFF" d="M53.9,46.6v-1.1c1.7-0.1,2.3-0.7,2.3-1.8V32.6c0-1.5-0.4-1.8-2.3-1.9v-1.1l5.2-0.2v3.4h0.1
		c1-2,2.3-3.6,4.8-3.6c2.9,0,4.3,1.9,4.3,5v9.4c0,1.2,0.5,1.7,2.2,1.8v1.1h-5.2V34c0-2.3-0.9-3.1-2.1-3.1c-1.9,0-3.8,2.5-3.8,6v6.9
		c0,1.1,0.6,1.7,2.3,1.8v1.1H53.9z"/>
	<path fill="#FFFFFF" d="M71.2,46.6v-1.1c1.7-0.1,2.3-0.7,2.3-1.8V32.4c0-1.5-0.4-1.8-2.3-1.8v-1.1l5.3-0.2v14.5
		c0,1.1,0.6,1.7,2.3,1.8v1.1H71.2z M76.5,24.2c0,1.3-0.7,2.3-1.8,2.3c-1.1,0-1.8-0.9-1.8-2.3c0-1.4,0.7-2.3,1.8-2.3
		C75.8,21.9,76.5,22.8,76.5,24.2"/>
	<path fill="#FFFFFF" d="M84.2,23.1v6.5h4.3V31h-4.3v12.5c0,1.6,0.5,2.2,1.5,2.2c1.2,0,2.1-0.7,2.1-4.5v-1h1.1v1.7
		c0,3.6-1.3,5.2-4,5.2c-2.3,0-3.8-1.5-3.8-4.3V31H79V30c2.6-1.1,3.9-2.3,4.1-6.8H84.2z"/>
	<path fill="#FFFFFF" d="M93.7,36.7c0-4.5,1.3-6.3,3.4-6.3c1.9,0,2.9,1.8,2.9,6.3H93.7z M103.5,38c0-5.1-2.5-8.8-6.4-8.8
		c-4,0-6.8,3.7-6.8,8.9c0,4.4,2.9,8.9,7.3,8.9c4,0,5.7-3.1,6-6.2l-1.1-0.2c-0.4,2.4-1.5,5.1-4.5,5.1c-2.4,0-4.2-2.7-4.2-7.7H103.5z"
		/>
	<path fill="#FFFFFF" d="M108.7,38.3c0-5.5,1.3-7.7,3.2-7.7c2.2,0,3.5,2.6,3.5,7.7c0,6.1-1.9,7.7-3.8,7.7
		C109.9,45.9,108.7,43.7,108.7,38.3 M113.1,23.4c1.8,0.1,2.3,0.3,2.3,1.8v6.4l-0.1,0c-0.7-1.4-1.9-2.4-3.6-2.4c-3.7,0-6.5,3.8-6.5,9
		c0,5.6,2.9,8.8,6.1,8.8c2.2,0,3.3-1.3,4.1-2.9h0.1v2.5l5-0.2v-1.1c-1.4,0-2.1-0.5-2.1-2.5V22l-5.4,0.2V23.4z"/>
	<path fill="#FFFFFF" d="M121.4,46.6v-1.1c2.1-0.1,2.5-0.6,2.5-2.4V25.8c0-1.8-0.4-2.3-2.5-2.4v-1.1h8.6v1.1
		c-2.2,0.1-2.6,0.6-2.6,2.4v7.3h7.6v-7.3c0-1.8-0.4-2.3-2.6-2.4v-1.1h8.6v1.1c-2.1,0.1-2.5,0.6-2.5,2.4v17.3c0,1.8,0.4,2.3,2.5,2.4
		v1.1h-8.6v-1.1c2.2-0.1,2.6-0.6,2.6-2.4v-8.6h-7.6v8.6c0,1.8,0.4,2.3,2.6,2.4v1.1H121.4z"/>
	<path fill="#FFFFFF" d="M145,36.7c0-4.5,1.3-6.3,3.4-6.3c1.9,0,2.9,1.8,2.9,6.3H145z M154.7,38c0-5.1-2.5-8.8-6.4-8.8
		c-4,0-6.8,3.7-6.8,8.9c0,4.4,2.9,8.9,7.3,8.9c4,0,5.7-3.1,6-6.2l-1.1-0.2c-0.4,2.4-1.5,5.1-4.5,5.1c-2.4,0-4.2-2.7-4.2-7.7H154.7z"
		/>
	<path fill="#FFFFFF" d="M163.9,39.6c0,4-1.6,6.1-3.4,6.1c-1.1,0-1.9-0.9-1.9-2.8c0-3,2.6-4.4,5.4-5.4V39.6z M168.7,41.7
		c-0.1,2.6-0.4,3.3-1,3.3c-0.5,0-0.7-0.5-0.7-1.5v-9.9c0-2.7-1.5-4.5-5.5-4.5c-3.1,0-5.4,1.9-5.4,4.3c0,1.4,0.7,2.1,1.7,2.1
		c1,0,1.8-0.8,1.8-2.1c0-1-0.4-1.9-1.5-2c0.7-0.9,1.8-1.3,3-1.3c1.9,0,2.8,0.9,2.8,2.9v2.9c-3.1,1.1-8.6,2.8-8.6,6.8
		c0,2.3,1.6,4,4.3,4c2.5,0,3.5-1.2,4.4-2.8h0.1c0.2,1.9,1.2,2.8,2.9,2.8c2.2,0,2.9-1.6,2.9-5.3L168.7,41.7z"/>
	<path fill="#FFFFFF" d="M169.3,46.6v-1.1c1.7-0.1,2.3-0.7,2.3-1.8V25.3c0-1.2-0.6-1.8-2.3-1.9v-1.1l5.4-0.2v21.7
		c0,1.1,0.6,1.7,2.3,1.8v1.1H169.3z"/>
	<path fill="#FFFFFF" d="M182.1,23.1v6.5h4.3V31h-4.3v12.5c0,1.6,0.5,2.2,1.5,2.2c1.2,0,2.1-0.7,2.1-4.5v-1h1.1v1.7
		c0,3.6-1.3,5.2-4,5.2c-2.3,0-3.8-1.5-3.8-4.3V31h-2.2V30c2.6-1.1,3.9-2.3,4.1-6.8H182.1z"/>
	<path fill="#FFFFFF" d="M186.6,46.6v-1.1c1.7-0.1,2.3-0.7,2.3-1.8V25.2c0-1.5-0.4-1.8-2.3-1.8v-1.1L192,22v10.4h0.1
		c0.7-1.6,2.1-3.2,4.4-3.2c2.7,0,4.4,1.9,4.4,5v9.4c0,1.1,0.6,1.7,2.2,1.8v1.1h-5.2V34.2c0-2.5-0.9-3.3-2.2-3.3
		c-1.8,0-3.7,2.3-3.7,5.7v7.1c0,1.1,0.6,1.7,2.3,1.8v1.1H186.6z"/>
	<path fill="#FFFFFF" d="M216.3,40.8c-0.3,3.4-1.9,6.4-5.8,6.4c-3.6,0-6.9-3.2-6.9-8.5c0-4.4,3.1-9.4,7.4-9.4c3,0,4.9,1.9,4.9,4.6
		c0,1.7-0.5,2.6-1.8,2.6c-1,0-1.7-0.9-1.7-2.1c0-1.5,0.5-2.1,1.4-2.1c0.2,0,0.4,0.1,0.5,0.1l0.1-0.1c-0.5-1.3-1.7-2-3-2
		c-2.6,0-4.4,2.7-4.4,7.7c0,6,1.9,7.7,3.9,7.7c2.9,0,3.8-2.6,4.2-5.1L216.3,40.8z"/>
	<path fill="#FFFFFF" d="M226.2,39.6c0,4-1.6,6.2-3.5,6.2c-1.1,0-2-0.9-2-2.8c0-3,2.6-4.4,5.4-5.4V39.6z M231,41.8
		c-0.1,2.6-0.3,3.4-1,3.4c-0.5,0-0.7-0.5-0.7-1.5v-10c0-2.7-1.5-4.5-5.5-4.5c-3.1,0-5.4,1.9-5.4,4.3c0,1.4,0.7,2.2,1.7,2.2
		c1,0,1.8-0.8,1.8-2.1c0-1-0.4-1.9-1.5-2c0.7-0.9,1.8-1.3,3-1.3c1.9,0,2.8,0.9,2.8,2.9v2.9c-3.1,1.1-8.7,2.8-8.7,6.9
		c0,2.4,1.6,4,4.3,4c2.5,0,3.6-1.2,4.4-2.8h0.1c0.2,1.9,1.2,2.8,2.9,2.8c2.2,0,2.9-1.6,2.9-5.4L231,41.8z"/>
	<path fill="#FFFFFF" d="M232.6,46.7v-1.1c1.5-0.1,2.1-0.7,2.1-1.8v-9.7c0-2.4-0.4-3.2-2.2-3.3v-1.2l4.9-0.2v4.1h0.1
		c0.5-1.9,1.7-4.3,3.8-4.3c1.3,0,2.6,1.1,2.6,3.1c0,1.5-0.7,2.3-1.7,2.3c-0.8,0-1.6-0.5-1.6-2.1c0-0.9,0.5-1.8,1.5-1.8
		c-0.2-0.3-0.5-0.4-0.9-0.4c-2.4,0-3.5,5.3-3.5,8.4v5.1c0,1.1,0.6,1.7,3,1.8v1.1H232.6z"/>
	<path fill="#FFFFFF" d="M247.3,36.7c0-4.6,1.4-6.4,3.4-6.4c1.9,0,3,1.8,3,6.4H247.3z M257.1,38.1c0-5.2-2.5-8.9-6.4-8.9
		c-4,0-6.8,3.7-6.8,9c0,4.4,2.9,8.9,7.3,8.9c4,0,5.7-3.1,6-6.2l-1.1-0.2c-0.4,2.4-1.5,5.1-4.6,5.1c-2.4,0-4.2-2.7-4.2-7.7H257.1z"/>
	<path fill="#FFFFFF" d="M258.4,25.4c1.3,0,2.3,1,2.3,2.3c0,1.3-1,2.3-2.3,2.3c-1.3,0-2.3-1-2.3-2.3
		C256.1,26.4,257.1,25.4,258.4,25.4 M258.4,25c-1.5,0-2.7,1.2-2.7,2.6c0,1.5,1.2,2.7,2.7,2.7c1.5,0,2.6-1.2,2.6-2.7
		C261,26.2,259.8,25,258.4,25 M257.9,27.8h0.5c0.1,0,0.4,0,0.5,0.3c0,0.4,0,0.8,0.1,1h0.5c-0.1-0.2-0.1-0.7-0.1-0.8
		c0-0.6-0.1-0.7-0.5-0.8v0c0.4-0.1,0.7-0.3,0.7-0.7c0-0.4-0.3-0.8-0.9-0.8h-1.2v3.1h0.5V27.8z M257.9,26.5h0.6
		c0.3,0,0.4,0.2,0.4,0.5c0,0.3-0.1,0.5-0.4,0.5h-0.6V26.5z"/>
	<path fill="#FFFFFF" d="M4.1,46.6L4.1,46.6L4.1,46.6c0.1,0,0.1,0,0.1,0c0,0,0,0,0.1,0c0,0,0,0,0.1,0c0,0,0,0,0.1,0c0,0,0,0,0.1,0
		c0,0,0,0,0.1,0c0,0,0.1,0,0.1,0c0,0,0,0,0.1,0c0,0,0.1,0,0.1,0c0,0,0,0,0.1,0c0,0,0.1,0,0.1,0c0,0,0,0,0.1,0c0,0,0.1,0,0.1,0
		c0,0,0,0,0.1,0c0,0,0.1,0,0.1,0c0,0,0,0,0.1,0c0,0,0.1,0,0.1,0c0,0,0,0,0.1,0c0,0,0.1,0,0.1,0c0,0,0,0,0.1,0c0,0,0.1,0,0.1-0.1
		c0,0,0,0,0.1,0c0,0,0.1,0,0.1-0.1c0,0,0,0,0.1,0c0,0,0.1,0,0.1-0.1c0,0,0,0,0.1,0c0,0,0.1-0.1,0.1-0.1c0,0,0,0,0.1,0
		c0,0,0.1-0.1,0.1-0.1c0,0,0,0,0.1,0c0,0,0.1-0.1,0.1-0.1c0,0,0,0,0.1-0.1c0,0,0.1-0.1,0.1-0.1c0,0,0,0,0.1-0.1c0,0,0.1-0.1,0.1-0.1
		c0,0,0-0.1,0.1-0.1c0,0,0.1-0.1,0.1-0.1c0,0,0.1-0.1,0.1-0.1c0,0,0.1-0.1,0.1-0.1c0,0,0-0.1,0.1-0.1c0-0.1,0.1-0.1,0.1-0.2
		c0,0,0-0.1,0.1-0.1c0-0.1,0.1-0.1,0.1-0.2c0,0,0.1-0.1,0.1-0.1c0-0.1,0.1-0.1,0.1-0.2c0,0,0.1-0.1,0.1-0.1c0-0.1,0.1-0.1,0.1-0.2
		c0,0,0.1-0.1,0.1-0.1c0-0.1,0.1-0.1,0.1-0.2c0-0.1,0-0.1,0.1-0.2c0-0.1,0.1-0.1,0.1-0.2c0-0.1,0.1-0.1,0.1-0.2
		c0-0.1,0.1-0.1,0.1-0.2C9,42.6,9,42.5,9,42.4c0-0.1,0.1-0.1,0.1-0.2c0-0.1,0.1-0.1,0.1-0.2c0-0.1,0.1-0.1,0.1-0.2
		c0-0.1,0.1-0.1,0.1-0.2c0-0.1,0.1-0.2,0.1-0.3c0-0.1,0.1-0.2,0.1-0.3c0-0.1,0-0.1,0.1-0.2c0.1-0.2,0.1-0.3,0.2-0.5
		c0.7-2.5,0.9-7.7,0.9-11.1V7.4L0,13.1v22.5c0,8.6,1.5,10.6,3.5,11c0,0,0,0,0,0L4.1,46.6z"/>
	<path fill="#FFFFFF" d="M6.8,48.9c4.2-0.6,6.6-5.2,7.2-7.5c0.9-3.2,1.1-7.1,1.1-11.6V4.9l-4.5,2.4L13,7.9v20c0,5.1-0.1,9.7-1,12.7
		c-1.2,4.2-3.3,5.9-4.8,6.5l-3.8-0.4c0,0,0,0,0,0c0.4,1.2,1.3,2.1,2.4,2.3L6.8,48.9z"/>
	<path fill="#FFFFFF" d="M5.9,48.9c0.4,1,1.3,1.9,2.4,2.1l1,0.1c4.4,0,7.3-4.3,8.3-6.6c1.5-3.3,2.2-8.1,2.2-14.9V2.5l-4.6,2.5
		l2.4,0.5v23.2c0,5.8-0.2,10.7-1.6,14.4c-1.2,3.2-3.4,5.6-6.2,6.3l-3-0.4L5.9,48.9z"/>
	<path fill="#FFFFFF" d="M19.7,2.5L22.2,3v25.6c0,7.9-0.8,13.2-2.6,16.9c-1.6,3.4-4.4,5.6-7,6l-3.4-0.4l-1-0.1
		c0.8,1.4,2.3,2.1,3.8,2.2c2.1,0.1,3.8-0.8,5.5-1.9c5.2-3.6,6.8-11.6,6.8-22.4V0L19.7,2.5z"/>
</g>
</svg>
