<?xml version="1.0" encoding="UTF-8" standalone="no"?>
<svg width="35px" height="34px" viewBox="0 0 35 34" version="1.1" xmlns="http://www.w3.org/2000/svg" xmlns:xlink="http://www.w3.org/1999/xlink">
    <!-- Generator: Sketch 3.8.2 (29753) - http://www.bohemiancoding.com/sketch -->
    <title>Video</title>
    <desc>Created with Sketch.</desc>
    <defs></defs>
    <g id="Welcome" stroke="none" stroke-width="1" fill="none" fill-rule="evenodd">
        <g id="Landing-Desktop" transform="translate(-888.000000, -688.000000)">
            <g id="Icons" transform="translate(0.000000, 658.000000)">
                <g id="Video" transform="translate(877.000000, 22.000000)">
                    <g id="Group-10" transform="translate(11.000000, 8.000000)">
                        <g id="Group" transform="translate(11.331250, 0.000000)">
                            <g id="Shape">
                                <polyline fill="#FFB700" points="1.1921875 1.09570312 8.684375 8.73242188 3.7078125 8.73242188"></polyline>
                                <path d="M8.684375,9.28580729 L3.7078125,9.28580729 C3.3796875,9.28580729 3.1609375,9.06445313 3.1609375,8.73242188 C3.1609375,8.40039063 3.3796875,8.17903646 3.7078125,8.17903646 L7.371875,8.17903646 L0.7546875,1.48307292 C0.5359375,1.26171875 0.5359375,0.9296875 0.7546875,0.708333333 C0.9734375,0.486979167 1.3015625,0.486979167 1.5203125,0.708333333 L9.0671875,8.34505208 C9.23125,8.51106771 9.2859375,8.73242188 9.1765625,8.95377604 C9.121875,9.17513021 8.903125,9.28580729 8.684375,9.28580729 L8.684375,9.28580729 Z" fill="#37474F"></path>
                            </g>
                            <path d="M8.6296875,9.28580729 L3.7625,9.28580729 C3.54375,9.28580729 3.325,9.17513021 3.2703125,8.95377604 C3.215625,8.73242187 3.215625,8.51106771 3.3796875,8.34505208 L10.871875,0.708333333 C11.090625,0.486979167 11.41875,0.486979167 11.6375,0.708333333 C11.85625,0.9296875 11.85625,1.26171875 11.6375,1.48307292 L5.075,8.17903646 L8.684375,8.17903646 C9.0125,8.17903646 9.23125,8.40039062 9.23125,8.73242187 C9.23125,9.06445312 8.9578125,9.28580729 8.6296875,9.28580729 L8.6296875,9.28580729 Z" id="Shape" fill="#37474F"></path>
                        </g>
                        <g id="Group" transform="translate(0.000000, 7.194010)">
                            <path d="M34.1796875,21.6816406 C34.1796875,23.7845052 32.4296875,25.3339844 30.296875,25.3339844 L4.7578125,25.3339844 C2.6796875,25.3339844 0.765625,23.7845052 0.765625,21.6816406 L0.765625,4.74804687 C0.765625,2.64518229 2.625,0.985026042 4.7578125,0.985026042 L30.296875,0.985026042 C32.375,0.985026042 34.1796875,2.64518229 34.1796875,4.74804687 L34.1796875,21.6816406 L34.1796875,21.6816406 Z" id="Shape" fill="#FFAB00"></path>
                            <path d="M30.296875,25.8873698 L4.7578125,25.8873698 C2.2421875,25.8873698 0.21875,24.0058594 0.21875,21.6816406 L0.21875,4.74804688 C0.21875,2.42382813 2.296875,0.431640625 4.7578125,0.431640625 L30.296875,0.431640625 C32.703125,0.431640625 34.7265625,2.36848958 34.7265625,4.74804688 L34.7265625,21.6816406 C34.7265625,24.0058594 32.8125,25.8873698 30.296875,25.8873698 L30.296875,25.8873698 Z M4.8125,1.53841146 C2.953125,1.53841146 1.3671875,3.03255208 1.3671875,4.74804688 L1.3671875,21.6816406 C1.3671875,23.3971354 2.8984375,24.780599 4.8125,24.780599 L30.3515625,24.780599 C32.2109375,24.780599 33.6875,23.3971354 33.6875,21.6816406 L33.6875,4.74804688 C33.6875,2.97721354 32.2109375,1.53841146 30.3515625,1.53841146 L4.8125,1.53841146 L4.8125,1.53841146 Z" id="Shape" fill="#37474F"></path>
                        </g>
                        <g id="Group" transform="translate(2.581250, 9.407552)" fill="#37474F">
                            <path d="M20.1140625,16.4244792 C20.1140625,18.7486979 18.528125,20.3535156 16.23125,20.3535156 L5.4578125,20.3535156 C3.1609375,20.3535156 0.9734375,18.8040365 0.9734375,16.4244792 L0.9734375,5.52278646 C0.9734375,3.19856771 3.1609375,0.985026042 5.4578125,0.985026042 L16.23125,0.985026042 C18.528125,0.985026042 20.1140625,3.19856771 20.1140625,5.52278646 L20.1140625,16.4244792 L20.1140625,16.4244792 Z" id="Shape"></path>
                            <path d="M16.23125,20.906901 L5.4578125,20.906901 C2.996875,20.906901 0.4265625,19.2467448 0.4265625,16.4244792 L0.4265625,5.52278646 C0.4265625,2.86653646 2.8328125,0.431640625 5.4578125,0.431640625 L16.23125,0.431640625 C18.965625,0.431640625 20.6609375,3.08789063 20.6609375,5.52278646 L20.6609375,16.4244792 C20.6609375,19.0807292 18.85625,20.906901 16.23125,20.906901 L16.23125,20.906901 Z M5.4578125,1.53841146 C3.434375,1.53841146 1.5203125,3.47526042 1.5203125,5.52278646 L1.5203125,16.4244792 C1.5203125,18.5273438 3.54375,19.8001302 5.4578125,19.8001302 L16.23125,19.8001302 C18.2546875,19.8001302 19.5671875,18.4720052 19.5671875,16.4244792 L19.5671875,5.52278646 C19.5671875,3.5859375 18.309375,1.53841146 16.23125,1.53841146 L5.4578125,1.53841146 L5.4578125,1.53841146 Z" id="Shape"></path>
                        </g>
                        <g id="Group" transform="translate(25.003125, 11.067708)">
                            <path d="M6.16875,3.64127604 C6.16875,5.02473958 5.075,6.13151042 3.7078125,6.13151042 C2.340625,6.13151042 1.246875,5.02473958 1.246875,3.64127604 C1.246875,2.2578125 2.340625,1.15104167 3.7078125,1.15104167 C5.0203125,1.09570313 6.16875,2.2578125 6.16875,3.64127604 L6.16875,3.64127604 Z" id="Shape" fill="#FFFFFF"></path>
                            <path d="M3.653125,6.68489583 C1.9578125,6.68489583 0.6453125,5.30143229 0.6453125,3.64127604 C0.6453125,1.92578125 2.0125,0.59765625 3.653125,0.59765625 C5.29375,0.59765625 6.6609375,1.98111979 6.6609375,3.64127604 C6.715625,5.30143229 5.3484375,6.68489583 3.653125,6.68489583 L3.653125,6.68489583 Z M3.653125,1.64908854 C2.559375,1.64908854 1.7390625,2.53450521 1.7390625,3.5859375 C1.7390625,4.69270833 2.6140625,5.52278646 3.653125,5.52278646 C4.6921875,5.52278646 5.5671875,4.63736979 5.5671875,3.5859375 C5.621875,2.53450521 4.746875,1.64908854 3.653125,1.64908854 L3.653125,1.64908854 Z" id="Shape" fill="#37474F"></path>
                        </g>
                        <g id="Group" transform="translate(26.096875, 18.815104)">
                            <g transform="translate(0.000000, 4.427083)" id="Shape">
                                <path d="M0.9734375,0.985026042 L4.2546875,0.985026042" fill="#FFAB00"></path>
                                <path d="M4.2546875,1.53841146 L0.9734375,1.53841146 C0.6453125,1.53841146 0.4265625,1.31705729 0.4265625,0.985026042 C0.4265625,0.652994792 0.6453125,0.431640625 0.9734375,0.431640625 L4.2546875,0.431640625 C4.5828125,0.431640625 4.8015625,0.652994792 4.8015625,0.985026042 C4.8015625,1.31705729 4.5828125,1.53841146 4.2546875,1.53841146 L4.2546875,1.53841146 Z" fill="#37474F"></path>
                            </g>
                            <g transform="translate(0.000000, 2.213542)" id="Shape">
                                <path d="M0.9734375,0.985026042 L4.2546875,0.985026042" fill="#FFAB00"></path>
                                <path d="M4.2546875,1.53841146 L0.9734375,1.53841146 C0.6453125,1.53841146 0.4265625,1.31705729 0.4265625,0.985026042 C0.4265625,0.652994792 0.6453125,0.431640625 0.9734375,0.431640625 L4.2546875,0.431640625 C4.5828125,0.431640625 4.8015625,0.652994792 4.8015625,0.985026042 C4.8015625,1.31705729 4.5828125,1.53841146 4.2546875,1.53841146 L4.2546875,1.53841146 Z" fill="#37474F"></path>
                            </g>
                            <g id="Shape">
                                <path d="M0.9734375,0.985026042 L4.2546875,0.985026042" fill="#FFAB00"></path>
                                <path d="M4.2546875,1.53841146 L0.9734375,1.53841146 C0.6453125,1.53841146 0.4265625,1.31705729 0.4265625,0.985026042 C0.4265625,0.652994792 0.6453125,0.431640625 0.9734375,0.431640625 L4.2546875,0.431640625 C4.5828125,0.431640625 4.8015625,0.652994792 4.8015625,0.985026042 C4.8015625,1.31705729 4.5828125,1.53841146 4.2546875,1.53841146 L4.2546875,1.53841146 Z" fill="#37474F"></path>
                            </g>
                        </g>
                        <g id="Group" transform="translate(6.562500, 17.309896)" fill="#FFFFFF">
                            <g id="Shape">
                                <g>
                                    <path d="M0.8203125,1.05143229 C0.984375,1.05143229 1.1484375,0.885416667 1.1484375,0.719401042 C1.1484375,0.553385417 0.984375,0.387369792 0.8203125,0.387369792 C0.65625,0.387369792 0.4921875,0.553385417 0.4921875,0.719401042 C0.4921875,0.885416667 0.65625,1.05143229 0.8203125,1.05143229 L0.8203125,1.05143229 Z"></path>
                                    <path d="M0.8203125,1.328125 C0.4921875,1.328125 0.21875,1.05143229 0.21875,0.719401042 C0.21875,0.387369792 0.4921875,0.110677083 0.8203125,0.110677083 C1.1484375,0.110677083 1.421875,0.387369792 1.421875,0.719401042 C1.421875,1.05143229 1.1484375,1.328125 0.8203125,1.328125 L0.8203125,1.328125 Z"></path>
                                </g>
                                <g transform="translate(0.000000, 2.213542)">
                                    <path d="M0.8203125,1.16210938 C0.984375,1.16210938 1.1484375,0.99609375 1.1484375,0.830078125 C1.1484375,0.6640625 0.984375,0.498046875 0.8203125,0.498046875 C0.65625,0.498046875 0.4921875,0.6640625 0.4921875,0.830078125 C0.4921875,0.99609375 0.65625,1.16210938 0.8203125,1.16210938 L0.8203125,1.16210938 Z"></path>
                                    <path d="M0.8203125,1.43880208 L0.8203125,1.43880208 C0.4921875,1.43880208 0.21875,1.16210937 0.21875,0.830078125 C0.21875,0.498046875 0.4921875,0.221354167 0.8203125,0.221354167 C1.1484375,0.221354167 1.421875,0.498046875 1.421875,0.830078125 C1.421875,1.16210937 1.1484375,1.43880208 0.8203125,1.43880208 L0.8203125,1.43880208 Z M0.8203125,0.774739583 C0.765625,0.774739583 0.765625,0.774739583 0.765625,0.830078125 C0.765625,0.885416667 0.765625,0.885416667 0.8203125,0.885416667 L0.8203125,1.16210937 L0.8203125,0.885416667 C0.875,0.885416667 0.875,0.830078125 0.8203125,0.774739583 L0.8203125,0.774739583 L0.8203125,0.774739583 Z"></path>
                                </g>
                                <g transform="translate(0.000000, 4.427083)">
                                    <path d="M0.8203125,1.21744792 C0.984375,1.21744792 1.1484375,1.05143229 1.1484375,0.885416667 C1.1484375,0.719401042 0.984375,0.553385417 0.8203125,0.553385417 C0.65625,0.553385417 0.4921875,0.719401042 0.4921875,0.885416667 C0.4921875,1.10677083 0.65625,1.21744792 0.8203125,1.21744792 L0.8203125,1.21744792 Z"></path>
                                    <path d="M0.8203125,1.49414062 C0.4921875,1.49414062 0.21875,1.21744792 0.21875,0.885416667 C0.21875,0.553385417 0.4921875,0.276692708 0.8203125,0.276692708 C1.1484375,0.276692708 1.421875,0.553385417 1.421875,0.885416667 C1.421875,1.27278646 1.1484375,1.49414062 0.8203125,1.49414062 L0.8203125,1.49414062 Z"></path>
                                </g>
                            </g>
                            <g transform="translate(11.878125, 0.000000)" id="Shape">
                                <g>
                                    <path d="M1.028125,1.05143229 C1.1921875,1.05143229 1.35625,0.885416667 1.35625,0.719401042 C1.35625,0.553385417 1.1921875,0.387369792 1.028125,0.387369792 C0.8640625,0.387369792 0.7,0.553385417 0.7,0.719401042 C0.7,0.885416667 0.809375,1.05143229 1.028125,1.05143229 L1.028125,1.05143229 Z"></path>
                                    <path d="M1.028125,1.328125 C0.7,1.328125 0.4265625,1.05143229 0.4265625,0.719401042 C0.4265625,0.387369792 0.7,0.110677083 1.028125,0.110677083 C1.35625,0.110677083 1.6296875,0.387369792 1.6296875,0.719401042 C1.6296875,1.05143229 1.35625,1.328125 1.028125,1.328125 L1.028125,1.328125 Z"></path>
                                </g>
                                <g transform="translate(0.000000, 2.213542)">
                                    <path d="M1.028125,1.16210938 C1.1921875,1.16210938 1.35625,0.99609375 1.35625,0.830078125 C1.35625,0.6640625 1.1921875,0.498046875 1.028125,0.498046875 C0.8640625,0.498046875 0.7,0.6640625 0.7,0.830078125 C0.7,0.99609375 0.809375,1.16210938 1.028125,1.16210938 L1.028125,1.16210938 Z"></path>
                                    <path d="M1.028125,1.43880208 L1.028125,1.43880208 C0.7,1.43880208 0.4265625,1.16210937 0.4265625,0.830078125 C0.4265625,0.498046875 0.7,0.221354167 1.028125,0.221354167 C1.35625,0.221354167 1.6296875,0.498046875 1.6296875,0.830078125 C1.6296875,1.16210937 1.35625,1.43880208 1.028125,1.43880208 L1.028125,1.43880208 Z M1.028125,0.774739583 C0.9734375,0.774739583 0.9734375,0.774739583 0.9734375,0.830078125 C0.9734375,0.885416667 0.9734375,0.885416667 1.028125,0.885416667 L1.028125,1.16210937 L1.028125,0.885416667 C1.028125,0.885416667 1.0828125,0.830078125 1.028125,0.774739583 L1.028125,0.774739583 L1.028125,0.774739583 Z"></path>
                                </g>
                                <g transform="translate(0.000000, 4.427083)">
                                    <path d="M1.028125,1.21744792 C1.1921875,1.21744792 1.35625,1.05143229 1.35625,0.885416667 C1.35625,0.719401042 1.1921875,0.553385417 1.028125,0.553385417 C0.8640625,0.553385417 0.7,0.719401042 0.7,0.885416667 C0.7,1.10677083 0.809375,1.21744792 1.028125,1.21744792 L1.028125,1.21744792 Z"></path>
                                    <path d="M1.028125,1.49414062 C0.7,1.49414062 0.4265625,1.21744792 0.4265625,0.885416667 C0.4265625,0.553385417 0.7,0.276692708 1.028125,0.276692708 C1.35625,0.276692708 1.6296875,0.553385417 1.6296875,0.885416667 C1.6296875,1.27278646 1.35625,1.49414062 1.028125,1.49414062 L1.028125,1.49414062 Z"></path>
                                </g>
                            </g>
                        </g>
                        <g id="Group" transform="translate(26.250000, 25.455729)" fill="#37474F">
                            <g id="Shape">
                                <path d="M1.1484375,1.09570313 C1.1484375,1.37239583 0.9296875,1.59375 0.6015625,1.59375 C0.328125,1.59375 0.109375,1.37239583 0.109375,1.09570313 C0.109375,0.819010417 0.328125,0.542317708 0.6015625,0.542317708 C0.9296875,0.542317708 1.1484375,0.819010417 1.1484375,1.09570313 L1.1484375,1.09570313 Z"></path>
                                <path d="M2.953125,1.09570313 C2.953125,1.37239583 2.734375,1.59375 2.40625,1.59375 C2.1328125,1.59375 1.859375,1.37239583 1.859375,1.09570313 C1.859375,0.819010417 2.078125,0.542317708 2.40625,0.542317708 C2.6796875,0.542317708 2.953125,0.819010417 2.953125,1.09570313 L2.953125,1.09570313 Z"></path>
                                <path d="M4.703125,1.09570313 C4.703125,1.37239583 4.484375,1.59375 4.15625,1.59375 C3.8828125,1.59375 3.609375,1.37239583 3.609375,1.09570313 C3.609375,0.819010417 3.828125,0.542317708 4.15625,0.542317708 C4.484375,0.542317708 4.703125,0.819010417 4.703125,1.09570313 L4.703125,1.09570313 Z"></path>
                            </g>
                            <g transform="translate(0.000000, 1.660156)" id="Shape">
                                <path d="M1.1484375,1.09570313 C1.1484375,1.37239583 0.9296875,1.64908854 0.6015625,1.64908854 C0.328125,1.64908854 0.109375,1.42773438 0.109375,1.09570313 C0.109375,0.819010417 0.328125,0.542317708 0.6015625,0.542317708 C0.9296875,0.59765625 1.1484375,0.819010417 1.1484375,1.09570313 L1.1484375,1.09570313 Z"></path>
                                <path d="M2.953125,1.09570313 C2.953125,1.37239583 2.734375,1.64908854 2.40625,1.64908854 C2.1328125,1.64908854 1.859375,1.42773438 1.859375,1.09570313 C1.859375,0.819010417 2.078125,0.542317708 2.40625,0.542317708 C2.6796875,0.59765625 2.953125,0.819010417 2.953125,1.09570313 L2.953125,1.09570313 Z"></path>
                                <path d="M4.703125,1.09570313 C4.703125,1.37239583 4.484375,1.64908854 4.15625,1.64908854 C3.8828125,1.64908854 3.609375,1.42773438 3.609375,1.09570313 C3.609375,0.819010417 3.828125,0.542317708 4.15625,0.542317708 C4.484375,0.59765625 4.703125,0.819010417 4.703125,1.09570313 L4.703125,1.09570313 Z"></path>
                            </g>
                            <g transform="translate(0.000000, 3.320312)" id="Shape">
                                <path d="M1.1484375,1.09570313 C1.1484375,1.37239583 0.9296875,1.59375 0.6015625,1.59375 C0.328125,1.59375 0.109375,1.37239583 0.109375,1.09570313 C0.109375,0.819010417 0.328125,0.542317708 0.6015625,0.542317708 C0.9296875,0.59765625 1.1484375,0.819010417 1.1484375,1.09570313 L1.1484375,1.09570313 Z"></path>
                                <path d="M2.953125,1.09570313 C2.953125,1.37239583 2.734375,1.59375 2.40625,1.59375 C2.1328125,1.59375 1.859375,1.37239583 1.859375,1.09570313 C1.859375,0.819010417 2.078125,0.542317708 2.40625,0.542317708 C2.6796875,0.59765625 2.953125,0.819010417 2.953125,1.09570313 L2.953125,1.09570313 Z"></path>
                                <path d="M4.703125,1.09570313 C4.703125,1.37239583 4.484375,1.59375 4.15625,1.59375 C3.8828125,1.59375 3.609375,1.37239583 3.609375,1.09570313 C3.609375,0.819010417 3.828125,0.542317708 4.15625,0.542317708 C4.484375,0.59765625 4.703125,0.819010417 4.703125,1.09570313 L4.703125,1.09570313 Z"></path>
                            </g>
                        </g>
                    </g>
                </g>
            </g>
        </g>
    </g>
</svg>